<mxfile host="65bd71144e">
    <diagram id="pYGCoegBZScfqL3SHRMZ" name="Page-1">
        <mxGraphModel dx="1458" dy="1663" grid="1" gridSize="10" guides="1" tooltips="1" connect="1" arrows="1" fold="1" page="1" pageScale="1" pageWidth="850" pageHeight="1100" math="0" shadow="0">
            <root>
                <mxCell id="0"/>
                <mxCell id="1" parent="0"/>
                <UserObject label="" mermaidData="{&#xa;  &quot;data&quot;: &quot;erDiagram\n    USERS {\n        int id PK\n        string email\n        string password_hash\n        enum role\n        string first_name\n        string last_name\n        string profile_image_url\n        text bio\n        timestamp created_at\n        timestamp updated_at\n    }\n    \n    USER_PROFILES {\n        int user_id PK,FK\n        string headline\n        decimal hourly_rate\n        string company_name\n        text skills\n        decimal avg_rating\n        timestamp created_at\n        timestamp updated_at\n    }\n    \n    PROJECTS {\n        int id PK\n        int client_id FK\n        string title\n        text description\n        decimal budget_min\n        decimal budget_max\n        enum status\n        text skills_required\n        timestamp created_at\n        timestamp updated_at\n    }\n    \n    BIDS {\n        int id PK\n        int project_id FK\n        int freelancer_id FK\n        decimal amount\n        int duration_days\n        text proposal\n        enum status\n        timestamp created_at\n        timestamp updated_at\n    }\n    \n    CONTRACTS {\n        int id PK\n        int project_id FK\n        int bid_id FK\n        int client_id FK\n        int freelancer_id FK\n        string title\n        text description\n        decimal amount\n        date start_date\n        date end_date\n        enum status\n        timestamp created_at\n        timestamp updated_at\n        timestamp completed_at\n    }\n    \n    REVIEWS {\n        int id PK\n        int contract_id FK\n        int reviewer_id FK\n        int reviewee_id FK\n        int rating\n        text comment\n        timestamp created_at\n    }\n    \n    MESSAGES {\n        int id PK\n        int sender_id FK\n        int receiver_id FK\n        int project_id FK\n        text message\n        boolean is_read\n        timestamp created_at\n    }\n    \n    USERS ||--o{ PROJECTS : \&quot;posts as client\&quot;\n    USERS ||--o{ USER_PROFILES : \&quot;has\&quot;\n    USERS ||--o{ BIDS : \&quot;submits as freelancer\&quot;\n    PROJECTS ||--o{ BIDS : \&quot;receives\&quot;\n    BIDS ||--o| CONTRACTS : \&quot;accepted as\&quot;\n    PROJECTS ||--o| CONTRACTS : \&quot;results in\&quot;\n    USERS ||--o{ CONTRACTS : \&quot;participates as client\&quot;\n    USERS ||--o{ CONTRACTS : \&quot;participates as freelancer\&quot;\n    CONTRACTS ||--o{ REVIEWS : \&quot;generates\&quot;\n    USERS ||--o{ REVIEWS : \&quot;gives\&quot;\n    USERS ||--o{ REVIEWS : \&quot;receives\&quot;\n    USERS ||--o{ MESSAGES : \&quot;sends\&quot;\n    USERS ||--o{ MESSAGES : \&quot;receives\&quot;\n    PROJECTS ||--o{ MESSAGES : \&quot;relates to\&quot;&quot;&#xa;}" id="2">
                    <mxCell style="shape=image;noLabel=1;verticalAlign=top;imageAspect=1;image=data:image/svg+xml,PHN2ZyBhcmlhLXJvbGVkZXNjcmlwdGlvbj0iZXIiIHJvbGU9ImdyYXBoaWNzLWRvY3VtZW50IGRvY3VtZW50IiB2aWV3Qm94PSIwIDAgMTM0MS44NzEwOTM3NSAxNjYwIiBzdHlsZT0ibWF4LXdpZHRoOiAxMzQxLjg3MTA5Mzc1cHg7IiB4bWxucz0iaHR0cDovL3d3dy53My5vcmcvMjAwMC9zdmciIHdpZHRoPSIxMDAlIiBpZD0iZ2VNZXJtYWlkT3V0cHV0LTE3NDcwNDMyODgyMTciPjxzdHlsZT4jZ2VNZXJtYWlkT3V0cHV0LTE3NDcwNDMyODgyMTd7Zm9udC1mYW1pbHk6InRyZWJ1Y2hldCBtcyIsdmVyZGFuYSxhcmlhbCxzYW5zLXNlcmlmO2ZvbnQtc2l6ZToxNnB4O2ZpbGw6IzAwMDAwMDt9I2dlTWVybWFpZE91dHB1dC0xNzQ3MDQzMjg4MjE3IC5lcnJvci1pY29ue2ZpbGw6IzU1MjIyMjt9I2dlTWVybWFpZE91dHB1dC0xNzQ3MDQzMjg4MjE3IC5lcnJvci10ZXh0e2ZpbGw6IzU1MjIyMjtzdHJva2U6IzU1MjIyMjt9I2dlTWVybWFpZE91dHB1dC0xNzQ3MDQzMjg4MjE3IC5lZGdlLXRoaWNrbmVzcy1ub3JtYWx7c3Ryb2tlLXdpZHRoOjFweDt9I2dlTWVybWFpZE91dHB1dC0xNzQ3MDQzMjg4MjE3IC5lZGdlLXRoaWNrbmVzcy10aGlja3tzdHJva2Utd2lkdGg6My41cHg7fSNnZU1lcm1haWRPdXRwdXQtMTc0NzA0MzI4ODIxNyAuZWRnZS1wYXR0ZXJuLXNvbGlke3N0cm9rZS1kYXNoYXJyYXk6MDt9I2dlTWVybWFpZE91dHB1dC0xNzQ3MDQzMjg4MjE3IC5lZGdlLXRoaWNrbmVzcy1pbnZpc2libGV7c3Ryb2tlLXdpZHRoOjA7ZmlsbDpub25lO30jZ2VNZXJtYWlkT3V0cHV0LTE3NDcwNDMyODgyMTcgLmVkZ2UtcGF0dGVybi1kYXNoZWR7c3Ryb2tlLWRhc2hhcnJheTozO30jZ2VNZXJtYWlkT3V0cHV0LTE3NDcwNDMyODgyMTcgLmVkZ2UtcGF0dGVybi1kb3R0ZWR7c3Ryb2tlLWRhc2hhcnJheToyO30jZ2VNZXJtYWlkT3V0cHV0LTE3NDcwNDMyODgyMTcgLm1hcmtlcntmaWxsOiM2NjY7c3Ryb2tlOiM2NjY7fSNnZU1lcm1haWRPdXRwdXQtMTc0NzA0MzI4ODIxNyAubWFya2VyLmNyb3Nze3N0cm9rZTojNjY2O30jZ2VNZXJtYWlkT3V0cHV0LTE3NDcwNDMyODgyMTcgc3Zne2ZvbnQtZmFtaWx5OiJ0cmVidWNoZXQgbXMiLHZlcmRhbmEsYXJpYWwsc2Fucy1zZXJpZjtmb250LXNpemU6MTZweDt9I2dlTWVybWFpZE91dHB1dC0xNzQ3MDQzMjg4MjE3IHB7bWFyZ2luOjA7fSNnZU1lcm1haWRPdXRwdXQtMTc0NzA0MzI4ODIxNyAuZW50aXR5Qm94e2ZpbGw6I2VlZTtzdHJva2U6Izk5OTt9I2dlTWVybWFpZE91dHB1dC0xNzQ3MDQzMjg4MjE3IC5hdHRyaWJ1dGVCb3hPZGR7ZmlsbDojZmZmZmZmO3N0cm9rZTojOTk5O30jZ2VNZXJtYWlkT3V0cHV0LTE3NDcwNDMyODgyMTcgLmF0dHJpYnV0ZUJveEV2ZW57ZmlsbDojZjJmMmYyO3N0cm9rZTojOTk5O30jZ2VNZXJtYWlkT3V0cHV0LTE3NDcwNDMyODgyMTcgLnJlbGF0aW9uc2hpcExhYmVsQm94e2ZpbGw6aHNsKC0xNjAsIDAlLCA5My4zMzMzMzMzMzMzJSk7b3BhY2l0eTowLjc7YmFja2dyb3VuZC1jb2xvcjpoc2woLTE2MCwgMCUsIDkzLjMzMzMzMzMzMzMlKTt9I2dlTWVybWFpZE91dHB1dC0xNzQ3MDQzMjg4MjE3IC5yZWxhdGlvbnNoaXBMYWJlbEJveCByZWN0e29wYWNpdHk6MC41O30jZ2VNZXJtYWlkT3V0cHV0LTE3NDcwNDMyODgyMTcgLnJlbGF0aW9uc2hpcExpbmV7c3Ryb2tlOiM2NjY7fSNnZU1lcm1haWRPdXRwdXQtMTc0NzA0MzI4ODIxNyAuZW50aXR5VGl0bGVUZXh0e3RleHQtYW5jaG9yOm1pZGRsZTtmb250LXNpemU6MThweDtmaWxsOiMwMDAwMDA7fSNnZU1lcm1haWRPdXRwdXQtMTc0NzA0MzI4ODIxNyAjTURfUEFSRU5UX1NUQVJUe2ZpbGw6I2Y1ZjVmNSFpbXBvcnRhbnQ7c3Ryb2tlOiM2NjYhaW1wb3J0YW50O3N0cm9rZS13aWR0aDoxO30jZ2VNZXJtYWlkT3V0cHV0LTE3NDcwNDMyODgyMTcgI01EX1BBUkVOVF9FTkR7ZmlsbDojZjVmNWY1IWltcG9ydGFudDtzdHJva2U6IzY2NiFpbXBvcnRhbnQ7c3Ryb2tlLXdpZHRoOjE7fSNnZU1lcm1haWRPdXRwdXQtMTc0NzA0MzI4ODIxNyA6cm9vdHstLW1lcm1haWQtZm9udC1mYW1pbHk6InRyZWJ1Y2hldCBtcyIsdmVyZGFuYSxhcmlhbCxzYW5zLXNlcmlmO308L3N0eWxlPjxnPjwvZz48ZGVmcz48bWFya2VyIG9yaWVudD0iYXV0byIgbWFya2VySGVpZ2h0PSIyNDAiIG1hcmtlcldpZHRoPSIxOTAiIHJlZlk9IjciIHJlZlg9IjAiIGlkPSJNRF9QQVJFTlRfU1RBUlQiPjxwYXRoIGQ9Ik0gMTgsNyBMOSwxMyBMMSw3IEw5LDEgWiI+PC9wYXRoPjwvbWFya2VyPjwvZGVmcz48ZGVmcz48bWFya2VyIG9yaWVudD0iYXV0byIgbWFya2VySGVpZ2h0PSIyOCIgbWFya2VyV2lkdGg9IjIwIiByZWZZPSI3IiByZWZYPSIxOSIgaWQ9Ik1EX1BBUkVOVF9FTkQiPjxwYXRoIGQ9Ik0gMTgsNyBMOSwxMyBMMSw3IEw5LDEgWiI+PC9wYXRoPjwvbWFya2VyPjwvZGVmcz48ZGVmcz48bWFya2VyIG9yaWVudD0iYXV0byIgbWFya2VySGVpZ2h0PSIxOCIgbWFya2VyV2lkdGg9IjE4IiByZWZZPSI5IiByZWZYPSIwIiBpZD0iT05MWV9PTkVfU1RBUlQiPjxwYXRoIGQ9Ik05LDAgTDksMTggTTE1LDAgTDE1LDE4IiBmaWxsPSJub25lIiBzdHJva2U9ImdyYXkiPjwvcGF0aD48L21hcmtlcj48L2RlZnM+PGRlZnM+PG1hcmtlciBvcmllbnQ9ImF1dG8iIG1hcmtlckhlaWdodD0iMTgiIG1hcmtlcldpZHRoPSIxOCIgcmVmWT0iOSIgcmVmWD0iMTgiIGlkPSJPTkxZX09ORV9FTkQiPjxwYXRoIGQ9Ik0zLDAgTDMsMTggTTksMCBMOSwxOCIgZmlsbD0ibm9uZSIgc3Ryb2tlPSJncmF5Ij48L3BhdGg+PC9tYXJrZXI+PC9kZWZzPjxkZWZzPjxtYXJrZXIgb3JpZW50PSJhdXRvIiBtYXJrZXJIZWlnaHQ9IjE4IiBtYXJrZXJXaWR0aD0iMzAiIHJlZlk9IjkiIHJlZlg9IjAiIGlkPSJaRVJPX09SX09ORV9TVEFSVCI+PGNpcmNsZSByPSI2IiBjeT0iOSIgY3g9IjIxIiBmaWxsPSJ3aGl0ZSIgc3Ryb2tlPSJncmF5Ij48L2NpcmNsZT48cGF0aCBkPSJNOSwwIEw5LDE4IiBmaWxsPSJub25lIiBzdHJva2U9ImdyYXkiPjwvcGF0aD48L21hcmtlcj48L2RlZnM+PGRlZnM+PG1hcmtlciBvcmllbnQ9ImF1dG8iIG1hcmtlckhlaWdodD0iMTgiIG1hcmtlcldpZHRoPSIzMCIgcmVmWT0iOSIgcmVmWD0iMzAiIGlkPSJaRVJPX09SX09ORV9FTkQiPjxjaXJjbGUgcj0iNiIgY3k9IjkiIGN4PSI5IiBmaWxsPSJ3aGl0ZSIgc3Ryb2tlPSJncmF5Ij48L2NpcmNsZT48cGF0aCBkPSJNMjEsMCBMMjEsMTgiIGZpbGw9Im5vbmUiIHN0cm9rZT0iZ3JheSI+PC9wYXRoPjwvbWFya2VyPjwvZGVmcz48ZGVmcz48bWFya2VyIG9yaWVudD0iYXV0byIgbWFya2VySGVpZ2h0PSIzNiIgbWFya2VyV2lkdGg9IjQ1IiByZWZZPSIxOCIgcmVmWD0iMTgiIGlkPSJPTkVfT1JfTU9SRV9TVEFSVCI+PHBhdGggZD0iTTAsMTggUSAxOCwwIDM2LDE4IFEgMTgsMzYgMCwxOCBNNDIsOSBMNDIsMjciIGZpbGw9Im5vbmUiIHN0cm9rZT0iZ3JheSI+PC9wYXRoPjwvbWFya2VyPjwvZGVmcz48ZGVmcz48bWFya2VyIG9yaWVudD0iYXV0byIgbWFya2VySGVpZ2h0PSIzNiIgbWFya2VyV2lkdGg9IjQ1IiByZWZZPSIxOCIgcmVmWD0iMjciIGlkPSJPTkVfT1JfTU9SRV9FTkQiPjxwYXRoIGQ9Ik0zLDkgTDMsMjcgTTksMTggUTI3LDAgNDUsMTggUTI3LDM2IDksMTgiIGZpbGw9Im5vbmUiIHN0cm9rZT0iZ3JheSI+PC9wYXRoPjwvbWFya2VyPjwvZGVmcz48ZGVmcz48bWFya2VyIG9yaWVudD0iYXV0byIgbWFya2VySGVpZ2h0PSIzNiIgbWFya2VyV2lkdGg9IjU3IiByZWZZPSIxOCIgcmVmWD0iMTgiIGlkPSJaRVJPX09SX01PUkVfU1RBUlQiPjxjaXJjbGUgcj0iNiIgY3k9IjE4IiBjeD0iNDgiIGZpbGw9IndoaXRlIiBzdHJva2U9ImdyYXkiPjwvY2lyY2xlPjxwYXRoIGQ9Ik0wLDE4IFExOCwwIDM2LDE4IFExOCwzNiAwLDE4IiBmaWxsPSJub25lIiBzdHJva2U9ImdyYXkiPjwvcGF0aD48L21hcmtlcj48L2RlZnM+PGRlZnM+PG1hcmtlciBvcmllbnQ9ImF1dG8iIG1hcmtlckhlaWdodD0iMzYiIG1hcmtlcldpZHRoPSI1NyIgcmVmWT0iMTgiIHJlZlg9IjM5IiBpZD0iWkVST19PUl9NT1JFX0VORCI+PGNpcmNsZSByPSI2IiBjeT0iMTgiIGN4PSI5IiBmaWxsPSJ3aGl0ZSIgc3Ryb2tlPSJncmF5Ij48L2NpcmNsZT48cGF0aCBkPSJNMjEsMTggUTM5LDAgNTcsMTggUTM5LDM2IDIxLDE4IiBmaWxsPSJub25lIiBzdHJva2U9ImdyYXkiPjwvcGF0aD48L21hcmtlcj48L2RlZnM+PHBhdGggc3R5bGU9InN0cm9rZTogZ3JheTsgZmlsbDogbm9uZTsiIG1hcmtlci1zdGFydD0idXJsKCNPTkxZX09ORV9TVEFSVCkiIG1hcmtlci1lbmQ9InVybCgjWkVST19PUl9NT1JFX0VORCkiIGQ9Ik03OTIuNzYyLDI2NEw3OTUuNjkxLDI3Mi4zMzNDNzk4LjYyLDI4MC42NjcsODA0LjQ3OCwyOTcuMzMzLDgwNy40MDcsMzE0QzgxMC4zMzYsMzMwLjY2Nyw4MTAuMzM2LDM0Ny4zMzMsODEwLjMzNiwzNTUuNjY3TDgxMC4zMzYsMzY0IiBjbGFzcz0iZXIgcmVsYXRpb25zaGlwTGluZSI+PC9wYXRoPjxwYXRoIHN0eWxlPSJzdHJva2U6IGdyYXk7IGZpbGw6IG5vbmU7IiBtYXJrZXItc3RhcnQ9InVybCgjT05MWV9PTkVfU1RBUlQpIiBtYXJrZXItZW5kPSJ1cmwoI1pFUk9fT1JfTU9SRV9FTkQpIiBkPSJNNjYzLjk4NSwxNjUuMDNMNTcxLjM4LDE4OS44NThDNDc4Ljc3NSwyMTQuNjg3LDI5My41NjUsMjY0LjM0MywyMDAuOTYxLDMwMS4xNzJDMTA4LjM1NiwzMzgsMTA4LjM1NiwzNjIsMTA4LjM1NiwzNzRMMTA4LjM1NiwzODYiIGNsYXNzPSJlciByZWxhdGlvbnNoaXBMaW5lIj48L3BhdGg+PHBhdGggc3R5bGU9InN0cm9rZTogZ3JheTsgZmlsbDogbm9uZTsiIG1hcmtlci1zdGFydD0idXJsKCNPTkxZX09ORV9TVEFSVCkiIG1hcmtlci1lbmQ9InVybCgjWkVST19PUl9NT1JFX0VORCkiIGQ9Ik02NjMuOTg1LDE3NC42MDJMNjAyLjc3MywxOTcuODM1QzU0MS41NiwyMjEuMDY4LDQxOS4xMzYsMjY3LjUzNCwzNTcuOTI0LDMxOS40MzRDMjk2LjcxMSwzNzEuMzMzLDI5Ni43MTEsNDI4LjY2NywyOTYuNzExLDQ4NkMyOTYuNzExLDU0My4zMzMsMjk2LjcxMSw2MDAuNjY3LDI5Ny45NjksNjM3LjY2N0MyOTkuMjI2LDY3NC42NjcsMzAxLjc0LDY5MS4zMzMsMzAyLjk5OCw2OTkuNjY3TDMwNC4yNTUsNzA4IiBjbGFzcz0iZXIgcmVsYXRpb25zaGlwTGluZSI+PC9wYXRoPjxwYXRoIHN0eWxlPSJzdHJva2U6IGdyYXk7IGZpbGw6IG5vbmU7IiBtYXJrZXItc3RhcnQ9InVybCgjT05MWV9PTkVfU1RBUlQpIiBtYXJrZXItZW5kPSJ1cmwoI1pFUk9fT1JfTU9SRV9FTkQpIiBkPSJNNzMxLjY2OCw1MTguNzEzTDY3NS44NDIsNTQxLjkyOEM2MjAuMDE2LDU2NS4xNDIsNTA4LjM2Myw2MTEuNTcxLDQ0OC42MTksNjQzLjExOUMzODguODc0LDY3NC42NjcsMzgxLjAzNyw2OTEuMzMzLDM3Ny4xMTgsNjk5LjY2N0wzNzMuMTk5LDcwOCIgY2xhc3M9ImVyIHJlbGF0aW9uc2hpcExpbmUiPjwvcGF0aD48cGF0aCBzdHlsZT0ic3Ryb2tlOiBncmF5OyBmaWxsOiBub25lOyIgbWFya2VyLXN0YXJ0PSJ1cmwoI09OTFlfT05FX1NUQVJUKSIgbWFya2VyLWVuZD0idXJsKCNaRVJPX09SX09ORV9FTkQpIiBkPSJNMzIxLjAwMiw5MzBMMzIxLjAwMiw5MzguMzMzQzMyMS4wMDIsOTQ2LjY2NywzMjEuMDAyLDk2My4zMzMsNDEyLjk0MywxMDAzLjI1NkM1MDQuODg0LDEwNDMuMTc5LDY4OC43NjcsMTEwNi4zNTgsNzgwLjcwOCwxMTM3Ljk0N0w4NzIuNjQ5LDExNjkuNTM3IiBjbGFzcz0iZXIgcmVsYXRpb25zaGlwTGluZSI+PC9wYXRoPjxwYXRoIHN0eWxlPSJzdHJva2U6IGdyYXk7IGZpbGw6IG5vbmU7IiBtYXJrZXItc3RhcnQ9InVybCgjT05MWV9PTkVfU1RBUlQpIiBtYXJrZXItZW5kPSJ1cmwoI1pFUk9fT1JfT05FX0VORCkiIGQ9Ik04NDYuMzg2LDYwOEw4NDguODQ4LDYxNi4zMzNDODUxLjMxLDYyNC42NjcsODU2LjIzNSw2NDEuMzMzLDg1OC42OTgsNjc2LjVDODYxLjE2LDcxMS42NjcsODYxLjE2LDc2NS4zMzMsODYxLjE2LDgxOUM4NjEuMTYsODcyLjY2Nyw4NjEuMTYsOTI2LjMzMyw4NjQuNTc1LDk2MS41Qzg2Ny45ODksOTk2LjY2Nyw4NzQuODE5LDEwMTMuMzMzLDg3OC4yMzQsMTAyMS42NjdMODgxLjY0OSwxMDMwIiBjbGFzcz0iZXIgcmVsYXRpb25zaGlwTGluZSI+PC9wYXRoPjxwYXRoIHN0eWxlPSJzdHJva2U6IGdyYXk7IGZpbGw6IG5vbmU7IiBtYXJrZXItc3RhcnQ9InVybCgjT05MWV9PTkVfU1RBUlQpIiBtYXJrZXItZW5kPSJ1cmwoI1pFUk9fT1JfTU9SRV9FTkQpIiBkPSJNODM1Ljc3OSwyMDEuMTQ3TDg2My4wOTQsMjE5Ljk1NkM4OTAuNDEsMjM4Ljc2NSw5NDUuMDQsMjc2LjM4Miw5NzIuMzU2LDMyMy44NThDOTk5LjY3MSwzNzEuMzMzLDk5OS42NzEsNDI4LjY2Nyw5OTkuNjcxLDQ4NkM5OTkuNjcxLDU0My4zMzMsOTk5LjY3MSw2MDAuNjY3LDk5OS42NzEsNjU2LjE2N0M5OTkuNjcxLDcxMS42NjcsOTk5LjY3MSw3NjUuMzMzLDk5OS42NzEsODE5Qzk5OS42NzEsODcyLjY2Nyw5OTkuNjcxLDkyNi4zMzMsOTk3Ljc0Miw5NjEuNUM5OTUuODEzLDk5Ni42NjcsOTkxLjk1NSwxMDEzLjMzMyw5OTAuMDI2LDEwMjEuNjY3TDk4OC4wOTcsMTAzMCIgY2xhc3M9ImVyIHJlbGF0aW9uc2hpcExpbmUiPjwvcGF0aD48cGF0aCBzdHlsZT0ic3Ryb2tlOiBncmF5OyBmaWxsOiBub25lOyIgbWFya2VyLXN0YXJ0PSJ1cmwoI09OTFlfT05FX1NUQVJUKSIgbWFya2VyLWVuZD0idXJsKCNaRVJPX09SX01PUkVfRU5EKSIgZD0iTTgzNS43NzksMTg0LjIzOEw4NzkuNzYxLDIwNS44NjVDOTIzLjc0MywyMjcuNDkyLDEwMTEuNzA3LDI3MC43NDYsMTA1NS42ODksMzIxLjA0QzEwOTkuNjcxLDM3MS4zMzMsMTA5OS42NzEsNDI4LjY2NywxMDk5LjY3MSw0ODZDMTA5OS42NzEsNTQzLjMzMywxMDk5LjY3MSw2MDAuNjY3LDEwOTkuNjcxLDY1Ni4xNjdDMTA5OS42NzEsNzExLjY2NywxMDk5LjY3MSw3NjUuMzMzLDEwOTkuNjcxLDgxOUMxMDk5LjY3MSw4NzIuNjY3LDEwOTkuNjcxLDkyNi4zMzMsMTA4Ny41MDgsOTcwLjY4MUMxMDc1LjM0NSwxMDE1LjAyOSwxMDUxLjAxOSwxMDUwLjA1OSwxMDM4Ljg1NiwxMDY3LjU3NEwxMDI2LjY5MywxMDg1LjA4OCIgY2xhc3M9ImVyIHJlbGF0aW9uc2hpcExpbmUiPjwvcGF0aD48cGF0aCBzdHlsZT0ic3Ryb2tlOiBncmF5OyBmaWxsOiBub25lOyIgbWFya2VyLXN0YXJ0PSJ1cmwoI09OTFlfT05FX1NUQVJUKSIgbWFya2VyLWVuZD0idXJsKCNaRVJPX09SX01PUkVfRU5EKSIgZD0iTTk0OS42NzEsMTM2Mkw5NDkuNjcxLDEzNzAuMzMzQzk0OS42NzEsMTM3OC42NjcsOTQ5LjY3MSwxMzk1LjMzMyw5NzkuMTM3LDE0MjAuMDVDMTAwOC42MDIsMTQ0NC43NjYsMTA2Ny41MzMsMTQ3Ny41MzIsMTA5Ni45OTksMTQ5My45MTRMMTEyNi40NjUsMTUxMC4yOTciIGNsYXNzPSJlciByZWxhdGlvbnNoaXBMaW5lIj48L3BhdGg+PHBhdGggc3R5bGU9InN0cm9rZTogZ3JheTsgZmlsbDogbm9uZTsiIG1hcmtlci1zdGFydD0idXJsKCNPTkxZX09ORV9TVEFSVCkiIG1hcmtlci1lbmQ9InVybCgjWkVST19PUl9NT1JFX0VORCkiIGQ9Ik04MzUuNzc5LDE3NC44NDdMODk2LjQyNywxOTguMDM5Qzk1Ny4wNzYsMjIxLjIzMSwxMDc4LjM3NCwyNjcuNjE2LDExMzkuMDIyLDMxOS40NzVDMTE5OS42NzEsMzcxLjMzMywxMTk5LjY3MSw0MjguNjY3LDExOTkuNjcxLDQ4NkMxMTk5LjY3MSw1NDMuMzMzLDExOTkuNjcxLDYwMC42NjcsMTE5OS42NzEsNjU2LjE2N0MxMTk5LjY3MSw3MTEuNjY3LDExOTkuNjcxLDc2NS4zMzMsMTE5OS42NzEsODE5QzExOTkuNjcxLDg3Mi42NjcsMTE5OS42NzEsOTI2LjMzMywxMTk5LjY3MSw5ODkuMTY3QzExOTkuNjcxLDEwNTIsMTE5OS42NzEsMTEyNCwxMTk5LjY3MSwxMTk2QzExOTkuNjcxLDEyNjgsMTE5OS42NzEsMTM0MCwxMTk5LjY3MSwxMzg0LjMzM0MxMTk5LjY3MSwxNDI4LjY2NywxMTk5LjY3MSwxNDQ1LjMzMywxMTk5LjY3MSwxNDUzLjY2N0wxMTk5LjY3MSwxNDYyIiBjbGFzcz0iZXIgcmVsYXRpb25zaGlwTGluZSI+PC9wYXRoPjxwYXRoIHN0eWxlPSJzdHJva2U6IGdyYXk7IGZpbGw6IG5vbmU7IiBtYXJrZXItc3RhcnQ9InVybCgjT05MWV9PTkVfU1RBUlQpIiBtYXJrZXItZW5kPSJ1cmwoI1pFUk9fT1JfTU9SRV9FTkQpIiBkPSJNODM1Ljc3OSwxNjguODczTDkxMy4wOTQsMTkzLjA2MUM5OTAuNDEsMjE3LjI0OCwxMTQ1LjA0LDI2NS42MjQsMTIyMi4zNTYsMzE4LjQ3OUMxMjk5LjY3MSwzNzEuMzMzLDEyOTkuNjcxLDQyOC42NjcsMTI5OS42NzEsNDg2QzEyOTkuNjcxLDU0My4zMzMsMTI5OS42NzEsNjAwLjY2NywxMjk5LjY3MSw2NTYuMTY3QzEyOTkuNjcxLDcxMS42NjcsMTI5OS42NzEsNzY1LjMzMywxMjk5LjY3MSw4MTlDMTI5OS42NzEsODcyLjY2NywxMjk5LjY3MSw5MjYuMzMzLDEyOTkuNjcxLDk4OS4xNjdDMTI5OS42NzEsMTA1MiwxMjk5LjY3MSwxMTI0LDEyOTkuNjcxLDExOTZDMTI5OS42NzEsMTI2OCwxMjk5LjY3MSwxMzQwLDEyOTMuNjc2LDEzODQuMzMzQzEyODcuNjgsMTQyOC42NjcsMTI3NS42OSwxNDQ1LjMzMywxMjY5LjY5NSwxNDUzLjY2N0wxMjYzLjcsMTQ2MiIgY2xhc3M9ImVyIHJlbGF0aW9uc2hpcExpbmUiPjwvcGF0aD48cGF0aCBzdHlsZT0ic3Ryb2tlOiBncmF5OyBmaWxsOiBub25lOyIgbWFya2VyLXN0YXJ0PSJ1cmwoI09OTFlfT05FX1NUQVJUKSIgbWFya2VyLWVuZD0idXJsKCNaRVJPX09SX01PUkVfRU5EKSIgZD0iTTY2My45ODUsMjAwLjM1N0w2MzYuMTA2LDIxOS4yOThDNjA4LjIyNywyMzguMjM4LDU1Mi40NjksMjc2LjExOSw1MjQuNTksMzIzLjcyNkM0OTYuNzExLDM3MS4zMzMsNDk2LjcxMSw0MjguNjY3LDQ5Ni43MTEsNDg2QzQ5Ni43MTEsNTQzLjMzMyw0OTYuNzExLDYwMC42NjcsNTA1Ljk3NSw2NDEuMzMzQzUxNS4yMzksNjgyLDUzMy43NjcsNzA2LDU0My4wMzEsNzE4TDU1Mi4yOTUsNzMwIiBjbGFzcz0iZXIgcmVsYXRpb25zaGlwTGluZSI+PC9wYXRoPjxwYXRoIHN0eWxlPSJzdHJva2U6IGdyYXk7IGZpbGw6IG5vbmU7IiBtYXJrZXItc3RhcnQ9InVybCgjT05MWV9PTkVfU1RBUlQpIiBtYXJrZXItZW5kPSJ1cmwoI1pFUk9fT1JfTU9SRV9FTkQpIiBkPSJNNjYzLjk4NSwyNTYuNjM2TDY1Ni44MjEsMjY2LjE5N0M2NDkuNjU3LDI3NS43NTcsNjM1LjMzLDI5NC44NzksNjI4LjE2NiwzMzMuMTA2QzYyMS4wMDIsMzcxLjMzMyw2MjEuMDAyLDQyOC42NjcsNjIxLjAwMiw0ODZDNjIxLjAwMiw1NDMuMzMzLDYyMS4wMDIsNjAwLjY2Nyw2MjEuMDAyLDY0MS4zMzNDNjIxLjAwMiw2ODIsNjIxLjAwMiw3MDYsNjIxLjAwMiw3MThMNjIxLjAwMiw3MzAiIGNsYXNzPSJlciByZWxhdGlvbnNoaXBMaW5lIj48L3BhdGg+PHBhdGggc3R5bGU9InN0cm9rZTogZ3JheTsgZmlsbDogbm9uZTsiIG1hcmtlci1zdGFydD0idXJsKCNPTkxZX09ORV9TVEFSVCkiIG1hcmtlci1lbmQ9InVybCgjWkVST19PUl9NT1JFX0VORCkiIGQ9Ik03NzQuODcxLDYwOEw3NzIuNDQ5LDYxNi4zMzNDNzcwLjAyNiw2MjQuNjY3LDc2NS4xODEsNjQxLjMzMyw3NTEuMzkzLDY2Mi44QzczNy42MDQsNjg0LjI2Nyw3MTQuODcyLDcxMC41MzQsNzAzLjUwNiw3MjMuNjY3TDY5Mi4xNCw3MzYuODAxIiBjbGFzcz0iZXIgcmVsYXRpb25zaGlwTGluZSI+PC9wYXRoPjxnIHRyYW5zZm9ybT0idHJhbnNsYXRlKDY2My45ODQ4NjcwOTU5NDczLDIwICkiIGlkPSJlbnRpdHktVVNFUlMtMWU4MmUzOTUtOTM2Yy01N2E3LThiYTktYjA4ZjAzNTc0YjkzIj48cmVjdCBoZWlnaHQ9IjI0NCIgd2lkdGg9IjE3MS43OTM5NDQzNTg4MjU2OCIgeT0iMCIgeD0iMCIgY2xhc3M9ImVyIGVudGl0eUJveCI+PC9yZWN0Pjx0ZXh0IHN0eWxlPSJkb21pbmFudC1iYXNlbGluZTogbWlkZGxlOyB0ZXh0LWFuY2hvcjogbWlkZGxlOyBmb250LXNpemU6IDEycHg7IiB0cmFuc2Zvcm09InRyYW5zbGF0ZSg4NS44OTY5NzIxNzk0MTI4NCwxMikiIHk9IjAiIHg9IjAiIGlkPSJ0ZXh0LWVudGl0eS1VU0VSUy0xZTgyZTM5NS05MzZjLTU3YTctOGJhOS1iMDhmMDM1NzRiOTMiIGNsYXNzPSJlciBlbnRpdHlMYWJlbCI+VVNFUlM8L3RleHQ+PHJlY3QgaGVpZ2h0PSIyMiIgd2lkdGg9IjU4LjY2ODc1MDc2MjkzOTQ1IiB5PSIyNCIgeD0iMCIgY2xhc3M9ImVyIGF0dHJpYnV0ZUJveE9kZCI+PC9yZWN0Pjx0ZXh0IHN0eWxlPSJkb21pbmFudC1iYXNlbGluZTogbWlkZGxlOyBmb250LXNpemU6IDEwLjJweDsiIHRyYW5zZm9ybT0idHJhbnNsYXRlKDUsMzUpIiB5PSIwIiB4PSIwIiBpZD0idGV4dC1lbnRpdHktVVNFUlMtMWU4MmUzOTUtOTM2Yy01N2E3LThiYTktYjA4ZjAzNTc0YjkzLWF0dHItMS10eXBlIiBjbGFzcz0iZXIgZW50aXR5TGFiZWwiPmludDwvdGV4dD48cmVjdCBoZWlnaHQ9IjIyIiB3aWR0aD0iOTEuMDM3NDk4NDc0MTIxMSIgeT0iMjQiIHg9IjU4LjY2ODc1MDc2MjkzOTQ1IiBjbGFzcz0iZXIgYXR0cmlidXRlQm94T2RkIj48L3JlY3Q+PHRleHQgc3R5bGU9ImRvbWluYW50LWJhc2VsaW5lOiBtaWRkbGU7IGZvbnQtc2l6ZTogMTAuMnB4OyIgdHJhbnNmb3JtPSJ0cmFuc2xhdGUoNjMuNjY4NzUwNzYyOTM5NDUsMzUpIiB5PSIwIiB4PSIwIiBpZD0idGV4dC1lbnRpdHktVVNFUlMtMWU4MmUzOTUtOTM2Yy01N2E3LThiYTktYjA4ZjAzNTc0YjkzLWF0dHItMS1uYW1lIiBjbGFzcz0iZXIgZW50aXR5TGFiZWwiPmlkPC90ZXh0PjxyZWN0IGhlaWdodD0iMjIiIHdpZHRoPSIyMi4wODc2OTUxMjE3NjUxMzciIHk9IjI0IiB4PSIxNDkuNzA2MjQ5MjM3MDYwNTUiIGNsYXNzPSJlciBhdHRyaWJ1dGVCb3hPZGQiPjwvcmVjdD48dGV4dCBzdHlsZT0iZG9taW5hbnQtYmFzZWxpbmU6IG1pZGRsZTsgZm9udC1zaXplOiAxMC4ycHg7IiB0cmFuc2Zvcm09InRyYW5zbGF0ZSgxNTQuNzA2MjQ5MjM3MDYwNTUsMzUpIiB5PSIwIiB4PSIwIiBpZD0idGV4dC1lbnRpdHktVVNFUlMtMWU4MmUzOTUtOTM2Yy01N2E3LThiYTktYjA4ZjAzNTc0YjkzLWF0dHItMS1rZXkiIGNsYXNzPSJlciBlbnRpdHlMYWJlbCI+UEs8L3RleHQ+PHJlY3QgaGVpZ2h0PSIyMiIgd2lkdGg9IjU4LjY2ODc1MDc2MjkzOTQ1IiB5PSI0NiIgeD0iMCIgY2xhc3M9ImVyIGF0dHJpYnV0ZUJveEV2ZW4iPjwvcmVjdD48dGV4dCBzdHlsZT0iZG9taW5hbnQtYmFzZWxpbmU6IG1pZGRsZTsgZm9udC1zaXplOiAxMC4ycHg7IiB0cmFuc2Zvcm09InRyYW5zbGF0ZSg1LDU3KSIgeT0iMCIgeD0iMCIgaWQ9InRleHQtZW50aXR5LVVTRVJTLTFlODJlMzk1LTkzNmMtNTdhNy04YmE5LWIwOGYwMzU3NGI5My1hdHRyLTItdHlwZSIgY2xhc3M9ImVyIGVudGl0eUxhYmVsIj5zdHJpbmc8L3RleHQ+PHJlY3QgaGVpZ2h0PSIyMiIgd2lkdGg9IjkxLjAzNzQ5ODQ3NDEyMTEiIHk9IjQ2IiB4PSI1OC42Njg3NTA3NjI5Mzk0NSIgY2xhc3M9ImVyIGF0dHJpYnV0ZUJveEV2ZW4iPjwvcmVjdD48dGV4dCBzdHlsZT0iZG9taW5hbnQtYmFzZWxpbmU6IG1pZGRsZTsgZm9udC1zaXplOiAxMC4ycHg7IiB0cmFuc2Zvcm09InRyYW5zbGF0ZSg2My42Njg3NTA3NjI5Mzk0NSw1NykiIHk9IjAiIHg9IjAiIGlkPSJ0ZXh0LWVudGl0eS1VU0VSUy0xZTgyZTM5NS05MzZjLTU3YTctOGJhOS1iMDhmMDM1NzRiOTMtYXR0ci0yLW5hbWUiIGNsYXNzPSJlciBlbnRpdHlMYWJlbCI+ZW1haWw8L3RleHQ+PHJlY3QgaGVpZ2h0PSIyMiIgd2lkdGg9IjIyLjA4NzY5NTEyMTc2NTEzNyIgeT0iNDYiIHg9IjE0OS43MDYyNDkyMzcwNjA1NSIgY2xhc3M9ImVyIGF0dHJpYnV0ZUJveEV2ZW4iPjwvcmVjdD48dGV4dCBzdHlsZT0iZG9taW5hbnQtYmFzZWxpbmU6IG1pZGRsZTsgZm9udC1zaXplOiAxMC4ycHg7IiB0cmFuc2Zvcm09InRyYW5zbGF0ZSgxNTQuNzA2MjQ5MjM3MDYwNTUsNTcpIiB5PSIwIiB4PSIwIiBpZD0idGV4dC1lbnRpdHktVVNFUlMtMWU4MmUzOTUtOTM2Yy01N2E3LThiYTktYjA4ZjAzNTc0YjkzLWF0dHItMi1rZXkiIGNsYXNzPSJlciBlbnRpdHlMYWJlbCI+PC90ZXh0PjxyZWN0IGhlaWdodD0iMjIiIHdpZHRoPSI1OC42Njg3NTA3NjI5Mzk0NSIgeT0iNjgiIHg9IjAiIGNsYXNzPSJlciBhdHRyaWJ1dGVCb3hPZGQiPjwvcmVjdD48dGV4dCBzdHlsZT0iZG9taW5hbnQtYmFzZWxpbmU6IG1pZGRsZTsgZm9udC1zaXplOiAxMC4ycHg7IiB0cmFuc2Zvcm09InRyYW5zbGF0ZSg1LDc5KSIgeT0iMCIgeD0iMCIgaWQ9InRleHQtZW50aXR5LVVTRVJTLTFlODJlMzk1LTkzNmMtNTdhNy04YmE5LWIwOGYwMzU3NGI5My1hdHRyLTMtdHlwZSIgY2xhc3M9ImVyIGVudGl0eUxhYmVsIj5zdHJpbmc8L3RleHQ+PHJlY3QgaGVpZ2h0PSIyMiIgd2lkdGg9IjkxLjAzNzQ5ODQ3NDEyMTEiIHk9IjY4IiB4PSI1OC42Njg3NTA3NjI5Mzk0NSIgY2xhc3M9ImVyIGF0dHJpYnV0ZUJveE9kZCI+PC9yZWN0Pjx0ZXh0IHN0eWxlPSJkb21pbmFudC1iYXNlbGluZTogbWlkZGxlOyBmb250LXNpemU6IDEwLjJweDsiIHRyYW5zZm9ybT0idHJhbnNsYXRlKDYzLjY2ODc1MDc2MjkzOTQ1LDc5KSIgeT0iMCIgeD0iMCIgaWQ9InRleHQtZW50aXR5LVVTRVJTLTFlODJlMzk1LTkzNmMtNTdhNy04YmE5LWIwOGYwMzU3NGI5My1hdHRyLTMtbmFtZSIgY2xhc3M9ImVyIGVudGl0eUxhYmVsIj5wYXNzd29yZF9oYXNoPC90ZXh0PjxyZWN0IGhlaWdodD0iMjIiIHdpZHRoPSIyMi4wODc2OTUxMjE3NjUxMzciIHk9IjY4IiB4PSIxNDkuNzA2MjQ5MjM3MDYwNTUiIGNsYXNzPSJlciBhdHRyaWJ1dGVCb3hPZGQiPjwvcmVjdD48dGV4dCBzdHlsZT0iZG9taW5hbnQtYmFzZWxpbmU6IG1pZGRsZTsgZm9udC1zaXplOiAxMC4ycHg7IiB0cmFuc2Zvcm09InRyYW5zbGF0ZSgxNTQuNzA2MjQ5MjM3MDYwNTUsNzkpIiB5PSIwIiB4PSIwIiBpZD0idGV4dC1lbnRpdHktVVNFUlMtMWU4MmUzOTUtOTM2Yy01N2E3LThiYTktYjA4ZjAzNTc0YjkzLWF0dHItMy1rZXkiIGNsYXNzPSJlciBlbnRpdHlMYWJlbCI+PC90ZXh0PjxyZWN0IGhlaWdodD0iMjIiIHdpZHRoPSI1OC42Njg3NTA3NjI5Mzk0NSIgeT0iOTAiIHg9IjAiIGNsYXNzPSJlciBhdHRyaWJ1dGVCb3hFdmVuIj48L3JlY3Q+PHRleHQgc3R5bGU9ImRvbWluYW50LWJhc2VsaW5lOiBtaWRkbGU7IGZvbnQtc2l6ZTogMTAuMnB4OyIgdHJhbnNmb3JtPSJ0cmFuc2xhdGUoNSwxMDEpIiB5PSIwIiB4PSIwIiBpZD0idGV4dC1lbnRpdHktVVNFUlMtMWU4MmUzOTUtOTM2Yy01N2E3LThiYTktYjA4ZjAzNTc0YjkzLWF0dHItNC10eXBlIiBjbGFzcz0iZXIgZW50aXR5TGFiZWwiPmVudW08L3RleHQ+PHJlY3QgaGVpZ2h0PSIyMiIgd2lkdGg9IjkxLjAzNzQ5ODQ3NDEyMTEiIHk9IjkwIiB4PSI1OC42Njg3NTA3NjI5Mzk0NSIgY2xhc3M9ImVyIGF0dHJpYnV0ZUJveEV2ZW4iPjwvcmVjdD48dGV4dCBzdHlsZT0iZG9taW5hbnQtYmFzZWxpbmU6IG1pZGRsZTsgZm9udC1zaXplOiAxMC4ycHg7IiB0cmFuc2Zvcm09InRyYW5zbGF0ZSg2My42Njg3NTA3NjI5Mzk0NSwxMDEpIiB5PSIwIiB4PSIwIiBpZD0idGV4dC1lbnRpdHktVVNFUlMtMWU4MmUzOTUtOTM2Yy01N2E3LThiYTktYjA4ZjAzNTc0YjkzLWF0dHItNC1uYW1lIiBjbGFzcz0iZXIgZW50aXR5TGFiZWwiPnJvbGU8L3RleHQ+PHJlY3QgaGVpZ2h0PSIyMiIgd2lkdGg9IjIyLjA4NzY5NTEyMTc2NTEzNyIgeT0iOTAiIHg9IjE0OS43MDYyNDkyMzcwNjA1NSIgY2xhc3M9ImVyIGF0dHJpYnV0ZUJveEV2ZW4iPjwvcmVjdD48dGV4dCBzdHlsZT0iZG9taW5hbnQtYmFzZWxpbmU6IG1pZGRsZTsgZm9udC1zaXplOiAxMC4ycHg7IiB0cmFuc2Zvcm09InRyYW5zbGF0ZSgxNTQuNzA2MjQ5MjM3MDYwNTUsMTAxKSIgeT0iMCIgeD0iMCIgaWQ9InRleHQtZW50aXR5LVVTRVJTLTFlODJlMzk1LTkzNmMtNTdhNy04YmE5LWIwOGYwMzU3NGI5My1hdHRyLTQta2V5IiBjbGFzcz0iZXIgZW50aXR5TGFiZWwiPjwvdGV4dD48cmVjdCBoZWlnaHQ9IjIyIiB3aWR0aD0iNTguNjY4NzUwNzYyOTM5NDUiIHk9IjExMiIgeD0iMCIgY2xhc3M9ImVyIGF0dHJpYnV0ZUJveE9kZCI+PC9yZWN0Pjx0ZXh0IHN0eWxlPSJkb21pbmFudC1iYXNlbGluZTogbWlkZGxlOyBmb250LXNpemU6IDEwLjJweDsiIHRyYW5zZm9ybT0idHJhbnNsYXRlKDUsMTIzKSIgeT0iMCIgeD0iMCIgaWQ9InRleHQtZW50aXR5LVVTRVJTLTFlODJlMzk1LTkzNmMtNTdhNy04YmE5LWIwOGYwMzU3NGI5My1hdHRyLTUtdHlwZSIgY2xhc3M9ImVyIGVudGl0eUxhYmVsIj5zdHJpbmc8L3RleHQ+PHJlY3QgaGVpZ2h0PSIyMiIgd2lkdGg9IjkxLjAzNzQ5ODQ3NDEyMTEiIHk9IjExMiIgeD0iNTguNjY4NzUwNzYyOTM5NDUiIGNsYXNzPSJlciBhdHRyaWJ1dGVCb3hPZGQiPjwvcmVjdD48dGV4dCBzdHlsZT0iZG9taW5hbnQtYmFzZWxpbmU6IG1pZGRsZTsgZm9udC1zaXplOiAxMC4ycHg7IiB0cmFuc2Zvcm09InRyYW5zbGF0ZSg2My42Njg3NTA3NjI5Mzk0NSwxMjMpIiB5PSIwIiB4PSIwIiBpZD0idGV4dC1lbnRpdHktVVNFUlMtMWU4MmUzOTUtOTM2Yy01N2E3LThiYTktYjA4ZjAzNTc0YjkzLWF0dHItNS1uYW1lIiBjbGFzcz0iZXIgZW50aXR5TGFiZWwiPmZpcnN0X25hbWU8L3RleHQ+PHJlY3QgaGVpZ2h0PSIyMiIgd2lkdGg9IjIyLjA4NzY5NTEyMTc2NTEzNyIgeT0iMTEyIiB4PSIxNDkuNzA2MjQ5MjM3MDYwNTUiIGNsYXNzPSJlciBhdHRyaWJ1dGVCb3hPZGQiPjwvcmVjdD48dGV4dCBzdHlsZT0iZG9taW5hbnQtYmFzZWxpbmU6IG1pZGRsZTsgZm9udC1zaXplOiAxMC4ycHg7IiB0cmFuc2Zvcm09InRyYW5zbGF0ZSgxNTQuNzA2MjQ5MjM3MDYwNTUsMTIzKSIgeT0iMCIgeD0iMCIgaWQ9InRleHQtZW50aXR5LVVTRVJTLTFlODJlMzk1LTkzNmMtNTdhNy04YmE5LWIwOGYwMzU3NGI5My1hdHRyLTUta2V5IiBjbGFzcz0iZXIgZW50aXR5TGFiZWwiPjwvdGV4dD48cmVjdCBoZWlnaHQ9IjIyIiB3aWR0aD0iNTguNjY4NzUwNzYyOTM5NDUiIHk9IjEzNCIgeD0iMCIgY2xhc3M9ImVyIGF0dHJpYnV0ZUJveEV2ZW4iPjwvcmVjdD48dGV4dCBzdHlsZT0iZG9taW5hbnQtYmFzZWxpbmU6IG1pZGRsZTsgZm9udC1zaXplOiAxMC4ycHg7IiB0cmFuc2Zvcm09InRyYW5zbGF0ZSg1LDE0NSkiIHk9IjAiIHg9IjAiIGlkPSJ0ZXh0LWVudGl0eS1VU0VSUy0xZTgyZTM5NS05MzZjLTU3YTctOGJhOS1iMDhmMDM1NzRiOTMtYXR0ci02LXR5cGUiIGNsYXNzPSJlciBlbnRpdHlMYWJlbCI+c3RyaW5nPC90ZXh0PjxyZWN0IGhlaWdodD0iMjIiIHdpZHRoPSI5MS4wMzc0OTg0NzQxMjExIiB5PSIxMzQiIHg9IjU4LjY2ODc1MDc2MjkzOTQ1IiBjbGFzcz0iZXIgYXR0cmlidXRlQm94RXZlbiI+PC9yZWN0Pjx0ZXh0IHN0eWxlPSJkb21pbmFudC1iYXNlbGluZTogbWlkZGxlOyBmb250LXNpemU6IDEwLjJweDsiIHRyYW5zZm9ybT0idHJhbnNsYXRlKDYzLjY2ODc1MDc2MjkzOTQ1LDE0NSkiIHk9IjAiIHg9IjAiIGlkPSJ0ZXh0LWVudGl0eS1VU0VSUy0xZTgyZTM5NS05MzZjLTU3YTctOGJhOS1iMDhmMDM1NzRiOTMtYXR0ci02LW5hbWUiIGNsYXNzPSJlciBlbnRpdHlMYWJlbCI+bGFzdF9uYW1lPC90ZXh0PjxyZWN0IGhlaWdodD0iMjIiIHdpZHRoPSIyMi4wODc2OTUxMjE3NjUxMzciIHk9IjEzNCIgeD0iMTQ5LjcwNjI0OTIzNzA2MDU1IiBjbGFzcz0iZXIgYXR0cmlidXRlQm94RXZlbiI+PC9yZWN0Pjx0ZXh0IHN0eWxlPSJkb21pbmFudC1iYXNlbGluZTogbWlkZGxlOyBmb250LXNpemU6IDEwLjJweDsiIHRyYW5zZm9ybT0idHJhbnNsYXRlKDE1NC43MDYyNDkyMzcwNjA1NSwxNDUpIiB5PSIwIiB4PSIwIiBpZD0idGV4dC1lbnRpdHktVVNFUlMtMWU4MmUzOTUtOTM2Yy01N2E3LThiYTktYjA4ZjAzNTc0YjkzLWF0dHItNi1rZXkiIGNsYXNzPSJlciBlbnRpdHlMYWJlbCI+PC90ZXh0PjxyZWN0IGhlaWdodD0iMjIiIHdpZHRoPSI1OC42Njg3NTA3NjI5Mzk0NSIgeT0iMTU2IiB4PSIwIiBjbGFzcz0iZXIgYXR0cmlidXRlQm94T2RkIj48L3JlY3Q+PHRleHQgc3R5bGU9ImRvbWluYW50LWJhc2VsaW5lOiBtaWRkbGU7IGZvbnQtc2l6ZTogMTAuMnB4OyIgdHJhbnNmb3JtPSJ0cmFuc2xhdGUoNSwxNjcpIiB5PSIwIiB4PSIwIiBpZD0idGV4dC1lbnRpdHktVVNFUlMtMWU4MmUzOTUtOTM2Yy01N2E3LThiYTktYjA4ZjAzNTc0YjkzLWF0dHItNy10eXBlIiBjbGFzcz0iZXIgZW50aXR5TGFiZWwiPnN0cmluZzwvdGV4dD48cmVjdCBoZWlnaHQ9IjIyIiB3aWR0aD0iOTEuMDM3NDk4NDc0MTIxMSIgeT0iMTU2IiB4PSI1OC42Njg3NTA3NjI5Mzk0NSIgY2xhc3M9ImVyIGF0dHJpYnV0ZUJveE9kZCI+PC9yZWN0Pjx0ZXh0IHN0eWxlPSJkb21pbmFudC1iYXNlbGluZTogbWlkZGxlOyBmb250LXNpemU6IDEwLjJweDsiIHRyYW5zZm9ybT0idHJhbnNsYXRlKDYzLjY2ODc1MDc2MjkzOTQ1LDE2NykiIHk9IjAiIHg9IjAiIGlkPSJ0ZXh0LWVudGl0eS1VU0VSUy0xZTgyZTM5NS05MzZjLTU3YTctOGJhOS1iMDhmMDM1NzRiOTMtYXR0ci03LW5hbWUiIGNsYXNzPSJlciBlbnRpdHlMYWJlbCI+cHJvZmlsZV9pbWFnZV91cmw8L3RleHQ+PHJlY3QgaGVpZ2h0PSIyMiIgd2lkdGg9IjIyLjA4NzY5NTEyMTc2NTEzNyIgeT0iMTU2IiB4PSIxNDkuNzA2MjQ5MjM3MDYwNTUiIGNsYXNzPSJlciBhdHRyaWJ1dGVCb3hPZGQiPjwvcmVjdD48dGV4dCBzdHlsZT0iZG9taW5hbnQtYmFzZWxpbmU6IG1pZGRsZTsgZm9udC1zaXplOiAxMC4ycHg7IiB0cmFuc2Zvcm09InRyYW5zbGF0ZSgxNTQuNzA2MjQ5MjM3MDYwNTUsMTY3KSIgeT0iMCIgeD0iMCIgaWQ9InRleHQtZW50aXR5LVVTRVJTLTFlODJlMzk1LTkzNmMtNTdhNy04YmE5LWIwOGYwMzU3NGI5My1hdHRyLTcta2V5IiBjbGFzcz0iZXIgZW50aXR5TGFiZWwiPjwvdGV4dD48cmVjdCBoZWlnaHQ9IjIyIiB3aWR0aD0iNTguNjY4NzUwNzYyOTM5NDUiIHk9IjE3OCIgeD0iMCIgY2xhc3M9ImVyIGF0dHJpYnV0ZUJveEV2ZW4iPjwvcmVjdD48dGV4dCBzdHlsZT0iZG9taW5hbnQtYmFzZWxpbmU6IG1pZGRsZTsgZm9udC1zaXplOiAxMC4ycHg7IiB0cmFuc2Zvcm09InRyYW5zbGF0ZSg1LDE4OSkiIHk9IjAiIHg9IjAiIGlkPSJ0ZXh0LWVudGl0eS1VU0VSUy0xZTgyZTM5NS05MzZjLTU3YTctOGJhOS1iMDhmMDM1NzRiOTMtYXR0ci04LXR5cGUiIGNsYXNzPSJlciBlbnRpdHlMYWJlbCI+dGV4dDwvdGV4dD48cmVjdCBoZWlnaHQ9IjIyIiB3aWR0aD0iOTEuMDM3NDk4NDc0MTIxMSIgeT0iMTc4IiB4PSI1OC42Njg3NTA3NjI5Mzk0NSIgY2xhc3M9ImVyIGF0dHJpYnV0ZUJveEV2ZW4iPjwvcmVjdD48dGV4dCBzdHlsZT0iZG9taW5hbnQtYmFzZWxpbmU6IG1pZGRsZTsgZm9udC1zaXplOiAxMC4ycHg7IiB0cmFuc2Zvcm09InRyYW5zbGF0ZSg2My42Njg3NTA3NjI5Mzk0NSwxODkpIiB5PSIwIiB4PSIwIiBpZD0idGV4dC1lbnRpdHktVVNFUlMtMWU4MmUzOTUtOTM2Yy01N2E3LThiYTktYjA4ZjAzNTc0YjkzLWF0dHItOC1uYW1lIiBjbGFzcz0iZXIgZW50aXR5TGFiZWwiPmJpbzwvdGV4dD48cmVjdCBoZWlnaHQ9IjIyIiB3aWR0aD0iMjIuMDg3Njk1MTIxNzY1MTM3IiB5PSIxNzgiIHg9IjE0OS43MDYyNDkyMzcwNjA1NSIgY2xhc3M9ImVyIGF0dHJpYnV0ZUJveEV2ZW4iPjwvcmVjdD48dGV4dCBzdHlsZT0iZG9taW5hbnQtYmFzZWxpbmU6IG1pZGRsZTsgZm9udC1zaXplOiAxMC4ycHg7IiB0cmFuc2Zvcm09InRyYW5zbGF0ZSgxNTQuNzA2MjQ5MjM3MDYwNTUsMTg5KSIgeT0iMCIgeD0iMCIgaWQ9InRleHQtZW50aXR5LVVTRVJTLTFlODJlMzk1LTkzNmMtNTdhNy04YmE5LWIwOGYwMzU3NGI5My1hdHRyLTgta2V5IiBjbGFzcz0iZXIgZW50aXR5TGFiZWwiPjwvdGV4dD48cmVjdCBoZWlnaHQ9IjIyIiB3aWR0aD0iNTguNjY4NzUwNzYyOTM5NDUiIHk9IjIwMCIgeD0iMCIgY2xhc3M9ImVyIGF0dHJpYnV0ZUJveE9kZCI+PC9yZWN0Pjx0ZXh0IHN0eWxlPSJkb21pbmFudC1iYXNlbGluZTogbWlkZGxlOyBmb250LXNpemU6IDEwLjJweDsiIHRyYW5zZm9ybT0idHJhbnNsYXRlKDUsMjExKSIgeT0iMCIgeD0iMCIgaWQ9InRleHQtZW50aXR5LVVTRVJTLTFlODJlMzk1LTkzNmMtNTdhNy04YmE5LWIwOGYwMzU3NGI5My1hdHRyLTktdHlwZSIgY2xhc3M9ImVyIGVudGl0eUxhYmVsIj50aW1lc3RhbXA8L3RleHQ+PHJlY3QgaGVpZ2h0PSIyMiIgd2lkdGg9IjkxLjAzNzQ5ODQ3NDEyMTEiIHk9IjIwMCIgeD0iNTguNjY4NzUwNzYyOTM5NDUiIGNsYXNzPSJlciBhdHRyaWJ1dGVCb3hPZGQiPjwvcmVjdD48dGV4dCBzdHlsZT0iZG9taW5hbnQtYmFzZWxpbmU6IG1pZGRsZTsgZm9udC1zaXplOiAxMC4ycHg7IiB0cmFuc2Zvcm09InRyYW5zbGF0ZSg2My42Njg3NTA3NjI5Mzk0NSwyMTEpIiB5PSIwIiB4PSIwIiBpZD0idGV4dC1lbnRpdHktVVNFUlMtMWU4MmUzOTUtOTM2Yy01N2E3LThiYTktYjA4ZjAzNTc0YjkzLWF0dHItOS1uYW1lIiBjbGFzcz0iZXIgZW50aXR5TGFiZWwiPmNyZWF0ZWRfYXQ8L3RleHQ+PHJlY3QgaGVpZ2h0PSIyMiIgd2lkdGg9IjIyLjA4NzY5NTEyMTc2NTEzNyIgeT0iMjAwIiB4PSIxNDkuNzA2MjQ5MjM3MDYwNTUiIGNsYXNzPSJlciBhdHRyaWJ1dGVCb3hPZGQiPjwvcmVjdD48dGV4dCBzdHlsZT0iZG9taW5hbnQtYmFzZWxpbmU6IG1pZGRsZTsgZm9udC1zaXplOiAxMC4ycHg7IiB0cmFuc2Zvcm09InRyYW5zbGF0ZSgxNTQuNzA2MjQ5MjM3MDYwNTUsMjExKSIgeT0iMCIgeD0iMCIgaWQ9InRleHQtZW50aXR5LVVTRVJTLTFlODJlMzk1LTkzNmMtNTdhNy04YmE5LWIwOGYwMzU3NGI5My1hdHRyLTkta2V5IiBjbGFzcz0iZXIgZW50aXR5TGFiZWwiPjwvdGV4dD48cmVjdCBoZWlnaHQ9IjIyIiB3aWR0aD0iNTguNjY4NzUwNzYyOTM5NDUiIHk9IjIyMiIgeD0iMCIgY2xhc3M9ImVyIGF0dHJpYnV0ZUJveEV2ZW4iPjwvcmVjdD48dGV4dCBzdHlsZT0iZG9taW5hbnQtYmFzZWxpbmU6IG1pZGRsZTsgZm9udC1zaXplOiAxMC4ycHg7IiB0cmFuc2Zvcm09InRyYW5zbGF0ZSg1LDIzMykiIHk9IjAiIHg9IjAiIGlkPSJ0ZXh0LWVudGl0eS1VU0VSUy0xZTgyZTM5NS05MzZjLTU3YTctOGJhOS1iMDhmMDM1NzRiOTMtYXR0ci0xMC10eXBlIiBjbGFzcz0iZXIgZW50aXR5TGFiZWwiPnRpbWVzdGFtcDwvdGV4dD48cmVjdCBoZWlnaHQ9IjIyIiB3aWR0aD0iOTEuMDM3NDk4NDc0MTIxMSIgeT0iMjIyIiB4PSI1OC42Njg3NTA3NjI5Mzk0NSIgY2xhc3M9ImVyIGF0dHJpYnV0ZUJveEV2ZW4iPjwvcmVjdD48dGV4dCBzdHlsZT0iZG9taW5hbnQtYmFzZWxpbmU6IG1pZGRsZTsgZm9udC1zaXplOiAxMC4ycHg7IiB0cmFuc2Zvcm09InRyYW5zbGF0ZSg2My42Njg3NTA3NjI5Mzk0NSwyMzMpIiB5PSIwIiB4PSIwIiBpZD0idGV4dC1lbnRpdHktVVNFUlMtMWU4MmUzOTUtOTM2Yy01N2E3LThiYTktYjA4ZjAzNTc0YjkzLWF0dHItMTAtbmFtZSIgY2xhc3M9ImVyIGVudGl0eUxhYmVsIj51cGRhdGVkX2F0PC90ZXh0PjxyZWN0IGhlaWdodD0iMjIiIHdpZHRoPSIyMi4wODc2OTUxMjE3NjUxMzciIHk9IjIyMiIgeD0iMTQ5LjcwNjI0OTIzNzA2MDU1IiBjbGFzcz0iZXIgYXR0cmlidXRlQm94RXZlbiI+PC9yZWN0Pjx0ZXh0IHN0eWxlPSJkb21pbmFudC1iYXNlbGluZTogbWlkZGxlOyBmb250LXNpemU6IDEwLjJweDsiIHRyYW5zZm9ybT0idHJhbnNsYXRlKDE1NC43MDYyNDkyMzcwNjA1NSwyMzMpIiB5PSIwIiB4PSIwIiBpZD0idGV4dC1lbnRpdHktVVNFUlMtMWU4MmUzOTUtOTM2Yy01N2E3LThiYTktYjA4ZjAzNTc0YjkzLWF0dHItMTAta2V5IiBjbGFzcz0iZXIgZW50aXR5TGFiZWwiPjwvdGV4dD48L2c+PGcgdHJhbnNmb3JtPSJ0cmFuc2xhdGUoMjAsMzg2ICkiIGlkPSJlbnRpdHktVVNFUlBST0ZJTEVTLTJlNDcwNzA5LTg1ZjctNWQ2Mi04NzY4LTU2Y2RkYzEwZmJiZSI+PHJlY3QgaGVpZ2h0PSIyMDAiIHdpZHRoPSIxNzYuNzExMzMyMzIxMTY3IiB5PSIwIiB4PSIwIiBjbGFzcz0iZXIgZW50aXR5Qm94Ij48L3JlY3Q+PHRleHQgc3R5bGU9ImRvbWluYW50LWJhc2VsaW5lOiBtaWRkbGU7IHRleHQtYW5jaG9yOiBtaWRkbGU7IGZvbnQtc2l6ZTogMTJweDsiIHRyYW5zZm9ybT0idHJhbnNsYXRlKDg4LjM1NTY2NjE2MDU4MzUsMTIpIiB5PSIwIiB4PSIwIiBpZD0idGV4dC1lbnRpdHktVVNFUlBST0ZJTEVTLTJlNDcwNzA5LTg1ZjctNWQ2Mi04NzY4LTU2Y2RkYzEwZmJiZSIgY2xhc3M9ImVyIGVudGl0eUxhYmVsIj5VU0VSX1BST0ZJTEVTPC90ZXh0PjxyZWN0IGhlaWdodD0iMjIiIHdpZHRoPSI1OC42Njg3NTA3NjI5Mzk0NSIgeT0iMjQiIHg9IjAiIGNsYXNzPSJlciBhdHRyaWJ1dGVCb3hPZGQiPjwvcmVjdD48dGV4dCBzdHlsZT0iZG9taW5hbnQtYmFzZWxpbmU6IG1pZGRsZTsgZm9udC1zaXplOiAxMC4ycHg7IiB0cmFuc2Zvcm09InRyYW5zbGF0ZSg1LDM1KSIgeT0iMCIgeD0iMCIgaWQ9InRleHQtZW50aXR5LVVTRVJQUk9GSUxFUy0yZTQ3MDcwOS04NWY3LTVkNjItODc2OC01NmNkZGMxMGZiYmUtYXR0ci0xLXR5cGUiIGNsYXNzPSJlciBlbnRpdHlMYWJlbCI+aW50PC90ZXh0PjxyZWN0IGhlaWdodD0iMjIiIHdpZHRoPSI4MC45ODM1OTY4MDE3NTc4MSIgeT0iMjQiIHg9IjU4LjY2ODc1MDc2MjkzOTQ1IiBjbGFzcz0iZXIgYXR0cmlidXRlQm94T2RkIj48L3JlY3Q+PHRleHQgc3R5bGU9ImRvbWluYW50LWJhc2VsaW5lOiBtaWRkbGU7IGZvbnQtc2l6ZTogMTAuMnB4OyIgdHJhbnNmb3JtPSJ0cmFuc2xhdGUoNjMuNjY4NzUwNzYyOTM5NDUsMzUpIiB5PSIwIiB4PSIwIiBpZD0idGV4dC1lbnRpdHktVVNFUlBST0ZJTEVTLTJlNDcwNzA5LTg1ZjctNWQ2Mi04NzY4LTU2Y2RkYzEwZmJiZS1hdHRyLTEtbmFtZSIgY2xhc3M9ImVyIGVudGl0eUxhYmVsIj51c2VyX2lkPC90ZXh0PjxyZWN0IGhlaWdodD0iMjIiIHdpZHRoPSIzNy4wNTg5ODQ3NTY0Njk3MyIgeT0iMjQiIHg9IjEzOS42NTIzNDc1NjQ2OTcyNyIgY2xhc3M9ImVyIGF0dHJpYnV0ZUJveE9kZCI+PC9yZWN0Pjx0ZXh0IHN0eWxlPSJkb21pbmFudC1iYXNlbGluZTogbWlkZGxlOyBmb250LXNpemU6IDEwLjJweDsiIHRyYW5zZm9ybT0idHJhbnNsYXRlKDE0NC42NTIzNDc1NjQ2OTcyNywzNSkiIHk9IjAiIHg9IjAiIGlkPSJ0ZXh0LWVudGl0eS1VU0VSUFJPRklMRVMtMmU0NzA3MDktODVmNy01ZDYyLTg3NjgtNTZjZGRjMTBmYmJlLWF0dHItMS1rZXkiIGNsYXNzPSJlciBlbnRpdHlMYWJlbCI+UEssRks8L3RleHQ+PHJlY3QgaGVpZ2h0PSIyMiIgd2lkdGg9IjU4LjY2ODc1MDc2MjkzOTQ1IiB5PSI0NiIgeD0iMCIgY2xhc3M9ImVyIGF0dHJpYnV0ZUJveEV2ZW4iPjwvcmVjdD48dGV4dCBzdHlsZT0iZG9taW5hbnQtYmFzZWxpbmU6IG1pZGRsZTsgZm9udC1zaXplOiAxMC4ycHg7IiB0cmFuc2Zvcm09InRyYW5zbGF0ZSg1LDU3KSIgeT0iMCIgeD0iMCIgaWQ9InRleHQtZW50aXR5LVVTRVJQUk9GSUxFUy0yZTQ3MDcwOS04NWY3LTVkNjItODc2OC01NmNkZGMxMGZiYmUtYXR0ci0yLXR5cGUiIGNsYXNzPSJlciBlbnRpdHlMYWJlbCI+c3RyaW5nPC90ZXh0PjxyZWN0IGhlaWdodD0iMjIiIHdpZHRoPSI4MC45ODM1OTY4MDE3NTc4MSIgeT0iNDYiIHg9IjU4LjY2ODc1MDc2MjkzOTQ1IiBjbGFzcz0iZXIgYXR0cmlidXRlQm94RXZlbiI+PC9yZWN0Pjx0ZXh0IHN0eWxlPSJkb21pbmFudC1iYXNlbGluZTogbWlkZGxlOyBmb250LXNpemU6IDEwLjJweDsiIHRyYW5zZm9ybT0idHJhbnNsYXRlKDYzLjY2ODc1MDc2MjkzOTQ1LDU3KSIgeT0iMCIgeD0iMCIgaWQ9InRleHQtZW50aXR5LVVTRVJQUk9GSUxFUy0yZTQ3MDcwOS04NWY3LTVkNjItODc2OC01NmNkZGMxMGZiYmUtYXR0ci0yLW5hbWUiIGNsYXNzPSJlciBlbnRpdHlMYWJlbCI+aGVhZGxpbmU8L3RleHQ+PHJlY3QgaGVpZ2h0PSIyMiIgd2lkdGg9IjM3LjA1ODk4NDc1NjQ2OTczIiB5PSI0NiIgeD0iMTM5LjY1MjM0NzU2NDY5NzI3IiBjbGFzcz0iZXIgYXR0cmlidXRlQm94RXZlbiI+PC9yZWN0Pjx0ZXh0IHN0eWxlPSJkb21pbmFudC1iYXNlbGluZTogbWlkZGxlOyBmb250LXNpemU6IDEwLjJweDsiIHRyYW5zZm9ybT0idHJhbnNsYXRlKDE0NC42NTIzNDc1NjQ2OTcyNyw1NykiIHk9IjAiIHg9IjAiIGlkPSJ0ZXh0LWVudGl0eS1VU0VSUFJPRklMRVMtMmU0NzA3MDktODVmNy01ZDYyLTg3NjgtNTZjZGRjMTBmYmJlLWF0dHItMi1rZXkiIGNsYXNzPSJlciBlbnRpdHlMYWJlbCI+PC90ZXh0PjxyZWN0IGhlaWdodD0iMjIiIHdpZHRoPSI1OC42Njg3NTA3NjI5Mzk0NSIgeT0iNjgiIHg9IjAiIGNsYXNzPSJlciBhdHRyaWJ1dGVCb3hPZGQiPjwvcmVjdD48dGV4dCBzdHlsZT0iZG9taW5hbnQtYmFzZWxpbmU6IG1pZGRsZTsgZm9udC1zaXplOiAxMC4ycHg7IiB0cmFuc2Zvcm09InRyYW5zbGF0ZSg1LDc5KSIgeT0iMCIgeD0iMCIgaWQ9InRleHQtZW50aXR5LVVTRVJQUk9GSUxFUy0yZTQ3MDcwOS04NWY3LTVkNjItODc2OC01NmNkZGMxMGZiYmUtYXR0ci0zLXR5cGUiIGNsYXNzPSJlciBlbnRpdHlMYWJlbCI+ZGVjaW1hbDwvdGV4dD48cmVjdCBoZWlnaHQ9IjIyIiB3aWR0aD0iODAuOTgzNTk2ODAxNzU3ODEiIHk9IjY4IiB4PSI1OC42Njg3NTA3NjI5Mzk0NSIgY2xhc3M9ImVyIGF0dHJpYnV0ZUJveE9kZCI+PC9yZWN0Pjx0ZXh0IHN0eWxlPSJkb21pbmFudC1iYXNlbGluZTogbWlkZGxlOyBmb250LXNpemU6IDEwLjJweDsiIHRyYW5zZm9ybT0idHJhbnNsYXRlKDYzLjY2ODc1MDc2MjkzOTQ1LDc5KSIgeT0iMCIgeD0iMCIgaWQ9InRleHQtZW50aXR5LVVTRVJQUk9GSUxFUy0yZTQ3MDcwOS04NWY3LTVkNjItODc2OC01NmNkZGMxMGZiYmUtYXR0ci0zLW5hbWUiIGNsYXNzPSJlciBlbnRpdHlMYWJlbCI+aG91cmx5X3JhdGU8L3RleHQ+PHJlY3QgaGVpZ2h0PSIyMiIgd2lkdGg9IjM3LjA1ODk4NDc1NjQ2OTczIiB5PSI2OCIgeD0iMTM5LjY1MjM0NzU2NDY5NzI3IiBjbGFzcz0iZXIgYXR0cmlidXRlQm94T2RkIj48L3JlY3Q+PHRleHQgc3R5bGU9ImRvbWluYW50LWJhc2VsaW5lOiBtaWRkbGU7IGZvbnQtc2l6ZTogMTAuMnB4OyIgdHJhbnNmb3JtPSJ0cmFuc2xhdGUoMTQ0LjY1MjM0NzU2NDY5NzI3LDc5KSIgeT0iMCIgeD0iMCIgaWQ9InRleHQtZW50aXR5LVVTRVJQUk9GSUxFUy0yZTQ3MDcwOS04NWY3LTVkNjItODc2OC01NmNkZGMxMGZiYmUtYXR0ci0zLWtleSIgY2xhc3M9ImVyIGVudGl0eUxhYmVsIj48L3RleHQ+PHJlY3QgaGVpZ2h0PSIyMiIgd2lkdGg9IjU4LjY2ODc1MDc2MjkzOTQ1IiB5PSI5MCIgeD0iMCIgY2xhc3M9ImVyIGF0dHJpYnV0ZUJveEV2ZW4iPjwvcmVjdD48dGV4dCBzdHlsZT0iZG9taW5hbnQtYmFzZWxpbmU6IG1pZGRsZTsgZm9udC1zaXplOiAxMC4ycHg7IiB0cmFuc2Zvcm09InRyYW5zbGF0ZSg1LDEwMSkiIHk9IjAiIHg9IjAiIGlkPSJ0ZXh0LWVudGl0eS1VU0VSUFJPRklMRVMtMmU0NzA3MDktODVmNy01ZDYyLTg3NjgtNTZjZGRjMTBmYmJlLWF0dHItNC10eXBlIiBjbGFzcz0iZXIgZW50aXR5TGFiZWwiPnN0cmluZzwvdGV4dD48cmVjdCBoZWlnaHQ9IjIyIiB3aWR0aD0iODAuOTgzNTk2ODAxNzU3ODEiIHk9IjkwIiB4PSI1OC42Njg3NTA3NjI5Mzk0NSIgY2xhc3M9ImVyIGF0dHJpYnV0ZUJveEV2ZW4iPjwvcmVjdD48dGV4dCBzdHlsZT0iZG9taW5hbnQtYmFzZWxpbmU6IG1pZGRsZTsgZm9udC1zaXplOiAxMC4ycHg7IiB0cmFuc2Zvcm09InRyYW5zbGF0ZSg2My42Njg3NTA3NjI5Mzk0NSwxMDEpIiB5PSIwIiB4PSIwIiBpZD0idGV4dC1lbnRpdHktVVNFUlBST0ZJTEVTLTJlNDcwNzA5LTg1ZjctNWQ2Mi04NzY4LTU2Y2RkYzEwZmJiZS1hdHRyLTQtbmFtZSIgY2xhc3M9ImVyIGVudGl0eUxhYmVsIj5jb21wYW55X25hbWU8L3RleHQ+PHJlY3QgaGVpZ2h0PSIyMiIgd2lkdGg9IjM3LjA1ODk4NDc1NjQ2OTczIiB5PSI5MCIgeD0iMTM5LjY1MjM0NzU2NDY5NzI3IiBjbGFzcz0iZXIgYXR0cmlidXRlQm94RXZlbiI+PC9yZWN0Pjx0ZXh0IHN0eWxlPSJkb21pbmFudC1iYXNlbGluZTogbWlkZGxlOyBmb250LXNpemU6IDEwLjJweDsiIHRyYW5zZm9ybT0idHJhbnNsYXRlKDE0NC42NTIzNDc1NjQ2OTcyNywxMDEpIiB5PSIwIiB4PSIwIiBpZD0idGV4dC1lbnRpdHktVVNFUlBST0ZJTEVTLTJlNDcwNzA5LTg1ZjctNWQ2Mi04NzY4LTU2Y2RkYzEwZmJiZS1hdHRyLTQta2V5IiBjbGFzcz0iZXIgZW50aXR5TGFiZWwiPjwvdGV4dD48cmVjdCBoZWlnaHQ9IjIyIiB3aWR0aD0iNTguNjY4NzUwNzYyOTM5NDUiIHk9IjExMiIgeD0iMCIgY2xhc3M9ImVyIGF0dHJpYnV0ZUJveE9kZCI+PC9yZWN0Pjx0ZXh0IHN0eWxlPSJkb21pbmFudC1iYXNlbGluZTogbWlkZGxlOyBmb250LXNpemU6IDEwLjJweDsiIHRyYW5zZm9ybT0idHJhbnNsYXRlKDUsMTIzKSIgeT0iMCIgeD0iMCIgaWQ9InRleHQtZW50aXR5LVVTRVJQUk9GSUxFUy0yZTQ3MDcwOS04NWY3LTVkNjItODc2OC01NmNkZGMxMGZiYmUtYXR0ci01LXR5cGUiIGNsYXNzPSJlciBlbnRpdHlMYWJlbCI+dGV4dDwvdGV4dD48cmVjdCBoZWlnaHQ9IjIyIiB3aWR0aD0iODAuOTgzNTk2ODAxNzU3ODEiIHk9IjExMiIgeD0iNTguNjY4NzUwNzYyOTM5NDUiIGNsYXNzPSJlciBhdHRyaWJ1dGVCb3hPZGQiPjwvcmVjdD48dGV4dCBzdHlsZT0iZG9taW5hbnQtYmFzZWxpbmU6IG1pZGRsZTsgZm9udC1zaXplOiAxMC4ycHg7IiB0cmFuc2Zvcm09InRyYW5zbGF0ZSg2My42Njg3NTA3NjI5Mzk0NSwxMjMpIiB5PSIwIiB4PSIwIiBpZD0idGV4dC1lbnRpdHktVVNFUlBST0ZJTEVTLTJlNDcwNzA5LTg1ZjctNWQ2Mi04NzY4LTU2Y2RkYzEwZmJiZS1hdHRyLTUtbmFtZSIgY2xhc3M9ImVyIGVudGl0eUxhYmVsIj5za2lsbHM8L3RleHQ+PHJlY3QgaGVpZ2h0PSIyMiIgd2lkdGg9IjM3LjA1ODk4NDc1NjQ2OTczIiB5PSIxMTIiIHg9IjEzOS42NTIzNDc1NjQ2OTcyNyIgY2xhc3M9ImVyIGF0dHJpYnV0ZUJveE9kZCI+PC9yZWN0Pjx0ZXh0IHN0eWxlPSJkb21pbmFudC1iYXNlbGluZTogbWlkZGxlOyBmb250LXNpemU6IDEwLjJweDsiIHRyYW5zZm9ybT0idHJhbnNsYXRlKDE0NC42NTIzNDc1NjQ2OTcyNywxMjMpIiB5PSIwIiB4PSIwIiBpZD0idGV4dC1lbnRpdHktVVNFUlBST0ZJTEVTLTJlNDcwNzA5LTg1ZjctNWQ2Mi04NzY4LTU2Y2RkYzEwZmJiZS1hdHRyLTUta2V5IiBjbGFzcz0iZXIgZW50aXR5TGFiZWwiPjwvdGV4dD48cmVjdCBoZWlnaHQ9IjIyIiB3aWR0aD0iNTguNjY4NzUwNzYyOTM5NDUiIHk9IjEzNCIgeD0iMCIgY2xhc3M9ImVyIGF0dHJpYnV0ZUJveEV2ZW4iPjwvcmVjdD48dGV4dCBzdHlsZT0iZG9taW5hbnQtYmFzZWxpbmU6IG1pZGRsZTsgZm9udC1zaXplOiAxMC4ycHg7IiB0cmFuc2Zvcm09InRyYW5zbGF0ZSg1LDE0NSkiIHk9IjAiIHg9IjAiIGlkPSJ0ZXh0LWVudGl0eS1VU0VSUFJPRklMRVMtMmU0NzA3MDktODVmNy01ZDYyLTg3NjgtNTZjZGRjMTBmYmJlLWF0dHItNi10eXBlIiBjbGFzcz0iZXIgZW50aXR5TGFiZWwiPmRlY2ltYWw8L3RleHQ+PHJlY3QgaGVpZ2h0PSIyMiIgd2lkdGg9IjgwLjk4MzU5NjgwMTc1NzgxIiB5PSIxMzQiIHg9IjU4LjY2ODc1MDc2MjkzOTQ1IiBjbGFzcz0iZXIgYXR0cmlidXRlQm94RXZlbiI+PC9yZWN0Pjx0ZXh0IHN0eWxlPSJkb21pbmFudC1iYXNlbGluZTogbWlkZGxlOyBmb250LXNpemU6IDEwLjJweDsiIHRyYW5zZm9ybT0idHJhbnNsYXRlKDYzLjY2ODc1MDc2MjkzOTQ1LDE0NSkiIHk9IjAiIHg9IjAiIGlkPSJ0ZXh0LWVudGl0eS1VU0VSUFJPRklMRVMtMmU0NzA3MDktODVmNy01ZDYyLTg3NjgtNTZjZGRjMTBmYmJlLWF0dHItNi1uYW1lIiBjbGFzcz0iZXIgZW50aXR5TGFiZWwiPmF2Z19yYXRpbmc8L3RleHQ+PHJlY3QgaGVpZ2h0PSIyMiIgd2lkdGg9IjM3LjA1ODk4NDc1NjQ2OTczIiB5PSIxMzQiIHg9IjEzOS42NTIzNDc1NjQ2OTcyNyIgY2xhc3M9ImVyIGF0dHJpYnV0ZUJveEV2ZW4iPjwvcmVjdD48dGV4dCBzdHlsZT0iZG9taW5hbnQtYmFzZWxpbmU6IG1pZGRsZTsgZm9udC1zaXplOiAxMC4ycHg7IiB0cmFuc2Zvcm09InRyYW5zbGF0ZSgxNDQuNjUyMzQ3NTY0Njk3MjcsMTQ1KSIgeT0iMCIgeD0iMCIgaWQ9InRleHQtZW50aXR5LVVTRVJQUk9GSUxFUy0yZTQ3MDcwOS04NWY3LTVkNjItODc2OC01NmNkZGMxMGZiYmUtYXR0ci02LWtleSIgY2xhc3M9ImVyIGVudGl0eUxhYmVsIj48L3RleHQ+PHJlY3QgaGVpZ2h0PSIyMiIgd2lkdGg9IjU4LjY2ODc1MDc2MjkzOTQ1IiB5PSIxNTYiIHg9IjAiIGNsYXNzPSJlciBhdHRyaWJ1dGVCb3hPZGQiPjwvcmVjdD48dGV4dCBzdHlsZT0iZG9taW5hbnQtYmFzZWxpbmU6IG1pZGRsZTsgZm9udC1zaXplOiAxMC4ycHg7IiB0cmFuc2Zvcm09InRyYW5zbGF0ZSg1LDE2NykiIHk9IjAiIHg9IjAiIGlkPSJ0ZXh0LWVudGl0eS1VU0VSUFJPRklMRVMtMmU0NzA3MDktODVmNy01ZDYyLTg3NjgtNTZjZGRjMTBmYmJlLWF0dHItNy10eXBlIiBjbGFzcz0iZXIgZW50aXR5TGFiZWwiPnRpbWVzdGFtcDwvdGV4dD48cmVjdCBoZWlnaHQ9IjIyIiB3aWR0aD0iODAuOTgzNTk2ODAxNzU3ODEiIHk9IjE1NiIgeD0iNTguNjY4NzUwNzYyOTM5NDUiIGNsYXNzPSJlciBhdHRyaWJ1dGVCb3hPZGQiPjwvcmVjdD48dGV4dCBzdHlsZT0iZG9taW5hbnQtYmFzZWxpbmU6IG1pZGRsZTsgZm9udC1zaXplOiAxMC4ycHg7IiB0cmFuc2Zvcm09InRyYW5zbGF0ZSg2My42Njg3NTA3NjI5Mzk0NSwxNjcpIiB5PSIwIiB4PSIwIiBpZD0idGV4dC1lbnRpdHktVVNFUlBST0ZJTEVTLTJlNDcwNzA5LTg1ZjctNWQ2Mi04NzY4LTU2Y2RkYzEwZmJiZS1hdHRyLTctbmFtZSIgY2xhc3M9ImVyIGVudGl0eUxhYmVsIj5jcmVhdGVkX2F0PC90ZXh0PjxyZWN0IGhlaWdodD0iMjIiIHdpZHRoPSIzNy4wNTg5ODQ3NTY0Njk3MyIgeT0iMTU2IiB4PSIxMzkuNjUyMzQ3NTY0Njk3MjciIGNsYXNzPSJlciBhdHRyaWJ1dGVCb3hPZGQiPjwvcmVjdD48dGV4dCBzdHlsZT0iZG9taW5hbnQtYmFzZWxpbmU6IG1pZGRsZTsgZm9udC1zaXplOiAxMC4ycHg7IiB0cmFuc2Zvcm09InRyYW5zbGF0ZSgxNDQuNjUyMzQ3NTY0Njk3MjcsMTY3KSIgeT0iMCIgeD0iMCIgaWQ9InRleHQtZW50aXR5LVVTRVJQUk9GSUxFUy0yZTQ3MDcwOS04NWY3LTVkNjItODc2OC01NmNkZGMxMGZiYmUtYXR0ci03LWtleSIgY2xhc3M9ImVyIGVudGl0eUxhYmVsIj48L3RleHQ+PHJlY3QgaGVpZ2h0PSIyMiIgd2lkdGg9IjU4LjY2ODc1MDc2MjkzOTQ1IiB5PSIxNzgiIHg9IjAiIGNsYXNzPSJlciBhdHRyaWJ1dGVCb3hFdmVuIj48L3JlY3Q+PHRleHQgc3R5bGU9ImRvbWluYW50LWJhc2VsaW5lOiBtaWRkbGU7IGZvbnQtc2l6ZTogMTAuMnB4OyIgdHJhbnNmb3JtPSJ0cmFuc2xhdGUoNSwxODkpIiB5PSIwIiB4PSIwIiBpZD0idGV4dC1lbnRpdHktVVNFUlBST0ZJTEVTLTJlNDcwNzA5LTg1ZjctNWQ2Mi04NzY4LTU2Y2RkYzEwZmJiZS1hdHRyLTgtdHlwZSIgY2xhc3M9ImVyIGVudGl0eUxhYmVsIj50aW1lc3RhbXA8L3RleHQ+PHJlY3QgaGVpZ2h0PSIyMiIgd2lkdGg9IjgwLjk4MzU5NjgwMTc1NzgxIiB5PSIxNzgiIHg9IjU4LjY2ODc1MDc2MjkzOTQ1IiBjbGFzcz0iZXIgYXR0cmlidXRlQm94RXZlbiI+PC9yZWN0Pjx0ZXh0IHN0eWxlPSJkb21pbmFudC1iYXNlbGluZTogbWlkZGxlOyBmb250LXNpemU6IDEwLjJweDsiIHRyYW5zZm9ybT0idHJhbnNsYXRlKDYzLjY2ODc1MDc2MjkzOTQ1LDE4OSkiIHk9IjAiIHg9IjAiIGlkPSJ0ZXh0LWVudGl0eS1VU0VSUFJPRklMRVMtMmU0NzA3MDktODVmNy01ZDYyLTg3NjgtNTZjZGRjMTBmYmJlLWF0dHItOC1uYW1lIiBjbGFzcz0iZXIgZW50aXR5TGFiZWwiPnVwZGF0ZWRfYXQ8L3RleHQ+PHJlY3QgaGVpZ2h0PSIyMiIgd2lkdGg9IjM3LjA1ODk4NDc1NjQ2OTczIiB5PSIxNzgiIHg9IjEzOS42NTIzNDc1NjQ2OTcyNyIgY2xhc3M9ImVyIGF0dHJpYnV0ZUJveEV2ZW4iPjwvcmVjdD48dGV4dCBzdHlsZT0iZG9taW5hbnQtYmFzZWxpbmU6IG1pZGRsZTsgZm9udC1zaXplOiAxMC4ycHg7IiB0cmFuc2Zvcm09InRyYW5zbGF0ZSgxNDQuNjUyMzQ3NTY0Njk3MjcsMTg5KSIgeT0iMCIgeD0iMCIgaWQ9InRleHQtZW50aXR5LVVTRVJQUk9GSUxFUy0yZTQ3MDcwOS04NWY3LTVkNjItODc2OC01NmNkZGMxMGZiYmUtYXR0ci04LWtleSIgY2xhc3M9ImVyIGVudGl0eUxhYmVsIj48L3RleHQ+PC9nPjxnIHRyYW5zZm9ybT0idHJhbnNsYXRlKDczMS42Njc2MzMwNTY2NDA2LDM2NCApIiBpZD0iZW50aXR5LVBST0pFQ1RTLTgxOTk4MDY5LTlhM2EtNTlhYy04MTU4LTFiNjFkZjlmZmQ3OCI+PHJlY3QgaGVpZ2h0PSIyNDQiIHdpZHRoPSIxNTcuMzM3Njk4OTM2NDYyNCIgeT0iMCIgeD0iMCIgY2xhc3M9ImVyIGVudGl0eUJveCI+PC9yZWN0Pjx0ZXh0IHN0eWxlPSJkb21pbmFudC1iYXNlbGluZTogbWlkZGxlOyB0ZXh0LWFuY2hvcjogbWlkZGxlOyBmb250LXNpemU6IDEycHg7IiB0cmFuc2Zvcm09InRyYW5zbGF0ZSg3OC42Njg4NDk0NjgyMzEyLDEyKSIgeT0iMCIgeD0iMCIgaWQ9InRleHQtZW50aXR5LVBST0pFQ1RTLTgxOTk4MDY5LTlhM2EtNTlhYy04MTU4LTFiNjFkZjlmZmQ3OCIgY2xhc3M9ImVyIGVudGl0eUxhYmVsIj5QUk9KRUNUUzwvdGV4dD48cmVjdCBoZWlnaHQ9IjIyIiB3aWR0aD0iNTguNjY4NzUwNzYyOTM5NDUiIHk9IjI0IiB4PSIwIiBjbGFzcz0iZXIgYXR0cmlidXRlQm94T2RkIj48L3JlY3Q+PHRleHQgc3R5bGU9ImRvbWluYW50LWJhc2VsaW5lOiBtaWRkbGU7IGZvbnQtc2l6ZTogMTAuMnB4OyIgdHJhbnNmb3JtPSJ0cmFuc2xhdGUoNSwzNSkiIHk9IjAiIHg9IjAiIGlkPSJ0ZXh0LWVudGl0eS1QUk9KRUNUUy04MTk5ODA2OS05YTNhLTU5YWMtODE1OC0xYjYxZGY5ZmZkNzgtYXR0ci0xLXR5cGUiIGNsYXNzPSJlciBlbnRpdHlMYWJlbCI+aW50PC90ZXh0PjxyZWN0IGhlaWdodD0iMjIiIHdpZHRoPSI3Ni41ODEyNTMwNTE3NTc4MSIgeT0iMjQiIHg9IjU4LjY2ODc1MDc2MjkzOTQ1IiBjbGFzcz0iZXIgYXR0cmlidXRlQm94T2RkIj48L3JlY3Q+PHRleHQgc3R5bGU9ImRvbWluYW50LWJhc2VsaW5lOiBtaWRkbGU7IGZvbnQtc2l6ZTogMTAuMnB4OyIgdHJhbnNmb3JtPSJ0cmFuc2xhdGUoNjMuNjY4NzUwNzYyOTM5NDUsMzUpIiB5PSIwIiB4PSIwIiBpZD0idGV4dC1lbnRpdHktUFJPSkVDVFMtODE5OTgwNjktOWEzYS01OWFjLTgxNTgtMWI2MWRmOWZmZDc4LWF0dHItMS1uYW1lIiBjbGFzcz0iZXIgZW50aXR5TGFiZWwiPmlkPC90ZXh0PjxyZWN0IGhlaWdodD0iMjIiIHdpZHRoPSIyMi4wODc2OTUxMjE3NjUxMzciIHk9IjI0IiB4PSIxMzUuMjUwMDAzODE0Njk3MjciIGNsYXNzPSJlciBhdHRyaWJ1dGVCb3hPZGQiPjwvcmVjdD48dGV4dCBzdHlsZT0iZG9taW5hbnQtYmFzZWxpbmU6IG1pZGRsZTsgZm9udC1zaXplOiAxMC4ycHg7IiB0cmFuc2Zvcm09InRyYW5zbGF0ZSgxNDAuMjUwMDAzODE0Njk3MjcsMzUpIiB5PSIwIiB4PSIwIiBpZD0idGV4dC1lbnRpdHktUFJPSkVDVFMtODE5OTgwNjktOWEzYS01OWFjLTgxNTgtMWI2MWRmOWZmZDc4LWF0dHItMS1rZXkiIGNsYXNzPSJlciBlbnRpdHlMYWJlbCI+UEs8L3RleHQ+PHJlY3QgaGVpZ2h0PSIyMiIgd2lkdGg9IjU4LjY2ODc1MDc2MjkzOTQ1IiB5PSI0NiIgeD0iMCIgY2xhc3M9ImVyIGF0dHJpYnV0ZUJveEV2ZW4iPjwvcmVjdD48dGV4dCBzdHlsZT0iZG9taW5hbnQtYmFzZWxpbmU6IG1pZGRsZTsgZm9udC1zaXplOiAxMC4ycHg7IiB0cmFuc2Zvcm09InRyYW5zbGF0ZSg1LDU3KSIgeT0iMCIgeD0iMCIgaWQ9InRleHQtZW50aXR5LVBST0pFQ1RTLTgxOTk4MDY5LTlhM2EtNTlhYy04MTU4LTFiNjFkZjlmZmQ3OC1hdHRyLTItdHlwZSIgY2xhc3M9ImVyIGVudGl0eUxhYmVsIj5pbnQ8L3RleHQ+PHJlY3QgaGVpZ2h0PSIyMiIgd2lkdGg9Ijc2LjU4MTI1MzA1MTc1NzgxIiB5PSI0NiIgeD0iNTguNjY4NzUwNzYyOTM5NDUiIGNsYXNzPSJlciBhdHRyaWJ1dGVCb3hFdmVuIj48L3JlY3Q+PHRleHQgc3R5bGU9ImRvbWluYW50LWJhc2VsaW5lOiBtaWRkbGU7IGZvbnQtc2l6ZTogMTAuMnB4OyIgdHJhbnNmb3JtPSJ0cmFuc2xhdGUoNjMuNjY4NzUwNzYyOTM5NDUsNTcpIiB5PSIwIiB4PSIwIiBpZD0idGV4dC1lbnRpdHktUFJPSkVDVFMtODE5OTgwNjktOWEzYS01OWFjLTgxNTgtMWI2MWRmOWZmZDc4LWF0dHItMi1uYW1lIiBjbGFzcz0iZXIgZW50aXR5TGFiZWwiPmNsaWVudF9pZDwvdGV4dD48cmVjdCBoZWlnaHQ9IjIyIiB3aWR0aD0iMjIuMDg3Njk1MTIxNzY1MTM3IiB5PSI0NiIgeD0iMTM1LjI1MDAwMzgxNDY5NzI3IiBjbGFzcz0iZXIgYXR0cmlidXRlQm94RXZlbiI+PC9yZWN0Pjx0ZXh0IHN0eWxlPSJkb21pbmFudC1iYXNlbGluZTogbWlkZGxlOyBmb250LXNpemU6IDEwLjJweDsiIHRyYW5zZm9ybT0idHJhbnNsYXRlKDE0MC4yNTAwMDM4MTQ2OTcyNyw1NykiIHk9IjAiIHg9IjAiIGlkPSJ0ZXh0LWVudGl0eS1QUk9KRUNUUy04MTk5ODA2OS05YTNhLTU5YWMtODE1OC0xYjYxZGY5ZmZkNzgtYXR0ci0yLWtleSIgY2xhc3M9ImVyIGVudGl0eUxhYmVsIj5GSzwvdGV4dD48cmVjdCBoZWlnaHQ9IjIyIiB3aWR0aD0iNTguNjY4NzUwNzYyOTM5NDUiIHk9IjY4IiB4PSIwIiBjbGFzcz0iZXIgYXR0cmlidXRlQm94T2RkIj48L3JlY3Q+PHRleHQgc3R5bGU9ImRvbWluYW50LWJhc2VsaW5lOiBtaWRkbGU7IGZvbnQtc2l6ZTogMTAuMnB4OyIgdHJhbnNmb3JtPSJ0cmFuc2xhdGUoNSw3OSkiIHk9IjAiIHg9IjAiIGlkPSJ0ZXh0LWVudGl0eS1QUk9KRUNUUy04MTk5ODA2OS05YTNhLTU5YWMtODE1OC0xYjYxZGY5ZmZkNzgtYXR0ci0zLXR5cGUiIGNsYXNzPSJlciBlbnRpdHlMYWJlbCI+c3RyaW5nPC90ZXh0PjxyZWN0IGhlaWdodD0iMjIiIHdpZHRoPSI3Ni41ODEyNTMwNTE3NTc4MSIgeT0iNjgiIHg9IjU4LjY2ODc1MDc2MjkzOTQ1IiBjbGFzcz0iZXIgYXR0cmlidXRlQm94T2RkIj48L3JlY3Q+PHRleHQgc3R5bGU9ImRvbWluYW50LWJhc2VsaW5lOiBtaWRkbGU7IGZvbnQtc2l6ZTogMTAuMnB4OyIgdHJhbnNmb3JtPSJ0cmFuc2xhdGUoNjMuNjY4NzUwNzYyOTM5NDUsNzkpIiB5PSIwIiB4PSIwIiBpZD0idGV4dC1lbnRpdHktUFJPSkVDVFMtODE5OTgwNjktOWEzYS01OWFjLTgxNTgtMWI2MWRmOWZmZDc4LWF0dHItMy1uYW1lIiBjbGFzcz0iZXIgZW50aXR5TGFiZWwiPnRpdGxlPC90ZXh0PjxyZWN0IGhlaWdodD0iMjIiIHdpZHRoPSIyMi4wODc2OTUxMjE3NjUxMzciIHk9IjY4IiB4PSIxMzUuMjUwMDAzODE0Njk3MjciIGNsYXNzPSJlciBhdHRyaWJ1dGVCb3hPZGQiPjwvcmVjdD48dGV4dCBzdHlsZT0iZG9taW5hbnQtYmFzZWxpbmU6IG1pZGRsZTsgZm9udC1zaXplOiAxMC4ycHg7IiB0cmFuc2Zvcm09InRyYW5zbGF0ZSgxNDAuMjUwMDAzODE0Njk3MjcsNzkpIiB5PSIwIiB4PSIwIiBpZD0idGV4dC1lbnRpdHktUFJPSkVDVFMtODE5OTgwNjktOWEzYS01OWFjLTgxNTgtMWI2MWRmOWZmZDc4LWF0dHItMy1rZXkiIGNsYXNzPSJlciBlbnRpdHlMYWJlbCI+PC90ZXh0PjxyZWN0IGhlaWdodD0iMjIiIHdpZHRoPSI1OC42Njg3NTA3NjI5Mzk0NSIgeT0iOTAiIHg9IjAiIGNsYXNzPSJlciBhdHRyaWJ1dGVCb3hFdmVuIj48L3JlY3Q+PHRleHQgc3R5bGU9ImRvbWluYW50LWJhc2VsaW5lOiBtaWRkbGU7IGZvbnQtc2l6ZTogMTAuMnB4OyIgdHJhbnNmb3JtPSJ0cmFuc2xhdGUoNSwxMDEpIiB5PSIwIiB4PSIwIiBpZD0idGV4dC1lbnRpdHktUFJPSkVDVFMtODE5OTgwNjktOWEzYS01OWFjLTgxNTgtMWI2MWRmOWZmZDc4LWF0dHItNC10eXBlIiBjbGFzcz0iZXIgZW50aXR5TGFiZWwiPnRleHQ8L3RleHQ+PHJlY3QgaGVpZ2h0PSIyMiIgd2lkdGg9Ijc2LjU4MTI1MzA1MTc1NzgxIiB5PSI5MCIgeD0iNTguNjY4NzUwNzYyOTM5NDUiIGNsYXNzPSJlciBhdHRyaWJ1dGVCb3hFdmVuIj48L3JlY3Q+PHRleHQgc3R5bGU9ImRvbWluYW50LWJhc2VsaW5lOiBtaWRkbGU7IGZvbnQtc2l6ZTogMTAuMnB4OyIgdHJhbnNmb3JtPSJ0cmFuc2xhdGUoNjMuNjY4NzUwNzYyOTM5NDUsMTAxKSIgeT0iMCIgeD0iMCIgaWQ9InRleHQtZW50aXR5LVBST0pFQ1RTLTgxOTk4MDY5LTlhM2EtNTlhYy04MTU4LTFiNjFkZjlmZmQ3OC1hdHRyLTQtbmFtZSIgY2xhc3M9ImVyIGVudGl0eUxhYmVsIj5kZXNjcmlwdGlvbjwvdGV4dD48cmVjdCBoZWlnaHQ9IjIyIiB3aWR0aD0iMjIuMDg3Njk1MTIxNzY1MTM3IiB5PSI5MCIgeD0iMTM1LjI1MDAwMzgxNDY5NzI3IiBjbGFzcz0iZXIgYXR0cmlidXRlQm94RXZlbiI+PC9yZWN0Pjx0ZXh0IHN0eWxlPSJkb21pbmFudC1iYXNlbGluZTogbWlkZGxlOyBmb250LXNpemU6IDEwLjJweDsiIHRyYW5zZm9ybT0idHJhbnNsYXRlKDE0MC4yNTAwMDM4MTQ2OTcyNywxMDEpIiB5PSIwIiB4PSIwIiBpZD0idGV4dC1lbnRpdHktUFJPSkVDVFMtODE5OTgwNjktOWEzYS01OWFjLTgxNTgtMWI2MWRmOWZmZDc4LWF0dHItNC1rZXkiIGNsYXNzPSJlciBlbnRpdHlMYWJlbCI+PC90ZXh0PjxyZWN0IGhlaWdodD0iMjIiIHdpZHRoPSI1OC42Njg3NTA3NjI5Mzk0NSIgeT0iMTEyIiB4PSIwIiBjbGFzcz0iZXIgYXR0cmlidXRlQm94T2RkIj48L3JlY3Q+PHRleHQgc3R5bGU9ImRvbWluYW50LWJhc2VsaW5lOiBtaWRkbGU7IGZvbnQtc2l6ZTogMTAuMnB4OyIgdHJhbnNmb3JtPSJ0cmFuc2xhdGUoNSwxMjMpIiB5PSIwIiB4PSIwIiBpZD0idGV4dC1lbnRpdHktUFJPSkVDVFMtODE5OTgwNjktOWEzYS01OWFjLTgxNTgtMWI2MWRmOWZmZDc4LWF0dHItNS10eXBlIiBjbGFzcz0iZXIgZW50aXR5TGFiZWwiPmRlY2ltYWw8L3RleHQ+PHJlY3QgaGVpZ2h0PSIyMiIgd2lkdGg9Ijc2LjU4MTI1MzA1MTc1NzgxIiB5PSIxMTIiIHg9IjU4LjY2ODc1MDc2MjkzOTQ1IiBjbGFzcz0iZXIgYXR0cmlidXRlQm94T2RkIj48L3JlY3Q+PHRleHQgc3R5bGU9ImRvbWluYW50LWJhc2VsaW5lOiBtaWRkbGU7IGZvbnQtc2l6ZTogMTAuMnB4OyIgdHJhbnNmb3JtPSJ0cmFuc2xhdGUoNjMuNjY4NzUwNzYyOTM5NDUsMTIzKSIgeT0iMCIgeD0iMCIgaWQ9InRleHQtZW50aXR5LVBST0pFQ1RTLTgxOTk4MDY5LTlhM2EtNTlhYy04MTU4LTFiNjFkZjlmZmQ3OC1hdHRyLTUtbmFtZSIgY2xhc3M9ImVyIGVudGl0eUxhYmVsIj5idWRnZXRfbWluPC90ZXh0PjxyZWN0IGhlaWdodD0iMjIiIHdpZHRoPSIyMi4wODc2OTUxMjE3NjUxMzciIHk9IjExMiIgeD0iMTM1LjI1MDAwMzgxNDY5NzI3IiBjbGFzcz0iZXIgYXR0cmlidXRlQm94T2RkIj48L3JlY3Q+PHRleHQgc3R5bGU9ImRvbWluYW50LWJhc2VsaW5lOiBtaWRkbGU7IGZvbnQtc2l6ZTogMTAuMnB4OyIgdHJhbnNmb3JtPSJ0cmFuc2xhdGUoMTQwLjI1MDAwMzgxNDY5NzI3LDEyMykiIHk9IjAiIHg9IjAiIGlkPSJ0ZXh0LWVudGl0eS1QUk9KRUNUUy04MTk5ODA2OS05YTNhLTU5YWMtODE1OC0xYjYxZGY5ZmZkNzgtYXR0ci01LWtleSIgY2xhc3M9ImVyIGVudGl0eUxhYmVsIj48L3RleHQ+PHJlY3QgaGVpZ2h0PSIyMiIgd2lkdGg9IjU4LjY2ODc1MDc2MjkzOTQ1IiB5PSIxMzQiIHg9IjAiIGNsYXNzPSJlciBhdHRyaWJ1dGVCb3hFdmVuIj48L3JlY3Q+PHRleHQgc3R5bGU9ImRvbWluYW50LWJhc2VsaW5lOiBtaWRkbGU7IGZvbnQtc2l6ZTogMTAuMnB4OyIgdHJhbnNmb3JtPSJ0cmFuc2xhdGUoNSwxNDUpIiB5PSIwIiB4PSIwIiBpZD0idGV4dC1lbnRpdHktUFJPSkVDVFMtODE5OTgwNjktOWEzYS01OWFjLTgxNTgtMWI2MWRmOWZmZDc4LWF0dHItNi10eXBlIiBjbGFzcz0iZXIgZW50aXR5TGFiZWwiPmRlY2ltYWw8L3RleHQ+PHJlY3QgaGVpZ2h0PSIyMiIgd2lkdGg9Ijc2LjU4MTI1MzA1MTc1NzgxIiB5PSIxMzQiIHg9IjU4LjY2ODc1MDc2MjkzOTQ1IiBjbGFzcz0iZXIgYXR0cmlidXRlQm94RXZlbiI+PC9yZWN0Pjx0ZXh0IHN0eWxlPSJkb21pbmFudC1iYXNlbGluZTogbWlkZGxlOyBmb250LXNpemU6IDEwLjJweDsiIHRyYW5zZm9ybT0idHJhbnNsYXRlKDYzLjY2ODc1MDc2MjkzOTQ1LDE0NSkiIHk9IjAiIHg9IjAiIGlkPSJ0ZXh0LWVudGl0eS1QUk9KRUNUUy04MTk5ODA2OS05YTNhLTU5YWMtODE1OC0xYjYxZGY5ZmZkNzgtYXR0ci02LW5hbWUiIGNsYXNzPSJlciBlbnRpdHlMYWJlbCI+YnVkZ2V0X21heDwvdGV4dD48cmVjdCBoZWlnaHQ9IjIyIiB3aWR0aD0iMjIuMDg3Njk1MTIxNzY1MTM3IiB5PSIxMzQiIHg9IjEzNS4yNTAwMDM4MTQ2OTcyNyIgY2xhc3M9ImVyIGF0dHJpYnV0ZUJveEV2ZW4iPjwvcmVjdD48dGV4dCBzdHlsZT0iZG9taW5hbnQtYmFzZWxpbmU6IG1pZGRsZTsgZm9udC1zaXplOiAxMC4ycHg7IiB0cmFuc2Zvcm09InRyYW5zbGF0ZSgxNDAuMjUwMDAzODE0Njk3MjcsMTQ1KSIgeT0iMCIgeD0iMCIgaWQ9InRleHQtZW50aXR5LVBST0pFQ1RTLTgxOTk4MDY5LTlhM2EtNTlhYy04MTU4LTFiNjFkZjlmZmQ3OC1hdHRyLTYta2V5IiBjbGFzcz0iZXIgZW50aXR5TGFiZWwiPjwvdGV4dD48cmVjdCBoZWlnaHQ9IjIyIiB3aWR0aD0iNTguNjY4NzUwNzYyOTM5NDUiIHk9IjE1NiIgeD0iMCIgY2xhc3M9ImVyIGF0dHJpYnV0ZUJveE9kZCI+PC9yZWN0Pjx0ZXh0IHN0eWxlPSJkb21pbmFudC1iYXNlbGluZTogbWlkZGxlOyBmb250LXNpemU6IDEwLjJweDsiIHRyYW5zZm9ybT0idHJhbnNsYXRlKDUsMTY3KSIgeT0iMCIgeD0iMCIgaWQ9InRleHQtZW50aXR5LVBST0pFQ1RTLTgxOTk4MDY5LTlhM2EtNTlhYy04MTU4LTFiNjFkZjlmZmQ3OC1hdHRyLTctdHlwZSIgY2xhc3M9ImVyIGVudGl0eUxhYmVsIj5lbnVtPC90ZXh0PjxyZWN0IGhlaWdodD0iMjIiIHdpZHRoPSI3Ni41ODEyNTMwNTE3NTc4MSIgeT0iMTU2IiB4PSI1OC42Njg3NTA3NjI5Mzk0NSIgY2xhc3M9ImVyIGF0dHJpYnV0ZUJveE9kZCI+PC9yZWN0Pjx0ZXh0IHN0eWxlPSJkb21pbmFudC1iYXNlbGluZTogbWlkZGxlOyBmb250LXNpemU6IDEwLjJweDsiIHRyYW5zZm9ybT0idHJhbnNsYXRlKDYzLjY2ODc1MDc2MjkzOTQ1LDE2NykiIHk9IjAiIHg9IjAiIGlkPSJ0ZXh0LWVudGl0eS1QUk9KRUNUUy04MTk5ODA2OS05YTNhLTU5YWMtODE1OC0xYjYxZGY5ZmZkNzgtYXR0ci03LW5hbWUiIGNsYXNzPSJlciBlbnRpdHlMYWJlbCI+c3RhdHVzPC90ZXh0PjxyZWN0IGhlaWdodD0iMjIiIHdpZHRoPSIyMi4wODc2OTUxMjE3NjUxMzciIHk9IjE1NiIgeD0iMTM1LjI1MDAwMzgxNDY5NzI3IiBjbGFzcz0iZXIgYXR0cmlidXRlQm94T2RkIj48L3JlY3Q+PHRleHQgc3R5bGU9ImRvbWluYW50LWJhc2VsaW5lOiBtaWRkbGU7IGZvbnQtc2l6ZTogMTAuMnB4OyIgdHJhbnNmb3JtPSJ0cmFuc2xhdGUoMTQwLjI1MDAwMzgxNDY5NzI3LDE2NykiIHk9IjAiIHg9IjAiIGlkPSJ0ZXh0LWVudGl0eS1QUk9KRUNUUy04MTk5ODA2OS05YTNhLTU5YWMtODE1OC0xYjYxZGY5ZmZkNzgtYXR0ci03LWtleSIgY2xhc3M9ImVyIGVudGl0eUxhYmVsIj48L3RleHQ+PHJlY3QgaGVpZ2h0PSIyMiIgd2lkdGg9IjU4LjY2ODc1MDc2MjkzOTQ1IiB5PSIxNzgiIHg9IjAiIGNsYXNzPSJlciBhdHRyaWJ1dGVCb3hFdmVuIj48L3JlY3Q+PHRleHQgc3R5bGU9ImRvbWluYW50LWJhc2VsaW5lOiBtaWRkbGU7IGZvbnQtc2l6ZTogMTAuMnB4OyIgdHJhbnNmb3JtPSJ0cmFuc2xhdGUoNSwxODkpIiB5PSIwIiB4PSIwIiBpZD0idGV4dC1lbnRpdHktUFJPSkVDVFMtODE5OTgwNjktOWEzYS01OWFjLTgxNTgtMWI2MWRmOWZmZDc4LWF0dHItOC10eXBlIiBjbGFzcz0iZXIgZW50aXR5TGFiZWwiPnRleHQ8L3RleHQ+PHJlY3QgaGVpZ2h0PSIyMiIgd2lkdGg9Ijc2LjU4MTI1MzA1MTc1NzgxIiB5PSIxNzgiIHg9IjU4LjY2ODc1MDc2MjkzOTQ1IiBjbGFzcz0iZXIgYXR0cmlidXRlQm94RXZlbiI+PC9yZWN0Pjx0ZXh0IHN0eWxlPSJkb21pbmFudC1iYXNlbGluZTogbWlkZGxlOyBmb250LXNpemU6IDEwLjJweDsiIHRyYW5zZm9ybT0idHJhbnNsYXRlKDYzLjY2ODc1MDc2MjkzOTQ1LDE4OSkiIHk9IjAiIHg9IjAiIGlkPSJ0ZXh0LWVudGl0eS1QUk9KRUNUUy04MTk5ODA2OS05YTNhLTU5YWMtODE1OC0xYjYxZGY5ZmZkNzgtYXR0ci04LW5hbWUiIGNsYXNzPSJlciBlbnRpdHlMYWJlbCI+c2tpbGxzX3JlcXVpcmVkPC90ZXh0PjxyZWN0IGhlaWdodD0iMjIiIHdpZHRoPSIyMi4wODc2OTUxMjE3NjUxMzciIHk9IjE3OCIgeD0iMTM1LjI1MDAwMzgxNDY5NzI3IiBjbGFzcz0iZXIgYXR0cmlidXRlQm94RXZlbiI+PC9yZWN0Pjx0ZXh0IHN0eWxlPSJkb21pbmFudC1iYXNlbGluZTogbWlkZGxlOyBmb250LXNpemU6IDEwLjJweDsiIHRyYW5zZm9ybT0idHJhbnNsYXRlKDE0MC4yNTAwMDM4MTQ2OTcyNywxODkpIiB5PSIwIiB4PSIwIiBpZD0idGV4dC1lbnRpdHktUFJPSkVDVFMtODE5OTgwNjktOWEzYS01OWFjLTgxNTgtMWI2MWRmOWZmZDc4LWF0dHItOC1rZXkiIGNsYXNzPSJlciBlbnRpdHlMYWJlbCI+PC90ZXh0PjxyZWN0IGhlaWdodD0iMjIiIHdpZHRoPSI1OC42Njg3NTA3NjI5Mzk0NSIgeT0iMjAwIiB4PSIwIiBjbGFzcz0iZXIgYXR0cmlidXRlQm94T2RkIj48L3JlY3Q+PHRleHQgc3R5bGU9ImRvbWluYW50LWJhc2VsaW5lOiBtaWRkbGU7IGZvbnQtc2l6ZTogMTAuMnB4OyIgdHJhbnNmb3JtPSJ0cmFuc2xhdGUoNSwyMTEpIiB5PSIwIiB4PSIwIiBpZD0idGV4dC1lbnRpdHktUFJPSkVDVFMtODE5OTgwNjktOWEzYS01OWFjLTgxNTgtMWI2MWRmOWZmZDc4LWF0dHItOS10eXBlIiBjbGFzcz0iZXIgZW50aXR5TGFiZWwiPnRpbWVzdGFtcDwvdGV4dD48cmVjdCBoZWlnaHQ9IjIyIiB3aWR0aD0iNzYuNTgxMjUzMDUxNzU3ODEiIHk9IjIwMCIgeD0iNTguNjY4NzUwNzYyOTM5NDUiIGNsYXNzPSJlciBhdHRyaWJ1dGVCb3hPZGQiPjwvcmVjdD48dGV4dCBzdHlsZT0iZG9taW5hbnQtYmFzZWxpbmU6IG1pZGRsZTsgZm9udC1zaXplOiAxMC4ycHg7IiB0cmFuc2Zvcm09InRyYW5zbGF0ZSg2My42Njg3NTA3NjI5Mzk0NSwyMTEpIiB5PSIwIiB4PSIwIiBpZD0idGV4dC1lbnRpdHktUFJPSkVDVFMtODE5OTgwNjktOWEzYS01OWFjLTgxNTgtMWI2MWRmOWZmZDc4LWF0dHItOS1uYW1lIiBjbGFzcz0iZXIgZW50aXR5TGFiZWwiPmNyZWF0ZWRfYXQ8L3RleHQ+PHJlY3QgaGVpZ2h0PSIyMiIgd2lkdGg9IjIyLjA4NzY5NTEyMTc2NTEzNyIgeT0iMjAwIiB4PSIxMzUuMjUwMDAzODE0Njk3MjciIGNsYXNzPSJlciBhdHRyaWJ1dGVCb3hPZGQiPjwvcmVjdD48dGV4dCBzdHlsZT0iZG9taW5hbnQtYmFzZWxpbmU6IG1pZGRsZTsgZm9udC1zaXplOiAxMC4ycHg7IiB0cmFuc2Zvcm09InRyYW5zbGF0ZSgxNDAuMjUwMDAzODE0Njk3MjcsMjExKSIgeT0iMCIgeD0iMCIgaWQ9InRleHQtZW50aXR5LVBST0pFQ1RTLTgxOTk4MDY5LTlhM2EtNTlhYy04MTU4LTFiNjFkZjlmZmQ3OC1hdHRyLTkta2V5IiBjbGFzcz0iZXIgZW50aXR5TGFiZWwiPjwvdGV4dD48cmVjdCBoZWlnaHQ9IjIyIiB3aWR0aD0iNTguNjY4NzUwNzYyOTM5NDUiIHk9IjIyMiIgeD0iMCIgY2xhc3M9ImVyIGF0dHJpYnV0ZUJveEV2ZW4iPjwvcmVjdD48dGV4dCBzdHlsZT0iZG9taW5hbnQtYmFzZWxpbmU6IG1pZGRsZTsgZm9udC1zaXplOiAxMC4ycHg7IiB0cmFuc2Zvcm09InRyYW5zbGF0ZSg1LDIzMykiIHk9IjAiIHg9IjAiIGlkPSJ0ZXh0LWVudGl0eS1QUk9KRUNUUy04MTk5ODA2OS05YTNhLTU5YWMtODE1OC0xYjYxZGY5ZmZkNzgtYXR0ci0xMC10eXBlIiBjbGFzcz0iZXIgZW50aXR5TGFiZWwiPnRpbWVzdGFtcDwvdGV4dD48cmVjdCBoZWlnaHQ9IjIyIiB3aWR0aD0iNzYuNTgxMjUzMDUxNzU3ODEiIHk9IjIyMiIgeD0iNTguNjY4NzUwNzYyOTM5NDUiIGNsYXNzPSJlciBhdHRyaWJ1dGVCb3hFdmVuIj48L3JlY3Q+PHRleHQgc3R5bGU9ImRvbWluYW50LWJhc2VsaW5lOiBtaWRkbGU7IGZvbnQtc2l6ZTogMTAuMnB4OyIgdHJhbnNmb3JtPSJ0cmFuc2xhdGUoNjMuNjY4NzUwNzYyOTM5NDUsMjMzKSIgeT0iMCIgeD0iMCIgaWQ9InRleHQtZW50aXR5LVBST0pFQ1RTLTgxOTk4MDY5LTlhM2EtNTlhYy04MTU4LTFiNjFkZjlmZmQ3OC1hdHRyLTEwLW5hbWUiIGNsYXNzPSJlciBlbnRpdHlMYWJlbCI+dXBkYXRlZF9hdDwvdGV4dD48cmVjdCBoZWlnaHQ9IjIyIiB3aWR0aD0iMjIuMDg3Njk1MTIxNzY1MTM3IiB5PSIyMjIiIHg9IjEzNS4yNTAwMDM4MTQ2OTcyNyIgY2xhc3M9ImVyIGF0dHJpYnV0ZUJveEV2ZW4iPjwvcmVjdD48dGV4dCBzdHlsZT0iZG9taW5hbnQtYmFzZWxpbmU6IG1pZGRsZTsgZm9udC1zaXplOiAxMC4ycHg7IiB0cmFuc2Zvcm09InRyYW5zbGF0ZSgxNDAuMjUwMDAzODE0Njk3MjcsMjMzKSIgeT0iMCIgeD0iMCIgaWQ9InRleHQtZW50aXR5LVBST0pFQ1RTLTgxOTk4MDY5LTlhM2EtNTlhYy04MTU4LTFiNjFkZjlmZmQ3OC1hdHRyLTEwLWtleSIgY2xhc3M9ImVyIGVudGl0eUxhYmVsIj48L3RleHQ+PC9nPjxnIHRyYW5zZm9ybT0idHJhbnNsYXRlKDI0My41NTgyMDg0NjU1NzYxNyw3MDggKSIgaWQ9ImVudGl0eS1CSURTLWU4NzIwNmIyLTMxOTAtNTA5Mi1iMzBlLWNkYjkyOTIwOGY3NiI+PHJlY3QgaGVpZ2h0PSIyMjIiIHdpZHRoPSIxNTQuODg3Njk0MzU4ODI1NjgiIHk9IjAiIHg9IjAiIGNsYXNzPSJlciBlbnRpdHlCb3giPjwvcmVjdD48dGV4dCBzdHlsZT0iZG9taW5hbnQtYmFzZWxpbmU6IG1pZGRsZTsgdGV4dC1hbmNob3I6IG1pZGRsZTsgZm9udC1zaXplOiAxMnB4OyIgdHJhbnNmb3JtPSJ0cmFuc2xhdGUoNzcuNDQzODQ3MTc5NDEyODQsMTIpIiB5PSIwIiB4PSIwIiBpZD0idGV4dC1lbnRpdHktQklEUy1lODcyMDZiMi0zMTkwLTUwOTItYjMwZS1jZGI5MjkyMDhmNzYiIGNsYXNzPSJlciBlbnRpdHlMYWJlbCI+QklEUzwvdGV4dD48cmVjdCBoZWlnaHQ9IjIyIiB3aWR0aD0iNTguNjY4NzUwNzYyOTM5NDUiIHk9IjI0IiB4PSIwIiBjbGFzcz0iZXIgYXR0cmlidXRlQm94T2RkIj48L3JlY3Q+PHRleHQgc3R5bGU9ImRvbWluYW50LWJhc2VsaW5lOiBtaWRkbGU7IGZvbnQtc2l6ZTogMTAuMnB4OyIgdHJhbnNmb3JtPSJ0cmFuc2xhdGUoNSwzNSkiIHk9IjAiIHg9IjAiIGlkPSJ0ZXh0LWVudGl0eS1CSURTLWU4NzIwNmIyLTMxOTAtNTA5Mi1iMzBlLWNkYjkyOTIwOGY3Ni1hdHRyLTEtdHlwZSIgY2xhc3M9ImVyIGVudGl0eUxhYmVsIj5pbnQ8L3RleHQ+PHJlY3QgaGVpZ2h0PSIyMiIgd2lkdGg9Ijc0LjEzMTI0ODQ3NDEyMTEiIHk9IjI0IiB4PSI1OC42Njg3NTA3NjI5Mzk0NSIgY2xhc3M9ImVyIGF0dHJpYnV0ZUJveE9kZCI+PC9yZWN0Pjx0ZXh0IHN0eWxlPSJkb21pbmFudC1iYXNlbGluZTogbWlkZGxlOyBmb250LXNpemU6IDEwLjJweDsiIHRyYW5zZm9ybT0idHJhbnNsYXRlKDYzLjY2ODc1MDc2MjkzOTQ1LDM1KSIgeT0iMCIgeD0iMCIgaWQ9InRleHQtZW50aXR5LUJJRFMtZTg3MjA2YjItMzE5MC01MDkyLWIzMGUtY2RiOTI5MjA4Zjc2LWF0dHItMS1uYW1lIiBjbGFzcz0iZXIgZW50aXR5TGFiZWwiPmlkPC90ZXh0PjxyZWN0IGhlaWdodD0iMjIiIHdpZHRoPSIyMi4wODc2OTUxMjE3NjUxMzciIHk9IjI0IiB4PSIxMzIuNzk5OTk5MjM3MDYwNTUiIGNsYXNzPSJlciBhdHRyaWJ1dGVCb3hPZGQiPjwvcmVjdD48dGV4dCBzdHlsZT0iZG9taW5hbnQtYmFzZWxpbmU6IG1pZGRsZTsgZm9udC1zaXplOiAxMC4ycHg7IiB0cmFuc2Zvcm09InRyYW5zbGF0ZSgxMzcuNzk5OTk5MjM3MDYwNTUsMzUpIiB5PSIwIiB4PSIwIiBpZD0idGV4dC1lbnRpdHktQklEUy1lODcyMDZiMi0zMTkwLTUwOTItYjMwZS1jZGI5MjkyMDhmNzYtYXR0ci0xLWtleSIgY2xhc3M9ImVyIGVudGl0eUxhYmVsIj5QSzwvdGV4dD48cmVjdCBoZWlnaHQ9IjIyIiB3aWR0aD0iNTguNjY4NzUwNzYyOTM5NDUiIHk9IjQ2IiB4PSIwIiBjbGFzcz0iZXIgYXR0cmlidXRlQm94RXZlbiI+PC9yZWN0Pjx0ZXh0IHN0eWxlPSJkb21pbmFudC1iYXNlbGluZTogbWlkZGxlOyBmb250LXNpemU6IDEwLjJweDsiIHRyYW5zZm9ybT0idHJhbnNsYXRlKDUsNTcpIiB5PSIwIiB4PSIwIiBpZD0idGV4dC1lbnRpdHktQklEUy1lODcyMDZiMi0zMTkwLTUwOTItYjMwZS1jZGI5MjkyMDhmNzYtYXR0ci0yLXR5cGUiIGNsYXNzPSJlciBlbnRpdHlMYWJlbCI+aW50PC90ZXh0PjxyZWN0IGhlaWdodD0iMjIiIHdpZHRoPSI3NC4xMzEyNDg0NzQxMjExIiB5PSI0NiIgeD0iNTguNjY4NzUwNzYyOTM5NDUiIGNsYXNzPSJlciBhdHRyaWJ1dGVCb3hFdmVuIj48L3JlY3Q+PHRleHQgc3R5bGU9ImRvbWluYW50LWJhc2VsaW5lOiBtaWRkbGU7IGZvbnQtc2l6ZTogMTAuMnB4OyIgdHJhbnNmb3JtPSJ0cmFuc2xhdGUoNjMuNjY4NzUwNzYyOTM5NDUsNTcpIiB5PSIwIiB4PSIwIiBpZD0idGV4dC1lbnRpdHktQklEUy1lODcyMDZiMi0zMTkwLTUwOTItYjMwZS1jZGI5MjkyMDhmNzYtYXR0ci0yLW5hbWUiIGNsYXNzPSJlciBlbnRpdHlMYWJlbCI+cHJvamVjdF9pZDwvdGV4dD48cmVjdCBoZWlnaHQ9IjIyIiB3aWR0aD0iMjIuMDg3Njk1MTIxNzY1MTM3IiB5PSI0NiIgeD0iMTMyLjc5OTk5OTIzNzA2MDU1IiBjbGFzcz0iZXIgYXR0cmlidXRlQm94RXZlbiI+PC9yZWN0Pjx0ZXh0IHN0eWxlPSJkb21pbmFudC1iYXNlbGluZTogbWlkZGxlOyBmb250LXNpemU6IDEwLjJweDsiIHRyYW5zZm9ybT0idHJhbnNsYXRlKDEzNy43OTk5OTkyMzcwNjA1NSw1NykiIHk9IjAiIHg9IjAiIGlkPSJ0ZXh0LWVudGl0eS1CSURTLWU4NzIwNmIyLTMxOTAtNTA5Mi1iMzBlLWNkYjkyOTIwOGY3Ni1hdHRyLTIta2V5IiBjbGFzcz0iZXIgZW50aXR5TGFiZWwiPkZLPC90ZXh0PjxyZWN0IGhlaWdodD0iMjIiIHdpZHRoPSI1OC42Njg3NTA3NjI5Mzk0NSIgeT0iNjgiIHg9IjAiIGNsYXNzPSJlciBhdHRyaWJ1dGVCb3hPZGQiPjwvcmVjdD48dGV4dCBzdHlsZT0iZG9taW5hbnQtYmFzZWxpbmU6IG1pZGRsZTsgZm9udC1zaXplOiAxMC4ycHg7IiB0cmFuc2Zvcm09InRyYW5zbGF0ZSg1LDc5KSIgeT0iMCIgeD0iMCIgaWQ9InRleHQtZW50aXR5LUJJRFMtZTg3MjA2YjItMzE5MC01MDkyLWIzMGUtY2RiOTI5MjA4Zjc2LWF0dHItMy10eXBlIiBjbGFzcz0iZXIgZW50aXR5TGFiZWwiPmludDwvdGV4dD48cmVjdCBoZWlnaHQ9IjIyIiB3aWR0aD0iNzQuMTMxMjQ4NDc0MTIxMSIgeT0iNjgiIHg9IjU4LjY2ODc1MDc2MjkzOTQ1IiBjbGFzcz0iZXIgYXR0cmlidXRlQm94T2RkIj48L3JlY3Q+PHRleHQgc3R5bGU9ImRvbWluYW50LWJhc2VsaW5lOiBtaWRkbGU7IGZvbnQtc2l6ZTogMTAuMnB4OyIgdHJhbnNmb3JtPSJ0cmFuc2xhdGUoNjMuNjY4NzUwNzYyOTM5NDUsNzkpIiB5PSIwIiB4PSIwIiBpZD0idGV4dC1lbnRpdHktQklEUy1lODcyMDZiMi0zMTkwLTUwOTItYjMwZS1jZGI5MjkyMDhmNzYtYXR0ci0zLW5hbWUiIGNsYXNzPSJlciBlbnRpdHlMYWJlbCI+ZnJlZWxhbmNlcl9pZDwvdGV4dD48cmVjdCBoZWlnaHQ9IjIyIiB3aWR0aD0iMjIuMDg3Njk1MTIxNzY1MTM3IiB5PSI2OCIgeD0iMTMyLjc5OTk5OTIzNzA2MDU1IiBjbGFzcz0iZXIgYXR0cmlidXRlQm94T2RkIj48L3JlY3Q+PHRleHQgc3R5bGU9ImRvbWluYW50LWJhc2VsaW5lOiBtaWRkbGU7IGZvbnQtc2l6ZTogMTAuMnB4OyIgdHJhbnNmb3JtPSJ0cmFuc2xhdGUoMTM3Ljc5OTk5OTIzNzA2MDU1LDc5KSIgeT0iMCIgeD0iMCIgaWQ9InRleHQtZW50aXR5LUJJRFMtZTg3MjA2YjItMzE5MC01MDkyLWIzMGUtY2RiOTI5MjA4Zjc2LWF0dHItMy1rZXkiIGNsYXNzPSJlciBlbnRpdHlMYWJlbCI+Rks8L3RleHQ+PHJlY3QgaGVpZ2h0PSIyMiIgd2lkdGg9IjU4LjY2ODc1MDc2MjkzOTQ1IiB5PSI5MCIgeD0iMCIgY2xhc3M9ImVyIGF0dHJpYnV0ZUJveEV2ZW4iPjwvcmVjdD48dGV4dCBzdHlsZT0iZG9taW5hbnQtYmFzZWxpbmU6IG1pZGRsZTsgZm9udC1zaXplOiAxMC4ycHg7IiB0cmFuc2Zvcm09InRyYW5zbGF0ZSg1LDEwMSkiIHk9IjAiIHg9IjAiIGlkPSJ0ZXh0LWVudGl0eS1CSURTLWU4NzIwNmIyLTMxOTAtNTA5Mi1iMzBlLWNkYjkyOTIwOGY3Ni1hdHRyLTQtdHlwZSIgY2xhc3M9ImVyIGVudGl0eUxhYmVsIj5kZWNpbWFsPC90ZXh0PjxyZWN0IGhlaWdodD0iMjIiIHdpZHRoPSI3NC4xMzEyNDg0NzQxMjExIiB5PSI5MCIgeD0iNTguNjY4NzUwNzYyOTM5NDUiIGNsYXNzPSJlciBhdHRyaWJ1dGVCb3hFdmVuIj48L3JlY3Q+PHRleHQgc3R5bGU9ImRvbWluYW50LWJhc2VsaW5lOiBtaWRkbGU7IGZvbnQtc2l6ZTogMTAuMnB4OyIgdHJhbnNmb3JtPSJ0cmFuc2xhdGUoNjMuNjY4NzUwNzYyOTM5NDUsMTAxKSIgeT0iMCIgeD0iMCIgaWQ9InRleHQtZW50aXR5LUJJRFMtZTg3MjA2YjItMzE5MC01MDkyLWIzMGUtY2RiOTI5MjA4Zjc2LWF0dHItNC1uYW1lIiBjbGFzcz0iZXIgZW50aXR5TGFiZWwiPmFtb3VudDwvdGV4dD48cmVjdCBoZWlnaHQ9IjIyIiB3aWR0aD0iMjIuMDg3Njk1MTIxNzY1MTM3IiB5PSI5MCIgeD0iMTMyLjc5OTk5OTIzNzA2MDU1IiBjbGFzcz0iZXIgYXR0cmlidXRlQm94RXZlbiI+PC9yZWN0Pjx0ZXh0IHN0eWxlPSJkb21pbmFudC1iYXNlbGluZTogbWlkZGxlOyBmb250LXNpemU6IDEwLjJweDsiIHRyYW5zZm9ybT0idHJhbnNsYXRlKDEzNy43OTk5OTkyMzcwNjA1NSwxMDEpIiB5PSIwIiB4PSIwIiBpZD0idGV4dC1lbnRpdHktQklEUy1lODcyMDZiMi0zMTkwLTUwOTItYjMwZS1jZGI5MjkyMDhmNzYtYXR0ci00LWtleSIgY2xhc3M9ImVyIGVudGl0eUxhYmVsIj48L3RleHQ+PHJlY3QgaGVpZ2h0PSIyMiIgd2lkdGg9IjU4LjY2ODc1MDc2MjkzOTQ1IiB5PSIxMTIiIHg9IjAiIGNsYXNzPSJlciBhdHRyaWJ1dGVCb3hPZGQiPjwvcmVjdD48dGV4dCBzdHlsZT0iZG9taW5hbnQtYmFzZWxpbmU6IG1pZGRsZTsgZm9udC1zaXplOiAxMC4ycHg7IiB0cmFuc2Zvcm09InRyYW5zbGF0ZSg1LDEyMykiIHk9IjAiIHg9IjAiIGlkPSJ0ZXh0LWVudGl0eS1CSURTLWU4NzIwNmIyLTMxOTAtNTA5Mi1iMzBlLWNkYjkyOTIwOGY3Ni1hdHRyLTUtdHlwZSIgY2xhc3M9ImVyIGVudGl0eUxhYmVsIj5pbnQ8L3RleHQ+PHJlY3QgaGVpZ2h0PSIyMiIgd2lkdGg9Ijc0LjEzMTI0ODQ3NDEyMTEiIHk9IjExMiIgeD0iNTguNjY4NzUwNzYyOTM5NDUiIGNsYXNzPSJlciBhdHRyaWJ1dGVCb3hPZGQiPjwvcmVjdD48dGV4dCBzdHlsZT0iZG9taW5hbnQtYmFzZWxpbmU6IG1pZGRsZTsgZm9udC1zaXplOiAxMC4ycHg7IiB0cmFuc2Zvcm09InRyYW5zbGF0ZSg2My42Njg3NTA3NjI5Mzk0NSwxMjMpIiB5PSIwIiB4PSIwIiBpZD0idGV4dC1lbnRpdHktQklEUy1lODcyMDZiMi0zMTkwLTUwOTItYjMwZS1jZGI5MjkyMDhmNzYtYXR0ci01LW5hbWUiIGNsYXNzPSJlciBlbnRpdHlMYWJlbCI+ZHVyYXRpb25fZGF5czwvdGV4dD48cmVjdCBoZWlnaHQ9IjIyIiB3aWR0aD0iMjIuMDg3Njk1MTIxNzY1MTM3IiB5PSIxMTIiIHg9IjEzMi43OTk5OTkyMzcwNjA1NSIgY2xhc3M9ImVyIGF0dHJpYnV0ZUJveE9kZCI+PC9yZWN0Pjx0ZXh0IHN0eWxlPSJkb21pbmFudC1iYXNlbGluZTogbWlkZGxlOyBmb250LXNpemU6IDEwLjJweDsiIHRyYW5zZm9ybT0idHJhbnNsYXRlKDEzNy43OTk5OTkyMzcwNjA1NSwxMjMpIiB5PSIwIiB4PSIwIiBpZD0idGV4dC1lbnRpdHktQklEUy1lODcyMDZiMi0zMTkwLTUwOTItYjMwZS1jZGI5MjkyMDhmNzYtYXR0ci01LWtleSIgY2xhc3M9ImVyIGVudGl0eUxhYmVsIj48L3RleHQ+PHJlY3QgaGVpZ2h0PSIyMiIgd2lkdGg9IjU4LjY2ODc1MDc2MjkzOTQ1IiB5PSIxMzQiIHg9IjAiIGNsYXNzPSJlciBhdHRyaWJ1dGVCb3hFdmVuIj48L3JlY3Q+PHRleHQgc3R5bGU9ImRvbWluYW50LWJhc2VsaW5lOiBtaWRkbGU7IGZvbnQtc2l6ZTogMTAuMnB4OyIgdHJhbnNmb3JtPSJ0cmFuc2xhdGUoNSwxNDUpIiB5PSIwIiB4PSIwIiBpZD0idGV4dC1lbnRpdHktQklEUy1lODcyMDZiMi0zMTkwLTUwOTItYjMwZS1jZGI5MjkyMDhmNzYtYXR0ci02LXR5cGUiIGNsYXNzPSJlciBlbnRpdHlMYWJlbCI+dGV4dDwvdGV4dD48cmVjdCBoZWlnaHQ9IjIyIiB3aWR0aD0iNzQuMTMxMjQ4NDc0MTIxMSIgeT0iMTM0IiB4PSI1OC42Njg3NTA3NjI5Mzk0NSIgY2xhc3M9ImVyIGF0dHJpYnV0ZUJveEV2ZW4iPjwvcmVjdD48dGV4dCBzdHlsZT0iZG9taW5hbnQtYmFzZWxpbmU6IG1pZGRsZTsgZm9udC1zaXplOiAxMC4ycHg7IiB0cmFuc2Zvcm09InRyYW5zbGF0ZSg2My42Njg3NTA3NjI5Mzk0NSwxNDUpIiB5PSIwIiB4PSIwIiBpZD0idGV4dC1lbnRpdHktQklEUy1lODcyMDZiMi0zMTkwLTUwOTItYjMwZS1jZGI5MjkyMDhmNzYtYXR0ci02LW5hbWUiIGNsYXNzPSJlciBlbnRpdHlMYWJlbCI+cHJvcG9zYWw8L3RleHQ+PHJlY3QgaGVpZ2h0PSIyMiIgd2lkdGg9IjIyLjA4NzY5NTEyMTc2NTEzNyIgeT0iMTM0IiB4PSIxMzIuNzk5OTk5MjM3MDYwNTUiIGNsYXNzPSJlciBhdHRyaWJ1dGVCb3hFdmVuIj48L3JlY3Q+PHRleHQgc3R5bGU9ImRvbWluYW50LWJhc2VsaW5lOiBtaWRkbGU7IGZvbnQtc2l6ZTogMTAuMnB4OyIgdHJhbnNmb3JtPSJ0cmFuc2xhdGUoMTM3Ljc5OTk5OTIzNzA2MDU1LDE0NSkiIHk9IjAiIHg9IjAiIGlkPSJ0ZXh0LWVudGl0eS1CSURTLWU4NzIwNmIyLTMxOTAtNTA5Mi1iMzBlLWNkYjkyOTIwOGY3Ni1hdHRyLTYta2V5IiBjbGFzcz0iZXIgZW50aXR5TGFiZWwiPjwvdGV4dD48cmVjdCBoZWlnaHQ9IjIyIiB3aWR0aD0iNTguNjY4NzUwNzYyOTM5NDUiIHk9IjE1NiIgeD0iMCIgY2xhc3M9ImVyIGF0dHJpYnV0ZUJveE9kZCI+PC9yZWN0Pjx0ZXh0IHN0eWxlPSJkb21pbmFudC1iYXNlbGluZTogbWlkZGxlOyBmb250LXNpemU6IDEwLjJweDsiIHRyYW5zZm9ybT0idHJhbnNsYXRlKDUsMTY3KSIgeT0iMCIgeD0iMCIgaWQ9InRleHQtZW50aXR5LUJJRFMtZTg3MjA2YjItMzE5MC01MDkyLWIzMGUtY2RiOTI5MjA4Zjc2LWF0dHItNy10eXBlIiBjbGFzcz0iZXIgZW50aXR5TGFiZWwiPmVudW08L3RleHQ+PHJlY3QgaGVpZ2h0PSIyMiIgd2lkdGg9Ijc0LjEzMTI0ODQ3NDEyMTEiIHk9IjE1NiIgeD0iNTguNjY4NzUwNzYyOTM5NDUiIGNsYXNzPSJlciBhdHRyaWJ1dGVCb3hPZGQiPjwvcmVjdD48dGV4dCBzdHlsZT0iZG9taW5hbnQtYmFzZWxpbmU6IG1pZGRsZTsgZm9udC1zaXplOiAxMC4ycHg7IiB0cmFuc2Zvcm09InRyYW5zbGF0ZSg2My42Njg3NTA3NjI5Mzk0NSwxNjcpIiB5PSIwIiB4PSIwIiBpZD0idGV4dC1lbnRpdHktQklEUy1lODcyMDZiMi0zMTkwLTUwOTItYjMwZS1jZGI5MjkyMDhmNzYtYXR0ci03LW5hbWUiIGNsYXNzPSJlciBlbnRpdHlMYWJlbCI+c3RhdHVzPC90ZXh0PjxyZWN0IGhlaWdodD0iMjIiIHdpZHRoPSIyMi4wODc2OTUxMjE3NjUxMzciIHk9IjE1NiIgeD0iMTMyLjc5OTk5OTIzNzA2MDU1IiBjbGFzcz0iZXIgYXR0cmlidXRlQm94T2RkIj48L3JlY3Q+PHRleHQgc3R5bGU9ImRvbWluYW50LWJhc2VsaW5lOiBtaWRkbGU7IGZvbnQtc2l6ZTogMTAuMnB4OyIgdHJhbnNmb3JtPSJ0cmFuc2xhdGUoMTM3Ljc5OTk5OTIzNzA2MDU1LDE2NykiIHk9IjAiIHg9IjAiIGlkPSJ0ZXh0LWVudGl0eS1CSURTLWU4NzIwNmIyLTMxOTAtNTA5Mi1iMzBlLWNkYjkyOTIwOGY3Ni1hdHRyLTcta2V5IiBjbGFzcz0iZXIgZW50aXR5TGFiZWwiPjwvdGV4dD48cmVjdCBoZWlnaHQ9IjIyIiB3aWR0aD0iNTguNjY4NzUwNzYyOTM5NDUiIHk9IjE3OCIgeD0iMCIgY2xhc3M9ImVyIGF0dHJpYnV0ZUJveEV2ZW4iPjwvcmVjdD48dGV4dCBzdHlsZT0iZG9taW5hbnQtYmFzZWxpbmU6IG1pZGRsZTsgZm9udC1zaXplOiAxMC4ycHg7IiB0cmFuc2Zvcm09InRyYW5zbGF0ZSg1LDE4OSkiIHk9IjAiIHg9IjAiIGlkPSJ0ZXh0LWVudGl0eS1CSURTLWU4NzIwNmIyLTMxOTAtNTA5Mi1iMzBlLWNkYjkyOTIwOGY3Ni1hdHRyLTgtdHlwZSIgY2xhc3M9ImVyIGVudGl0eUxhYmVsIj50aW1lc3RhbXA8L3RleHQ+PHJlY3QgaGVpZ2h0PSIyMiIgd2lkdGg9Ijc0LjEzMTI0ODQ3NDEyMTEiIHk9IjE3OCIgeD0iNTguNjY4NzUwNzYyOTM5NDUiIGNsYXNzPSJlciBhdHRyaWJ1dGVCb3hFdmVuIj48L3JlY3Q+PHRleHQgc3R5bGU9ImRvbWluYW50LWJhc2VsaW5lOiBtaWRkbGU7IGZvbnQtc2l6ZTogMTAuMnB4OyIgdHJhbnNmb3JtPSJ0cmFuc2xhdGUoNjMuNjY4NzUwNzYyOTM5NDUsMTg5KSIgeT0iMCIgeD0iMCIgaWQ9InRleHQtZW50aXR5LUJJRFMtZTg3MjA2YjItMzE5MC01MDkyLWIzMGUtY2RiOTI5MjA4Zjc2LWF0dHItOC1uYW1lIiBjbGFzcz0iZXIgZW50aXR5TGFiZWwiPmNyZWF0ZWRfYXQ8L3RleHQ+PHJlY3QgaGVpZ2h0PSIyMiIgd2lkdGg9IjIyLjA4NzY5NTEyMTc2NTEzNyIgeT0iMTc4IiB4PSIxMzIuNzk5OTk5MjM3MDYwNTUiIGNsYXNzPSJlciBhdHRyaWJ1dGVCb3hFdmVuIj48L3JlY3Q+PHRleHQgc3R5bGU9ImRvbWluYW50LWJhc2VsaW5lOiBtaWRkbGU7IGZvbnQtc2l6ZTogMTAuMnB4OyIgdHJhbnNmb3JtPSJ0cmFuc2xhdGUoMTM3Ljc5OTk5OTIzNzA2MDU1LDE4OSkiIHk9IjAiIHg9IjAiIGlkPSJ0ZXh0LWVudGl0eS1CSURTLWU4NzIwNmIyLTMxOTAtNTA5Mi1iMzBlLWNkYjkyOTIwOGY3Ni1hdHRyLTgta2V5IiBjbGFzcz0iZXIgZW50aXR5TGFiZWwiPjwvdGV4dD48cmVjdCBoZWlnaHQ9IjIyIiB3aWR0aD0iNTguNjY4NzUwNzYyOTM5NDUiIHk9IjIwMCIgeD0iMCIgY2xhc3M9ImVyIGF0dHJpYnV0ZUJveE9kZCI+PC9yZWN0Pjx0ZXh0IHN0eWxlPSJkb21pbmFudC1iYXNlbGluZTogbWlkZGxlOyBmb250LXNpemU6IDEwLjJweDsiIHRyYW5zZm9ybT0idHJhbnNsYXRlKDUsMjExKSIgeT0iMCIgeD0iMCIgaWQ9InRleHQtZW50aXR5LUJJRFMtZTg3MjA2YjItMzE5MC01MDkyLWIzMGUtY2RiOTI5MjA4Zjc2LWF0dHItOS10eXBlIiBjbGFzcz0iZXIgZW50aXR5TGFiZWwiPnRpbWVzdGFtcDwvdGV4dD48cmVjdCBoZWlnaHQ9IjIyIiB3aWR0aD0iNzQuMTMxMjQ4NDc0MTIxMSIgeT0iMjAwIiB4PSI1OC42Njg3NTA3NjI5Mzk0NSIgY2xhc3M9ImVyIGF0dHJpYnV0ZUJveE9kZCI+PC9yZWN0Pjx0ZXh0IHN0eWxlPSJkb21pbmFudC1iYXNlbGluZTogbWlkZGxlOyBmb250LXNpemU6IDEwLjJweDsiIHRyYW5zZm9ybT0idHJhbnNsYXRlKDYzLjY2ODc1MDc2MjkzOTQ1LDIxMSkiIHk9IjAiIHg9IjAiIGlkPSJ0ZXh0LWVudGl0eS1CSURTLWU4NzIwNmIyLTMxOTAtNTA5Mi1iMzBlLWNkYjkyOTIwOGY3Ni1hdHRyLTktbmFtZSIgY2xhc3M9ImVyIGVudGl0eUxhYmVsIj51cGRhdGVkX2F0PC90ZXh0PjxyZWN0IGhlaWdodD0iMjIiIHdpZHRoPSIyMi4wODc2OTUxMjE3NjUxMzciIHk9IjIwMCIgeD0iMTMyLjc5OTk5OTIzNzA2MDU1IiBjbGFzcz0iZXIgYXR0cmlidXRlQm94T2RkIj48L3JlY3Q+PHRleHQgc3R5bGU9ImRvbWluYW50LWJhc2VsaW5lOiBtaWRkbGU7IGZvbnQtc2l6ZTogMTAuMnB4OyIgdHJhbnNmb3JtPSJ0cmFuc2xhdGUoMTM3Ljc5OTk5OTIzNzA2MDU1LDIxMSkiIHk9IjAiIHg9IjAiIGlkPSJ0ZXh0LWVudGl0eS1CSURTLWU4NzIwNmIyLTMxOTAtNTA5Mi1iMzBlLWNkYjkyOTIwOGY3Ni1hdHRyLTkta2V5IiBjbGFzcz0iZXIgZW50aXR5TGFiZWwiPjwvdGV4dD48L2c+PGcgdHJhbnNmb3JtPSJ0cmFuc2xhdGUoODcyLjY0ODkyOTU5NTk0NzMsMTAzMCApIiBpZD0iZW50aXR5LUNPTlRSQUNUUy1kMzIyM2M5YS1mYzEyLTUxNTQtYTg4YS1lOTRkZjM3NDI3ZjMiPjxyZWN0IGhlaWdodD0iMzMyIiB3aWR0aD0iMTU0LjA0Mzk0ODE3MzUyMjk1IiB5PSIwIiB4PSIwIiBjbGFzcz0iZXIgZW50aXR5Qm94Ij48L3JlY3Q+PHRleHQgc3R5bGU9ImRvbWluYW50LWJhc2VsaW5lOiBtaWRkbGU7IHRleHQtYW5jaG9yOiBtaWRkbGU7IGZvbnQtc2l6ZTogMTJweDsiIHRyYW5zZm9ybT0idHJhbnNsYXRlKDc3LjAyMTk3NDA4Njc2MTQ3LDEyKSIgeT0iMCIgeD0iMCIgaWQ9InRleHQtZW50aXR5LUNPTlRSQUNUUy1kMzIyM2M5YS1mYzEyLTUxNTQtYTg4YS1lOTRkZjM3NDI3ZjMiIGNsYXNzPSJlciBlbnRpdHlMYWJlbCI+Q09OVFJBQ1RTPC90ZXh0PjxyZWN0IGhlaWdodD0iMjIiIHdpZHRoPSI1OC42Njg3NTA3NjI5Mzk0NSIgeT0iMjQiIHg9IjAiIGNsYXNzPSJlciBhdHRyaWJ1dGVCb3hPZGQiPjwvcmVjdD48dGV4dCBzdHlsZT0iZG9taW5hbnQtYmFzZWxpbmU6IG1pZGRsZTsgZm9udC1zaXplOiAxMC4ycHg7IiB0cmFuc2Zvcm09InRyYW5zbGF0ZSg1LDM1KSIgeT0iMCIgeD0iMCIgaWQ9InRleHQtZW50aXR5LUNPTlRSQUNUUy1kMzIyM2M5YS1mYzEyLTUxNTQtYTg4YS1lOTRkZjM3NDI3ZjMtYXR0ci0xLXR5cGUiIGNsYXNzPSJlciBlbnRpdHlMYWJlbCI+aW50PC90ZXh0PjxyZWN0IGhlaWdodD0iMjIiIHdpZHRoPSI3My4yODc1MDIyODg4MTgzNiIgeT0iMjQiIHg9IjU4LjY2ODc1MDc2MjkzOTQ1IiBjbGFzcz0iZXIgYXR0cmlidXRlQm94T2RkIj48L3JlY3Q+PHRleHQgc3R5bGU9ImRvbWluYW50LWJhc2VsaW5lOiBtaWRkbGU7IGZvbnQtc2l6ZTogMTAuMnB4OyIgdHJhbnNmb3JtPSJ0cmFuc2xhdGUoNjMuNjY4NzUwNzYyOTM5NDUsMzUpIiB5PSIwIiB4PSIwIiBpZD0idGV4dC1lbnRpdHktQ09OVFJBQ1RTLWQzMjIzYzlhLWZjMTItNTE1NC1hODhhLWU5NGRmMzc0MjdmMy1hdHRyLTEtbmFtZSIgY2xhc3M9ImVyIGVudGl0eUxhYmVsIj5pZDwvdGV4dD48cmVjdCBoZWlnaHQ9IjIyIiB3aWR0aD0iMjIuMDg3Njk1MTIxNzY1MTM3IiB5PSIyNCIgeD0iMTMxLjk1NjI1MzA1MTc1NzgiIGNsYXNzPSJlciBhdHRyaWJ1dGVCb3hPZGQiPjwvcmVjdD48dGV4dCBzdHlsZT0iZG9taW5hbnQtYmFzZWxpbmU6IG1pZGRsZTsgZm9udC1zaXplOiAxMC4ycHg7IiB0cmFuc2Zvcm09InRyYW5zbGF0ZSgxMzYuOTU2MjUzMDUxNzU3OCwzNSkiIHk9IjAiIHg9IjAiIGlkPSJ0ZXh0LWVudGl0eS1DT05UUkFDVFMtZDMyMjNjOWEtZmMxMi01MTU0LWE4OGEtZTk0ZGYzNzQyN2YzLWF0dHItMS1rZXkiIGNsYXNzPSJlciBlbnRpdHlMYWJlbCI+UEs8L3RleHQ+PHJlY3QgaGVpZ2h0PSIyMiIgd2lkdGg9IjU4LjY2ODc1MDc2MjkzOTQ1IiB5PSI0NiIgeD0iMCIgY2xhc3M9ImVyIGF0dHJpYnV0ZUJveEV2ZW4iPjwvcmVjdD48dGV4dCBzdHlsZT0iZG9taW5hbnQtYmFzZWxpbmU6IG1pZGRsZTsgZm9udC1zaXplOiAxMC4ycHg7IiB0cmFuc2Zvcm09InRyYW5zbGF0ZSg1LDU3KSIgeT0iMCIgeD0iMCIgaWQ9InRleHQtZW50aXR5LUNPTlRSQUNUUy1kMzIyM2M5YS1mYzEyLTUxNTQtYTg4YS1lOTRkZjM3NDI3ZjMtYXR0ci0yLXR5cGUiIGNsYXNzPSJlciBlbnRpdHlMYWJlbCI+aW50PC90ZXh0PjxyZWN0IGhlaWdodD0iMjIiIHdpZHRoPSI3My4yODc1MDIyODg4MTgzNiIgeT0iNDYiIHg9IjU4LjY2ODc1MDc2MjkzOTQ1IiBjbGFzcz0iZXIgYXR0cmlidXRlQm94RXZlbiI+PC9yZWN0Pjx0ZXh0IHN0eWxlPSJkb21pbmFudC1iYXNlbGluZTogbWlkZGxlOyBmb250LXNpemU6IDEwLjJweDsiIHRyYW5zZm9ybT0idHJhbnNsYXRlKDYzLjY2ODc1MDc2MjkzOTQ1LDU3KSIgeT0iMCIgeD0iMCIgaWQ9InRleHQtZW50aXR5LUNPTlRSQUNUUy1kMzIyM2M5YS1mYzEyLTUxNTQtYTg4YS1lOTRkZjM3NDI3ZjMtYXR0ci0yLW5hbWUiIGNsYXNzPSJlciBlbnRpdHlMYWJlbCI+cHJvamVjdF9pZDwvdGV4dD48cmVjdCBoZWlnaHQ9IjIyIiB3aWR0aD0iMjIuMDg3Njk1MTIxNzY1MTM3IiB5PSI0NiIgeD0iMTMxLjk1NjI1MzA1MTc1NzgiIGNsYXNzPSJlciBhdHRyaWJ1dGVCb3hFdmVuIj48L3JlY3Q+PHRleHQgc3R5bGU9ImRvbWluYW50LWJhc2VsaW5lOiBtaWRkbGU7IGZvbnQtc2l6ZTogMTAuMnB4OyIgdHJhbnNmb3JtPSJ0cmFuc2xhdGUoMTM2Ljk1NjI1MzA1MTc1NzgsNTcpIiB5PSIwIiB4PSIwIiBpZD0idGV4dC1lbnRpdHktQ09OVFJBQ1RTLWQzMjIzYzlhLWZjMTItNTE1NC1hODhhLWU5NGRmMzc0MjdmMy1hdHRyLTIta2V5IiBjbGFzcz0iZXIgZW50aXR5TGFiZWwiPkZLPC90ZXh0PjxyZWN0IGhlaWdodD0iMjIiIHdpZHRoPSI1OC42Njg3NTA3NjI5Mzk0NSIgeT0iNjgiIHg9IjAiIGNsYXNzPSJlciBhdHRyaWJ1dGVCb3hPZGQiPjwvcmVjdD48dGV4dCBzdHlsZT0iZG9taW5hbnQtYmFzZWxpbmU6IG1pZGRsZTsgZm9udC1zaXplOiAxMC4ycHg7IiB0cmFuc2Zvcm09InRyYW5zbGF0ZSg1LDc5KSIgeT0iMCIgeD0iMCIgaWQ9InRleHQtZW50aXR5LUNPTlRSQUNUUy1kMzIyM2M5YS1mYzEyLTUxNTQtYTg4YS1lOTRkZjM3NDI3ZjMtYXR0ci0zLXR5cGUiIGNsYXNzPSJlciBlbnRpdHlMYWJlbCI+aW50PC90ZXh0PjxyZWN0IGhlaWdodD0iMjIiIHdpZHRoPSI3My4yODc1MDIyODg4MTgzNiIgeT0iNjgiIHg9IjU4LjY2ODc1MDc2MjkzOTQ1IiBjbGFzcz0iZXIgYXR0cmlidXRlQm94T2RkIj48L3JlY3Q+PHRleHQgc3R5bGU9ImRvbWluYW50LWJhc2VsaW5lOiBtaWRkbGU7IGZvbnQtc2l6ZTogMTAuMnB4OyIgdHJhbnNmb3JtPSJ0cmFuc2xhdGUoNjMuNjY4NzUwNzYyOTM5NDUsNzkpIiB5PSIwIiB4PSIwIiBpZD0idGV4dC1lbnRpdHktQ09OVFJBQ1RTLWQzMjIzYzlhLWZjMTItNTE1NC1hODhhLWU5NGRmMzc0MjdmMy1hdHRyLTMtbmFtZSIgY2xhc3M9ImVyIGVudGl0eUxhYmVsIj5iaWRfaWQ8L3RleHQ+PHJlY3QgaGVpZ2h0PSIyMiIgd2lkdGg9IjIyLjA4NzY5NTEyMTc2NTEzNyIgeT0iNjgiIHg9IjEzMS45NTYyNTMwNTE3NTc4IiBjbGFzcz0iZXIgYXR0cmlidXRlQm94T2RkIj48L3JlY3Q+PHRleHQgc3R5bGU9ImRvbWluYW50LWJhc2VsaW5lOiBtaWRkbGU7IGZvbnQtc2l6ZTogMTAuMnB4OyIgdHJhbnNmb3JtPSJ0cmFuc2xhdGUoMTM2Ljk1NjI1MzA1MTc1NzgsNzkpIiB5PSIwIiB4PSIwIiBpZD0idGV4dC1lbnRpdHktQ09OVFJBQ1RTLWQzMjIzYzlhLWZjMTItNTE1NC1hODhhLWU5NGRmMzc0MjdmMy1hdHRyLTMta2V5IiBjbGFzcz0iZXIgZW50aXR5TGFiZWwiPkZLPC90ZXh0PjxyZWN0IGhlaWdodD0iMjIiIHdpZHRoPSI1OC42Njg3NTA3NjI5Mzk0NSIgeT0iOTAiIHg9IjAiIGNsYXNzPSJlciBhdHRyaWJ1dGVCb3hFdmVuIj48L3JlY3Q+PHRleHQgc3R5bGU9ImRvbWluYW50LWJhc2VsaW5lOiBtaWRkbGU7IGZvbnQtc2l6ZTogMTAuMnB4OyIgdHJhbnNmb3JtPSJ0cmFuc2xhdGUoNSwxMDEpIiB5PSIwIiB4PSIwIiBpZD0idGV4dC1lbnRpdHktQ09OVFJBQ1RTLWQzMjIzYzlhLWZjMTItNTE1NC1hODhhLWU5NGRmMzc0MjdmMy1hdHRyLTQtdHlwZSIgY2xhc3M9ImVyIGVudGl0eUxhYmVsIj5pbnQ8L3RleHQ+PHJlY3QgaGVpZ2h0PSIyMiIgd2lkdGg9IjczLjI4NzUwMjI4ODgxODM2IiB5PSI5MCIgeD0iNTguNjY4NzUwNzYyOTM5NDUiIGNsYXNzPSJlciBhdHRyaWJ1dGVCb3hFdmVuIj48L3JlY3Q+PHRleHQgc3R5bGU9ImRvbWluYW50LWJhc2VsaW5lOiBtaWRkbGU7IGZvbnQtc2l6ZTogMTAuMnB4OyIgdHJhbnNmb3JtPSJ0cmFuc2xhdGUoNjMuNjY4NzUwNzYyOTM5NDUsMTAxKSIgeT0iMCIgeD0iMCIgaWQ9InRleHQtZW50aXR5LUNPTlRSQUNUUy1kMzIyM2M5YS1mYzEyLTUxNTQtYTg4YS1lOTRkZjM3NDI3ZjMtYXR0ci00LW5hbWUiIGNsYXNzPSJlciBlbnRpdHlMYWJlbCI+Y2xpZW50X2lkPC90ZXh0PjxyZWN0IGhlaWdodD0iMjIiIHdpZHRoPSIyMi4wODc2OTUxMjE3NjUxMzciIHk9IjkwIiB4PSIxMzEuOTU2MjUzMDUxNzU3OCIgY2xhc3M9ImVyIGF0dHJpYnV0ZUJveEV2ZW4iPjwvcmVjdD48dGV4dCBzdHlsZT0iZG9taW5hbnQtYmFzZWxpbmU6IG1pZGRsZTsgZm9udC1zaXplOiAxMC4ycHg7IiB0cmFuc2Zvcm09InRyYW5zbGF0ZSgxMzYuOTU2MjUzMDUxNzU3OCwxMDEpIiB5PSIwIiB4PSIwIiBpZD0idGV4dC1lbnRpdHktQ09OVFJBQ1RTLWQzMjIzYzlhLWZjMTItNTE1NC1hODhhLWU5NGRmMzc0MjdmMy1hdHRyLTQta2V5IiBjbGFzcz0iZXIgZW50aXR5TGFiZWwiPkZLPC90ZXh0PjxyZWN0IGhlaWdodD0iMjIiIHdpZHRoPSI1OC42Njg3NTA3NjI5Mzk0NSIgeT0iMTEyIiB4PSIwIiBjbGFzcz0iZXIgYXR0cmlidXRlQm94T2RkIj48L3JlY3Q+PHRleHQgc3R5bGU9ImRvbWluYW50LWJhc2VsaW5lOiBtaWRkbGU7IGZvbnQtc2l6ZTogMTAuMnB4OyIgdHJhbnNmb3JtPSJ0cmFuc2xhdGUoNSwxMjMpIiB5PSIwIiB4PSIwIiBpZD0idGV4dC1lbnRpdHktQ09OVFJBQ1RTLWQzMjIzYzlhLWZjMTItNTE1NC1hODhhLWU5NGRmMzc0MjdmMy1hdHRyLTUtdHlwZSIgY2xhc3M9ImVyIGVudGl0eUxhYmVsIj5pbnQ8L3RleHQ+PHJlY3QgaGVpZ2h0PSIyMiIgd2lkdGg9IjczLjI4NzUwMjI4ODgxODM2IiB5PSIxMTIiIHg9IjU4LjY2ODc1MDc2MjkzOTQ1IiBjbGFzcz0iZXIgYXR0cmlidXRlQm94T2RkIj48L3JlY3Q+PHRleHQgc3R5bGU9ImRvbWluYW50LWJhc2VsaW5lOiBtaWRkbGU7IGZvbnQtc2l6ZTogMTAuMnB4OyIgdHJhbnNmb3JtPSJ0cmFuc2xhdGUoNjMuNjY4NzUwNzYyOTM5NDUsMTIzKSIgeT0iMCIgeD0iMCIgaWQ9InRleHQtZW50aXR5LUNPTlRSQUNUUy1kMzIyM2M5YS1mYzEyLTUxNTQtYTg4YS1lOTRkZjM3NDI3ZjMtYXR0ci01LW5hbWUiIGNsYXNzPSJlciBlbnRpdHlMYWJlbCI+ZnJlZWxhbmNlcl9pZDwvdGV4dD48cmVjdCBoZWlnaHQ9IjIyIiB3aWR0aD0iMjIuMDg3Njk1MTIxNzY1MTM3IiB5PSIxMTIiIHg9IjEzMS45NTYyNTMwNTE3NTc4IiBjbGFzcz0iZXIgYXR0cmlidXRlQm94T2RkIj48L3JlY3Q+PHRleHQgc3R5bGU9ImRvbWluYW50LWJhc2VsaW5lOiBtaWRkbGU7IGZvbnQtc2l6ZTogMTAuMnB4OyIgdHJhbnNmb3JtPSJ0cmFuc2xhdGUoMTM2Ljk1NjI1MzA1MTc1NzgsMTIzKSIgeT0iMCIgeD0iMCIgaWQ9InRleHQtZW50aXR5LUNPTlRSQUNUUy1kMzIyM2M5YS1mYzEyLTUxNTQtYTg4YS1lOTRkZjM3NDI3ZjMtYXR0ci01LWtleSIgY2xhc3M9ImVyIGVudGl0eUxhYmVsIj5GSzwvdGV4dD48cmVjdCBoZWlnaHQ9IjIyIiB3aWR0aD0iNTguNjY4NzUwNzYyOTM5NDUiIHk9IjEzNCIgeD0iMCIgY2xhc3M9ImVyIGF0dHJpYnV0ZUJveEV2ZW4iPjwvcmVjdD48dGV4dCBzdHlsZT0iZG9taW5hbnQtYmFzZWxpbmU6IG1pZGRsZTsgZm9udC1zaXplOiAxMC4ycHg7IiB0cmFuc2Zvcm09InRyYW5zbGF0ZSg1LDE0NSkiIHk9IjAiIHg9IjAiIGlkPSJ0ZXh0LWVudGl0eS1DT05UUkFDVFMtZDMyMjNjOWEtZmMxMi01MTU0LWE4OGEtZTk0ZGYzNzQyN2YzLWF0dHItNi10eXBlIiBjbGFzcz0iZXIgZW50aXR5TGFiZWwiPnN0cmluZzwvdGV4dD48cmVjdCBoZWlnaHQ9IjIyIiB3aWR0aD0iNzMuMjg3NTAyMjg4ODE4MzYiIHk9IjEzNCIgeD0iNTguNjY4NzUwNzYyOTM5NDUiIGNsYXNzPSJlciBhdHRyaWJ1dGVCb3hFdmVuIj48L3JlY3Q+PHRleHQgc3R5bGU9ImRvbWluYW50LWJhc2VsaW5lOiBtaWRkbGU7IGZvbnQtc2l6ZTogMTAuMnB4OyIgdHJhbnNmb3JtPSJ0cmFuc2xhdGUoNjMuNjY4NzUwNzYyOTM5NDUsMTQ1KSIgeT0iMCIgeD0iMCIgaWQ9InRleHQtZW50aXR5LUNPTlRSQUNUUy1kMzIyM2M5YS1mYzEyLTUxNTQtYTg4YS1lOTRkZjM3NDI3ZjMtYXR0ci02LW5hbWUiIGNsYXNzPSJlciBlbnRpdHlMYWJlbCI+dGl0bGU8L3RleHQ+PHJlY3QgaGVpZ2h0PSIyMiIgd2lkdGg9IjIyLjA4NzY5NTEyMTc2NTEzNyIgeT0iMTM0IiB4PSIxMzEuOTU2MjUzMDUxNzU3OCIgY2xhc3M9ImVyIGF0dHJpYnV0ZUJveEV2ZW4iPjwvcmVjdD48dGV4dCBzdHlsZT0iZG9taW5hbnQtYmFzZWxpbmU6IG1pZGRsZTsgZm9udC1zaXplOiAxMC4ycHg7IiB0cmFuc2Zvcm09InRyYW5zbGF0ZSgxMzYuOTU2MjUzMDUxNzU3OCwxNDUpIiB5PSIwIiB4PSIwIiBpZD0idGV4dC1lbnRpdHktQ09OVFJBQ1RTLWQzMjIzYzlhLWZjMTItNTE1NC1hODhhLWU5NGRmMzc0MjdmMy1hdHRyLTYta2V5IiBjbGFzcz0iZXIgZW50aXR5TGFiZWwiPjwvdGV4dD48cmVjdCBoZWlnaHQ9IjIyIiB3aWR0aD0iNTguNjY4NzUwNzYyOTM5NDUiIHk9IjE1NiIgeD0iMCIgY2xhc3M9ImVyIGF0dHJpYnV0ZUJveE9kZCI+PC9yZWN0Pjx0ZXh0IHN0eWxlPSJkb21pbmFudC1iYXNlbGluZTogbWlkZGxlOyBmb250LXNpemU6IDEwLjJweDsiIHRyYW5zZm9ybT0idHJhbnNsYXRlKDUsMTY3KSIgeT0iMCIgeD0iMCIgaWQ9InRleHQtZW50aXR5LUNPTlRSQUNUUy1kMzIyM2M5YS1mYzEyLTUxNTQtYTg4YS1lOTRkZjM3NDI3ZjMtYXR0ci03LXR5cGUiIGNsYXNzPSJlciBlbnRpdHlMYWJlbCI+dGV4dDwvdGV4dD48cmVjdCBoZWlnaHQ9IjIyIiB3aWR0aD0iNzMuMjg3NTAyMjg4ODE4MzYiIHk9IjE1NiIgeD0iNTguNjY4NzUwNzYyOTM5NDUiIGNsYXNzPSJlciBhdHRyaWJ1dGVCb3hPZGQiPjwvcmVjdD48dGV4dCBzdHlsZT0iZG9taW5hbnQtYmFzZWxpbmU6IG1pZGRsZTsgZm9udC1zaXplOiAxMC4ycHg7IiB0cmFuc2Zvcm09InRyYW5zbGF0ZSg2My42Njg3NTA3NjI5Mzk0NSwxNjcpIiB5PSIwIiB4PSIwIiBpZD0idGV4dC1lbnRpdHktQ09OVFJBQ1RTLWQzMjIzYzlhLWZjMTItNTE1NC1hODhhLWU5NGRmMzc0MjdmMy1hdHRyLTctbmFtZSIgY2xhc3M9ImVyIGVudGl0eUxhYmVsIj5kZXNjcmlwdGlvbjwvdGV4dD48cmVjdCBoZWlnaHQ9IjIyIiB3aWR0aD0iMjIuMDg3Njk1MTIxNzY1MTM3IiB5PSIxNTYiIHg9IjEzMS45NTYyNTMwNTE3NTc4IiBjbGFzcz0iZXIgYXR0cmlidXRlQm94T2RkIj48L3JlY3Q+PHRleHQgc3R5bGU9ImRvbWluYW50LWJhc2VsaW5lOiBtaWRkbGU7IGZvbnQtc2l6ZTogMTAuMnB4OyIgdHJhbnNmb3JtPSJ0cmFuc2xhdGUoMTM2Ljk1NjI1MzA1MTc1NzgsMTY3KSIgeT0iMCIgeD0iMCIgaWQ9InRleHQtZW50aXR5LUNPTlRSQUNUUy1kMzIyM2M5YS1mYzEyLTUxNTQtYTg4YS1lOTRkZjM3NDI3ZjMtYXR0ci03LWtleSIgY2xhc3M9ImVyIGVudGl0eUxhYmVsIj48L3RleHQ+PHJlY3QgaGVpZ2h0PSIyMiIgd2lkdGg9IjU4LjY2ODc1MDc2MjkzOTQ1IiB5PSIxNzgiIHg9IjAiIGNsYXNzPSJlciBhdHRyaWJ1dGVCb3hFdmVuIj48L3JlY3Q+PHRleHQgc3R5bGU9ImRvbWluYW50LWJhc2VsaW5lOiBtaWRkbGU7IGZvbnQtc2l6ZTogMTAuMnB4OyIgdHJhbnNmb3JtPSJ0cmFuc2xhdGUoNSwxODkpIiB5PSIwIiB4PSIwIiBpZD0idGV4dC1lbnRpdHktQ09OVFJBQ1RTLWQzMjIzYzlhLWZjMTItNTE1NC1hODhhLWU5NGRmMzc0MjdmMy1hdHRyLTgtdHlwZSIgY2xhc3M9ImVyIGVudGl0eUxhYmVsIj5kZWNpbWFsPC90ZXh0PjxyZWN0IGhlaWdodD0iMjIiIHdpZHRoPSI3My4yODc1MDIyODg4MTgzNiIgeT0iMTc4IiB4PSI1OC42Njg3NTA3NjI5Mzk0NSIgY2xhc3M9ImVyIGF0dHJpYnV0ZUJveEV2ZW4iPjwvcmVjdD48dGV4dCBzdHlsZT0iZG9taW5hbnQtYmFzZWxpbmU6IG1pZGRsZTsgZm9udC1zaXplOiAxMC4ycHg7IiB0cmFuc2Zvcm09InRyYW5zbGF0ZSg2My42Njg3NTA3NjI5Mzk0NSwxODkpIiB5PSIwIiB4PSIwIiBpZD0idGV4dC1lbnRpdHktQ09OVFJBQ1RTLWQzMjIzYzlhLWZjMTItNTE1NC1hODhhLWU5NGRmMzc0MjdmMy1hdHRyLTgtbmFtZSIgY2xhc3M9ImVyIGVudGl0eUxhYmVsIj5hbW91bnQ8L3RleHQ+PHJlY3QgaGVpZ2h0PSIyMiIgd2lkdGg9IjIyLjA4NzY5NTEyMTc2NTEzNyIgeT0iMTc4IiB4PSIxMzEuOTU2MjUzMDUxNzU3OCIgY2xhc3M9ImVyIGF0dHJpYnV0ZUJveEV2ZW4iPjwvcmVjdD48dGV4dCBzdHlsZT0iZG9taW5hbnQtYmFzZWxpbmU6IG1pZGRsZTsgZm9udC1zaXplOiAxMC4ycHg7IiB0cmFuc2Zvcm09InRyYW5zbGF0ZSgxMzYuOTU2MjUzMDUxNzU3OCwxODkpIiB5PSIwIiB4PSIwIiBpZD0idGV4dC1lbnRpdHktQ09OVFJBQ1RTLWQzMjIzYzlhLWZjMTItNTE1NC1hODhhLWU5NGRmMzc0MjdmMy1hdHRyLTgta2V5IiBjbGFzcz0iZXIgZW50aXR5TGFiZWwiPjwvdGV4dD48cmVjdCBoZWlnaHQ9IjIyIiB3aWR0aD0iNTguNjY4NzUwNzYyOTM5NDUiIHk9IjIwMCIgeD0iMCIgY2xhc3M9ImVyIGF0dHJpYnV0ZUJveE9kZCI+PC9yZWN0Pjx0ZXh0IHN0eWxlPSJkb21pbmFudC1iYXNlbGluZTogbWlkZGxlOyBmb250LXNpemU6IDEwLjJweDsiIHRyYW5zZm9ybT0idHJhbnNsYXRlKDUsMjExKSIgeT0iMCIgeD0iMCIgaWQ9InRleHQtZW50aXR5LUNPTlRSQUNUUy1kMzIyM2M5YS1mYzEyLTUxNTQtYTg4YS1lOTRkZjM3NDI3ZjMtYXR0ci05LXR5cGUiIGNsYXNzPSJlciBlbnRpdHlMYWJlbCI+ZGF0ZTwvdGV4dD48cmVjdCBoZWlnaHQ9IjIyIiB3aWR0aD0iNzMuMjg3NTAyMjg4ODE4MzYiIHk9IjIwMCIgeD0iNTguNjY4NzUwNzYyOTM5NDUiIGNsYXNzPSJlciBhdHRyaWJ1dGVCb3hPZGQiPjwvcmVjdD48dGV4dCBzdHlsZT0iZG9taW5hbnQtYmFzZWxpbmU6IG1pZGRsZTsgZm9udC1zaXplOiAxMC4ycHg7IiB0cmFuc2Zvcm09InRyYW5zbGF0ZSg2My42Njg3NTA3NjI5Mzk0NSwyMTEpIiB5PSIwIiB4PSIwIiBpZD0idGV4dC1lbnRpdHktQ09OVFJBQ1RTLWQzMjIzYzlhLWZjMTItNTE1NC1hODhhLWU5NGRmMzc0MjdmMy1hdHRyLTktbmFtZSIgY2xhc3M9ImVyIGVudGl0eUxhYmVsIj5zdGFydF9kYXRlPC90ZXh0PjxyZWN0IGhlaWdodD0iMjIiIHdpZHRoPSIyMi4wODc2OTUxMjE3NjUxMzciIHk9IjIwMCIgeD0iMTMxLjk1NjI1MzA1MTc1NzgiIGNsYXNzPSJlciBhdHRyaWJ1dGVCb3hPZGQiPjwvcmVjdD48dGV4dCBzdHlsZT0iZG9taW5hbnQtYmFzZWxpbmU6IG1pZGRsZTsgZm9udC1zaXplOiAxMC4ycHg7IiB0cmFuc2Zvcm09InRyYW5zbGF0ZSgxMzYuOTU2MjUzMDUxNzU3OCwyMTEpIiB5PSIwIiB4PSIwIiBpZD0idGV4dC1lbnRpdHktQ09OVFJBQ1RTLWQzMjIzYzlhLWZjMTItNTE1NC1hODhhLWU5NGRmMzc0MjdmMy1hdHRyLTkta2V5IiBjbGFzcz0iZXIgZW50aXR5TGFiZWwiPjwvdGV4dD48cmVjdCBoZWlnaHQ9IjIyIiB3aWR0aD0iNTguNjY4NzUwNzYyOTM5NDUiIHk9IjIyMiIgeD0iMCIgY2xhc3M9ImVyIGF0dHJpYnV0ZUJveEV2ZW4iPjwvcmVjdD48dGV4dCBzdHlsZT0iZG9taW5hbnQtYmFzZWxpbmU6IG1pZGRsZTsgZm9udC1zaXplOiAxMC4ycHg7IiB0cmFuc2Zvcm09InRyYW5zbGF0ZSg1LDIzMykiIHk9IjAiIHg9IjAiIGlkPSJ0ZXh0LWVudGl0eS1DT05UUkFDVFMtZDMyMjNjOWEtZmMxMi01MTU0LWE4OGEtZTk0ZGYzNzQyN2YzLWF0dHItMTAtdHlwZSIgY2xhc3M9ImVyIGVudGl0eUxhYmVsIj5kYXRlPC90ZXh0PjxyZWN0IGhlaWdodD0iMjIiIHdpZHRoPSI3My4yODc1MDIyODg4MTgzNiIgeT0iMjIyIiB4PSI1OC42Njg3NTA3NjI5Mzk0NSIgY2xhc3M9ImVyIGF0dHJpYnV0ZUJveEV2ZW4iPjwvcmVjdD48dGV4dCBzdHlsZT0iZG9taW5hbnQtYmFzZWxpbmU6IG1pZGRsZTsgZm9udC1zaXplOiAxMC4ycHg7IiB0cmFuc2Zvcm09InRyYW5zbGF0ZSg2My42Njg3NTA3NjI5Mzk0NSwyMzMpIiB5PSIwIiB4PSIwIiBpZD0idGV4dC1lbnRpdHktQ09OVFJBQ1RTLWQzMjIzYzlhLWZjMTItNTE1NC1hODhhLWU5NGRmMzc0MjdmMy1hdHRyLTEwLW5hbWUiIGNsYXNzPSJlciBlbnRpdHlMYWJlbCI+ZW5kX2RhdGU8L3RleHQ+PHJlY3QgaGVpZ2h0PSIyMiIgd2lkdGg9IjIyLjA4NzY5NTEyMTc2NTEzNyIgeT0iMjIyIiB4PSIxMzEuOTU2MjUzMDUxNzU3OCIgY2xhc3M9ImVyIGF0dHJpYnV0ZUJveEV2ZW4iPjwvcmVjdD48dGV4dCBzdHlsZT0iZG9taW5hbnQtYmFzZWxpbmU6IG1pZGRsZTsgZm9udC1zaXplOiAxMC4ycHg7IiB0cmFuc2Zvcm09InRyYW5zbGF0ZSgxMzYuOTU2MjUzMDUxNzU3OCwyMzMpIiB5PSIwIiB4PSIwIiBpZD0idGV4dC1lbnRpdHktQ09OVFJBQ1RTLWQzMjIzYzlhLWZjMTItNTE1NC1hODhhLWU5NGRmMzc0MjdmMy1hdHRyLTEwLWtleSIgY2xhc3M9ImVyIGVudGl0eUxhYmVsIj48L3RleHQ+PHJlY3QgaGVpZ2h0PSIyMiIgd2lkdGg9IjU4LjY2ODc1MDc2MjkzOTQ1IiB5PSIyNDQiIHg9IjAiIGNsYXNzPSJlciBhdHRyaWJ1dGVCb3hPZGQiPjwvcmVjdD48dGV4dCBzdHlsZT0iZG9taW5hbnQtYmFzZWxpbmU6IG1pZGRsZTsgZm9udC1zaXplOiAxMC4ycHg7IiB0cmFuc2Zvcm09InRyYW5zbGF0ZSg1LDI1NSkiIHk9IjAiIHg9IjAiIGlkPSJ0ZXh0LWVudGl0eS1DT05UUkFDVFMtZDMyMjNjOWEtZmMxMi01MTU0LWE4OGEtZTk0ZGYzNzQyN2YzLWF0dHItMTEtdHlwZSIgY2xhc3M9ImVyIGVudGl0eUxhYmVsIj5lbnVtPC90ZXh0PjxyZWN0IGhlaWdodD0iMjIiIHdpZHRoPSI3My4yODc1MDIyODg4MTgzNiIgeT0iMjQ0IiB4PSI1OC42Njg3NTA3NjI5Mzk0NSIgY2xhc3M9ImVyIGF0dHJpYnV0ZUJveE9kZCI+PC9yZWN0Pjx0ZXh0IHN0eWxlPSJkb21pbmFudC1iYXNlbGluZTogbWlkZGxlOyBmb250LXNpemU6IDEwLjJweDsiIHRyYW5zZm9ybT0idHJhbnNsYXRlKDYzLjY2ODc1MDc2MjkzOTQ1LDI1NSkiIHk9IjAiIHg9IjAiIGlkPSJ0ZXh0LWVudGl0eS1DT05UUkFDVFMtZDMyMjNjOWEtZmMxMi01MTU0LWE4OGEtZTk0ZGYzNzQyN2YzLWF0dHItMTEtbmFtZSIgY2xhc3M9ImVyIGVudGl0eUxhYmVsIj5zdGF0dXM8L3RleHQ+PHJlY3QgaGVpZ2h0PSIyMiIgd2lkdGg9IjIyLjA4NzY5NTEyMTc2NTEzNyIgeT0iMjQ0IiB4PSIxMzEuOTU2MjUzMDUxNzU3OCIgY2xhc3M9ImVyIGF0dHJpYnV0ZUJveE9kZCI+PC9yZWN0Pjx0ZXh0IHN0eWxlPSJkb21pbmFudC1iYXNlbGluZTogbWlkZGxlOyBmb250LXNpemU6IDEwLjJweDsiIHRyYW5zZm9ybT0idHJhbnNsYXRlKDEzNi45NTYyNTMwNTE3NTc4LDI1NSkiIHk9IjAiIHg9IjAiIGlkPSJ0ZXh0LWVudGl0eS1DT05UUkFDVFMtZDMyMjNjOWEtZmMxMi01MTU0LWE4OGEtZTk0ZGYzNzQyN2YzLWF0dHItMTEta2V5IiBjbGFzcz0iZXIgZW50aXR5TGFiZWwiPjwvdGV4dD48cmVjdCBoZWlnaHQ9IjIyIiB3aWR0aD0iNTguNjY4NzUwNzYyOTM5NDUiIHk9IjI2NiIgeD0iMCIgY2xhc3M9ImVyIGF0dHJpYnV0ZUJveEV2ZW4iPjwvcmVjdD48dGV4dCBzdHlsZT0iZG9taW5hbnQtYmFzZWxpbmU6IG1pZGRsZTsgZm9udC1zaXplOiAxMC4ycHg7IiB0cmFuc2Zvcm09InRyYW5zbGF0ZSg1LDI3NykiIHk9IjAiIHg9IjAiIGlkPSJ0ZXh0LWVudGl0eS1DT05UUkFDVFMtZDMyMjNjOWEtZmMxMi01MTU0LWE4OGEtZTk0ZGYzNzQyN2YzLWF0dHItMTItdHlwZSIgY2xhc3M9ImVyIGVudGl0eUxhYmVsIj50aW1lc3RhbXA8L3RleHQ+PHJlY3QgaGVpZ2h0PSIyMiIgd2lkdGg9IjczLjI4NzUwMjI4ODgxODM2IiB5PSIyNjYiIHg9IjU4LjY2ODc1MDc2MjkzOTQ1IiBjbGFzcz0iZXIgYXR0cmlidXRlQm94RXZlbiI+PC9yZWN0Pjx0ZXh0IHN0eWxlPSJkb21pbmFudC1iYXNlbGluZTogbWlkZGxlOyBmb250LXNpemU6IDEwLjJweDsiIHRyYW5zZm9ybT0idHJhbnNsYXRlKDYzLjY2ODc1MDc2MjkzOTQ1LDI3NykiIHk9IjAiIHg9IjAiIGlkPSJ0ZXh0LWVudGl0eS1DT05UUkFDVFMtZDMyMjNjOWEtZmMxMi01MTU0LWE4OGEtZTk0ZGYzNzQyN2YzLWF0dHItMTItbmFtZSIgY2xhc3M9ImVyIGVudGl0eUxhYmVsIj5jcmVhdGVkX2F0PC90ZXh0PjxyZWN0IGhlaWdodD0iMjIiIHdpZHRoPSIyMi4wODc2OTUxMjE3NjUxMzciIHk9IjI2NiIgeD0iMTMxLjk1NjI1MzA1MTc1NzgiIGNsYXNzPSJlciBhdHRyaWJ1dGVCb3hFdmVuIj48L3JlY3Q+PHRleHQgc3R5bGU9ImRvbWluYW50LWJhc2VsaW5lOiBtaWRkbGU7IGZvbnQtc2l6ZTogMTAuMnB4OyIgdHJhbnNmb3JtPSJ0cmFuc2xhdGUoMTM2Ljk1NjI1MzA1MTc1NzgsMjc3KSIgeT0iMCIgeD0iMCIgaWQ9InRleHQtZW50aXR5LUNPTlRSQUNUUy1kMzIyM2M5YS1mYzEyLTUxNTQtYTg4YS1lOTRkZjM3NDI3ZjMtYXR0ci0xMi1rZXkiIGNsYXNzPSJlciBlbnRpdHlMYWJlbCI+PC90ZXh0PjxyZWN0IGhlaWdodD0iMjIiIHdpZHRoPSI1OC42Njg3NTA3NjI5Mzk0NSIgeT0iMjg4IiB4PSIwIiBjbGFzcz0iZXIgYXR0cmlidXRlQm94T2RkIj48L3JlY3Q+PHRleHQgc3R5bGU9ImRvbWluYW50LWJhc2VsaW5lOiBtaWRkbGU7IGZvbnQtc2l6ZTogMTAuMnB4OyIgdHJhbnNmb3JtPSJ0cmFuc2xhdGUoNSwyOTkpIiB5PSIwIiB4PSIwIiBpZD0idGV4dC1lbnRpdHktQ09OVFJBQ1RTLWQzMjIzYzlhLWZjMTItNTE1NC1hODhhLWU5NGRmMzc0MjdmMy1hdHRyLTEzLXR5cGUiIGNsYXNzPSJlciBlbnRpdHlMYWJlbCI+dGltZXN0YW1wPC90ZXh0PjxyZWN0IGhlaWdodD0iMjIiIHdpZHRoPSI3My4yODc1MDIyODg4MTgzNiIgeT0iMjg4IiB4PSI1OC42Njg3NTA3NjI5Mzk0NSIgY2xhc3M9ImVyIGF0dHJpYnV0ZUJveE9kZCI+PC9yZWN0Pjx0ZXh0IHN0eWxlPSJkb21pbmFudC1iYXNlbGluZTogbWlkZGxlOyBmb250LXNpemU6IDEwLjJweDsiIHRyYW5zZm9ybT0idHJhbnNsYXRlKDYzLjY2ODc1MDc2MjkzOTQ1LDI5OSkiIHk9IjAiIHg9IjAiIGlkPSJ0ZXh0LWVudGl0eS1DT05UUkFDVFMtZDMyMjNjOWEtZmMxMi01MTU0LWE4OGEtZTk0ZGYzNzQyN2YzLWF0dHItMTMtbmFtZSIgY2xhc3M9ImVyIGVudGl0eUxhYmVsIj51cGRhdGVkX2F0PC90ZXh0PjxyZWN0IGhlaWdodD0iMjIiIHdpZHRoPSIyMi4wODc2OTUxMjE3NjUxMzciIHk9IjI4OCIgeD0iMTMxLjk1NjI1MzA1MTc1NzgiIGNsYXNzPSJlciBhdHRyaWJ1dGVCb3hPZGQiPjwvcmVjdD48dGV4dCBzdHlsZT0iZG9taW5hbnQtYmFzZWxpbmU6IG1pZGRsZTsgZm9udC1zaXplOiAxMC4ycHg7IiB0cmFuc2Zvcm09InRyYW5zbGF0ZSgxMzYuOTU2MjUzMDUxNzU3OCwyOTkpIiB5PSIwIiB4PSIwIiBpZD0idGV4dC1lbnRpdHktQ09OVFJBQ1RTLWQzMjIzYzlhLWZjMTItNTE1NC1hODhhLWU5NGRmMzc0MjdmMy1hdHRyLTEzLWtleSIgY2xhc3M9ImVyIGVudGl0eUxhYmVsIj48L3RleHQ+PHJlY3QgaGVpZ2h0PSIyMiIgd2lkdGg9IjU4LjY2ODc1MDc2MjkzOTQ1IiB5PSIzMTAiIHg9IjAiIGNsYXNzPSJlciBhdHRyaWJ1dGVCb3hFdmVuIj48L3JlY3Q+PHRleHQgc3R5bGU9ImRvbWluYW50LWJhc2VsaW5lOiBtaWRkbGU7IGZvbnQtc2l6ZTogMTAuMnB4OyIgdHJhbnNmb3JtPSJ0cmFuc2xhdGUoNSwzMjEpIiB5PSIwIiB4PSIwIiBpZD0idGV4dC1lbnRpdHktQ09OVFJBQ1RTLWQzMjIzYzlhLWZjMTItNTE1NC1hODhhLWU5NGRmMzc0MjdmMy1hdHRyLTE0LXR5cGUiIGNsYXNzPSJlciBlbnRpdHlMYWJlbCI+dGltZXN0YW1wPC90ZXh0PjxyZWN0IGhlaWdodD0iMjIiIHdpZHRoPSI3My4yODc1MDIyODg4MTgzNiIgeT0iMzEwIiB4PSI1OC42Njg3NTA3NjI5Mzk0NSIgY2xhc3M9ImVyIGF0dHJpYnV0ZUJveEV2ZW4iPjwvcmVjdD48dGV4dCBzdHlsZT0iZG9taW5hbnQtYmFzZWxpbmU6IG1pZGRsZTsgZm9udC1zaXplOiAxMC4ycHg7IiB0cmFuc2Zvcm09InRyYW5zbGF0ZSg2My42Njg3NTA3NjI5Mzk0NSwzMjEpIiB5PSIwIiB4PSIwIiBpZD0idGV4dC1lbnRpdHktQ09OVFJBQ1RTLWQzMjIzYzlhLWZjMTItNTE1NC1hODhhLWU5NGRmMzc0MjdmMy1hdHRyLTE0LW5hbWUiIGNsYXNzPSJlciBlbnRpdHlMYWJlbCI+Y29tcGxldGVkX2F0PC90ZXh0PjxyZWN0IGhlaWdodD0iMjIiIHdpZHRoPSIyMi4wODc2OTUxMjE3NjUxMzciIHk9IjMxMCIgeD0iMTMxLjk1NjI1MzA1MTc1NzgiIGNsYXNzPSJlciBhdHRyaWJ1dGVCb3hFdmVuIj48L3JlY3Q+PHRleHQgc3R5bGU9ImRvbWluYW50LWJhc2VsaW5lOiBtaWRkbGU7IGZvbnQtc2l6ZTogMTAuMnB4OyIgdHJhbnNmb3JtPSJ0cmFuc2xhdGUoMTM2Ljk1NjI1MzA1MTc1NzgsMzIxKSIgeT0iMCIgeD0iMCIgaWQ9InRleHQtZW50aXR5LUNPTlRSQUNUUy1kMzIyM2M5YS1mYzEyLTUxNTQtYTg4YS1lOTRkZjM3NDI3ZjMtYXR0ci0xNC1rZXkiIGNsYXNzPSJlciBlbnRpdHlMYWJlbCI+PC90ZXh0PjwvZz48ZyB0cmFuc2Zvcm09InRyYW5zbGF0ZSgxMTI2LjQ2NDU1NzY0NzcwNSwxNDYyICkiIGlkPSJlbnRpdHktUkVWSUVXUy04NmI5MGZiZi1mN2I2LTU5ZGYtOTM2NC1iZjliZmUwNWNhNTciPjxyZWN0IGhlaWdodD0iMTc4IiB3aWR0aD0iMTQ2LjQxMjY5NTg4NDcwNDYiIHk9IjAiIHg9IjAiIGNsYXNzPSJlciBlbnRpdHlCb3giPjwvcmVjdD48dGV4dCBzdHlsZT0iZG9taW5hbnQtYmFzZWxpbmU6IG1pZGRsZTsgdGV4dC1hbmNob3I6IG1pZGRsZTsgZm9udC1zaXplOiAxMnB4OyIgdHJhbnNmb3JtPSJ0cmFuc2xhdGUoNzMuMjA2MzQ3OTQyMzUyMywxMikiIHk9IjAiIHg9IjAiIGlkPSJ0ZXh0LWVudGl0eS1SRVZJRVdTLTg2YjkwZmJmLWY3YjYtNTlkZi05MzY0LWJmOWJmZTA1Y2E1NyIgY2xhc3M9ImVyIGVudGl0eUxhYmVsIj5SRVZJRVdTPC90ZXh0PjxyZWN0IGhlaWdodD0iMjIiIHdpZHRoPSI1OC42Njg3NTA3NjI5Mzk0NSIgeT0iMjQiIHg9IjAiIGNsYXNzPSJlciBhdHRyaWJ1dGVCb3hPZGQiPjwvcmVjdD48dGV4dCBzdHlsZT0iZG9taW5hbnQtYmFzZWxpbmU6IG1pZGRsZTsgZm9udC1zaXplOiAxMC4ycHg7IiB0cmFuc2Zvcm09InRyYW5zbGF0ZSg1LDM1KSIgeT0iMCIgeD0iMCIgaWQ9InRleHQtZW50aXR5LVJFVklFV1MtODZiOTBmYmYtZjdiNi01OWRmLTkzNjQtYmY5YmZlMDVjYTU3LWF0dHItMS10eXBlIiBjbGFzcz0iZXIgZW50aXR5TGFiZWwiPmludDwvdGV4dD48cmVjdCBoZWlnaHQ9IjIyIiB3aWR0aD0iNjUuNjU2MjUiIHk9IjI0IiB4PSI1OC42Njg3NTA3NjI5Mzk0NSIgY2xhc3M9ImVyIGF0dHJpYnV0ZUJveE9kZCI+PC9yZWN0Pjx0ZXh0IHN0eWxlPSJkb21pbmFudC1iYXNlbGluZTogbWlkZGxlOyBmb250LXNpemU6IDEwLjJweDsiIHRyYW5zZm9ybT0idHJhbnNsYXRlKDYzLjY2ODc1MDc2MjkzOTQ1LDM1KSIgeT0iMCIgeD0iMCIgaWQ9InRleHQtZW50aXR5LVJFVklFV1MtODZiOTBmYmYtZjdiNi01OWRmLTkzNjQtYmY5YmZlMDVjYTU3LWF0dHItMS1uYW1lIiBjbGFzcz0iZXIgZW50aXR5TGFiZWwiPmlkPC90ZXh0PjxyZWN0IGhlaWdodD0iMjIiIHdpZHRoPSIyMi4wODc2OTUxMjE3NjUxMzciIHk9IjI0IiB4PSIxMjQuMzI1MDAwNzYyOTM5NDUiIGNsYXNzPSJlciBhdHRyaWJ1dGVCb3hPZGQiPjwvcmVjdD48dGV4dCBzdHlsZT0iZG9taW5hbnQtYmFzZWxpbmU6IG1pZGRsZTsgZm9udC1zaXplOiAxMC4ycHg7IiB0cmFuc2Zvcm09InRyYW5zbGF0ZSgxMjkuMzI1MDAwNzYyOTM5NDUsMzUpIiB5PSIwIiB4PSIwIiBpZD0idGV4dC1lbnRpdHktUkVWSUVXUy04NmI5MGZiZi1mN2I2LTU5ZGYtOTM2NC1iZjliZmUwNWNhNTctYXR0ci0xLWtleSIgY2xhc3M9ImVyIGVudGl0eUxhYmVsIj5QSzwvdGV4dD48cmVjdCBoZWlnaHQ9IjIyIiB3aWR0aD0iNTguNjY4NzUwNzYyOTM5NDUiIHk9IjQ2IiB4PSIwIiBjbGFzcz0iZXIgYXR0cmlidXRlQm94RXZlbiI+PC9yZWN0Pjx0ZXh0IHN0eWxlPSJkb21pbmFudC1iYXNlbGluZTogbWlkZGxlOyBmb250LXNpemU6IDEwLjJweDsiIHRyYW5zZm9ybT0idHJhbnNsYXRlKDUsNTcpIiB5PSIwIiB4PSIwIiBpZD0idGV4dC1lbnRpdHktUkVWSUVXUy04NmI5MGZiZi1mN2I2LTU5ZGYtOTM2NC1iZjliZmUwNWNhNTctYXR0ci0yLXR5cGUiIGNsYXNzPSJlciBlbnRpdHlMYWJlbCI+aW50PC90ZXh0PjxyZWN0IGhlaWdodD0iMjIiIHdpZHRoPSI2NS42NTYyNSIgeT0iNDYiIHg9IjU4LjY2ODc1MDc2MjkzOTQ1IiBjbGFzcz0iZXIgYXR0cmlidXRlQm94RXZlbiI+PC9yZWN0Pjx0ZXh0IHN0eWxlPSJkb21pbmFudC1iYXNlbGluZTogbWlkZGxlOyBmb250LXNpemU6IDEwLjJweDsiIHRyYW5zZm9ybT0idHJhbnNsYXRlKDYzLjY2ODc1MDc2MjkzOTQ1LDU3KSIgeT0iMCIgeD0iMCIgaWQ9InRleHQtZW50aXR5LVJFVklFV1MtODZiOTBmYmYtZjdiNi01OWRmLTkzNjQtYmY5YmZlMDVjYTU3LWF0dHItMi1uYW1lIiBjbGFzcz0iZXIgZW50aXR5TGFiZWwiPmNvbnRyYWN0X2lkPC90ZXh0PjxyZWN0IGhlaWdodD0iMjIiIHdpZHRoPSIyMi4wODc2OTUxMjE3NjUxMzciIHk9IjQ2IiB4PSIxMjQuMzI1MDAwNzYyOTM5NDUiIGNsYXNzPSJlciBhdHRyaWJ1dGVCb3hFdmVuIj48L3JlY3Q+PHRleHQgc3R5bGU9ImRvbWluYW50LWJhc2VsaW5lOiBtaWRkbGU7IGZvbnQtc2l6ZTogMTAuMnB4OyIgdHJhbnNmb3JtPSJ0cmFuc2xhdGUoMTI5LjMyNTAwMDc2MjkzOTQ1LDU3KSIgeT0iMCIgeD0iMCIgaWQ9InRleHQtZW50aXR5LVJFVklFV1MtODZiOTBmYmYtZjdiNi01OWRmLTkzNjQtYmY5YmZlMDVjYTU3LWF0dHItMi1rZXkiIGNsYXNzPSJlciBlbnRpdHlMYWJlbCI+Rks8L3RleHQ+PHJlY3QgaGVpZ2h0PSIyMiIgd2lkdGg9IjU4LjY2ODc1MDc2MjkzOTQ1IiB5PSI2OCIgeD0iMCIgY2xhc3M9ImVyIGF0dHJpYnV0ZUJveE9kZCI+PC9yZWN0Pjx0ZXh0IHN0eWxlPSJkb21pbmFudC1iYXNlbGluZTogbWlkZGxlOyBmb250LXNpemU6IDEwLjJweDsiIHRyYW5zZm9ybT0idHJhbnNsYXRlKDUsNzkpIiB5PSIwIiB4PSIwIiBpZD0idGV4dC1lbnRpdHktUkVWSUVXUy04NmI5MGZiZi1mN2I2LTU5ZGYtOTM2NC1iZjliZmUwNWNhNTctYXR0ci0zLXR5cGUiIGNsYXNzPSJlciBlbnRpdHlMYWJlbCI+aW50PC90ZXh0PjxyZWN0IGhlaWdodD0iMjIiIHdpZHRoPSI2NS42NTYyNSIgeT0iNjgiIHg9IjU4LjY2ODc1MDc2MjkzOTQ1IiBjbGFzcz0iZXIgYXR0cmlidXRlQm94T2RkIj48L3JlY3Q+PHRleHQgc3R5bGU9ImRvbWluYW50LWJhc2VsaW5lOiBtaWRkbGU7IGZvbnQtc2l6ZTogMTAuMnB4OyIgdHJhbnNmb3JtPSJ0cmFuc2xhdGUoNjMuNjY4NzUwNzYyOTM5NDUsNzkpIiB5PSIwIiB4PSIwIiBpZD0idGV4dC1lbnRpdHktUkVWSUVXUy04NmI5MGZiZi1mN2I2LTU5ZGYtOTM2NC1iZjliZmUwNWNhNTctYXR0ci0zLW5hbWUiIGNsYXNzPSJlciBlbnRpdHlMYWJlbCI+cmV2aWV3ZXJfaWQ8L3RleHQ+PHJlY3QgaGVpZ2h0PSIyMiIgd2lkdGg9IjIyLjA4NzY5NTEyMTc2NTEzNyIgeT0iNjgiIHg9IjEyNC4zMjUwMDA3NjI5Mzk0NSIgY2xhc3M9ImVyIGF0dHJpYnV0ZUJveE9kZCI+PC9yZWN0Pjx0ZXh0IHN0eWxlPSJkb21pbmFudC1iYXNlbGluZTogbWlkZGxlOyBmb250LXNpemU6IDEwLjJweDsiIHRyYW5zZm9ybT0idHJhbnNsYXRlKDEyOS4zMjUwMDA3NjI5Mzk0NSw3OSkiIHk9IjAiIHg9IjAiIGlkPSJ0ZXh0LWVudGl0eS1SRVZJRVdTLTg2YjkwZmJmLWY3YjYtNTlkZi05MzY0LWJmOWJmZTA1Y2E1Ny1hdHRyLTMta2V5IiBjbGFzcz0iZXIgZW50aXR5TGFiZWwiPkZLPC90ZXh0PjxyZWN0IGhlaWdodD0iMjIiIHdpZHRoPSI1OC42Njg3NTA3NjI5Mzk0NSIgeT0iOTAiIHg9IjAiIGNsYXNzPSJlciBhdHRyaWJ1dGVCb3hFdmVuIj48L3JlY3Q+PHRleHQgc3R5bGU9ImRvbWluYW50LWJhc2VsaW5lOiBtaWRkbGU7IGZvbnQtc2l6ZTogMTAuMnB4OyIgdHJhbnNmb3JtPSJ0cmFuc2xhdGUoNSwxMDEpIiB5PSIwIiB4PSIwIiBpZD0idGV4dC1lbnRpdHktUkVWSUVXUy04NmI5MGZiZi1mN2I2LTU5ZGYtOTM2NC1iZjliZmUwNWNhNTctYXR0ci00LXR5cGUiIGNsYXNzPSJlciBlbnRpdHlMYWJlbCI+aW50PC90ZXh0PjxyZWN0IGhlaWdodD0iMjIiIHdpZHRoPSI2NS42NTYyNSIgeT0iOTAiIHg9IjU4LjY2ODc1MDc2MjkzOTQ1IiBjbGFzcz0iZXIgYXR0cmlidXRlQm94RXZlbiI+PC9yZWN0Pjx0ZXh0IHN0eWxlPSJkb21pbmFudC1iYXNlbGluZTogbWlkZGxlOyBmb250LXNpemU6IDEwLjJweDsiIHRyYW5zZm9ybT0idHJhbnNsYXRlKDYzLjY2ODc1MDc2MjkzOTQ1LDEwMSkiIHk9IjAiIHg9IjAiIGlkPSJ0ZXh0LWVudGl0eS1SRVZJRVdTLTg2YjkwZmJmLWY3YjYtNTlkZi05MzY0LWJmOWJmZTA1Y2E1Ny1hdHRyLTQtbmFtZSIgY2xhc3M9ImVyIGVudGl0eUxhYmVsIj5yZXZpZXdlZV9pZDwvdGV4dD48cmVjdCBoZWlnaHQ9IjIyIiB3aWR0aD0iMjIuMDg3Njk1MTIxNzY1MTM3IiB5PSI5MCIgeD0iMTI0LjMyNTAwMDc2MjkzOTQ1IiBjbGFzcz0iZXIgYXR0cmlidXRlQm94RXZlbiI+PC9yZWN0Pjx0ZXh0IHN0eWxlPSJkb21pbmFudC1iYXNlbGluZTogbWlkZGxlOyBmb250LXNpemU6IDEwLjJweDsiIHRyYW5zZm9ybT0idHJhbnNsYXRlKDEyOS4zMjUwMDA3NjI5Mzk0NSwxMDEpIiB5PSIwIiB4PSIwIiBpZD0idGV4dC1lbnRpdHktUkVWSUVXUy04NmI5MGZiZi1mN2I2LTU5ZGYtOTM2NC1iZjliZmUwNWNhNTctYXR0ci00LWtleSIgY2xhc3M9ImVyIGVudGl0eUxhYmVsIj5GSzwvdGV4dD48cmVjdCBoZWlnaHQ9IjIyIiB3aWR0aD0iNTguNjY4NzUwNzYyOTM5NDUiIHk9IjExMiIgeD0iMCIgY2xhc3M9ImVyIGF0dHJpYnV0ZUJveE9kZCI+PC9yZWN0Pjx0ZXh0IHN0eWxlPSJkb21pbmFudC1iYXNlbGluZTogbWlkZGxlOyBmb250LXNpemU6IDEwLjJweDsiIHRyYW5zZm9ybT0idHJhbnNsYXRlKDUsMTIzKSIgeT0iMCIgeD0iMCIgaWQ9InRleHQtZW50aXR5LVJFVklFV1MtODZiOTBmYmYtZjdiNi01OWRmLTkzNjQtYmY5YmZlMDVjYTU3LWF0dHItNS10eXBlIiBjbGFzcz0iZXIgZW50aXR5TGFiZWwiPmludDwvdGV4dD48cmVjdCBoZWlnaHQ9IjIyIiB3aWR0aD0iNjUuNjU2MjUiIHk9IjExMiIgeD0iNTguNjY4NzUwNzYyOTM5NDUiIGNsYXNzPSJlciBhdHRyaWJ1dGVCb3hPZGQiPjwvcmVjdD48dGV4dCBzdHlsZT0iZG9taW5hbnQtYmFzZWxpbmU6IG1pZGRsZTsgZm9udC1zaXplOiAxMC4ycHg7IiB0cmFuc2Zvcm09InRyYW5zbGF0ZSg2My42Njg3NTA3NjI5Mzk0NSwxMjMpIiB5PSIwIiB4PSIwIiBpZD0idGV4dC1lbnRpdHktUkVWSUVXUy04NmI5MGZiZi1mN2I2LTU5ZGYtOTM2NC1iZjliZmUwNWNhNTctYXR0ci01LW5hbWUiIGNsYXNzPSJlciBlbnRpdHlMYWJlbCI+cmF0aW5nPC90ZXh0PjxyZWN0IGhlaWdodD0iMjIiIHdpZHRoPSIyMi4wODc2OTUxMjE3NjUxMzciIHk9IjExMiIgeD0iMTI0LjMyNTAwMDc2MjkzOTQ1IiBjbGFzcz0iZXIgYXR0cmlidXRlQm94T2RkIj48L3JlY3Q+PHRleHQgc3R5bGU9ImRvbWluYW50LWJhc2VsaW5lOiBtaWRkbGU7IGZvbnQtc2l6ZTogMTAuMnB4OyIgdHJhbnNmb3JtPSJ0cmFuc2xhdGUoMTI5LjMyNTAwMDc2MjkzOTQ1LDEyMykiIHk9IjAiIHg9IjAiIGlkPSJ0ZXh0LWVudGl0eS1SRVZJRVdTLTg2YjkwZmJmLWY3YjYtNTlkZi05MzY0LWJmOWJmZTA1Y2E1Ny1hdHRyLTUta2V5IiBjbGFzcz0iZXIgZW50aXR5TGFiZWwiPjwvdGV4dD48cmVjdCBoZWlnaHQ9IjIyIiB3aWR0aD0iNTguNjY4NzUwNzYyOTM5NDUiIHk9IjEzNCIgeD0iMCIgY2xhc3M9ImVyIGF0dHJpYnV0ZUJveEV2ZW4iPjwvcmVjdD48dGV4dCBzdHlsZT0iZG9taW5hbnQtYmFzZWxpbmU6IG1pZGRsZTsgZm9udC1zaXplOiAxMC4ycHg7IiB0cmFuc2Zvcm09InRyYW5zbGF0ZSg1LDE0NSkiIHk9IjAiIHg9IjAiIGlkPSJ0ZXh0LWVudGl0eS1SRVZJRVdTLTg2YjkwZmJmLWY3YjYtNTlkZi05MzY0LWJmOWJmZTA1Y2E1Ny1hdHRyLTYtdHlwZSIgY2xhc3M9ImVyIGVudGl0eUxhYmVsIj50ZXh0PC90ZXh0PjxyZWN0IGhlaWdodD0iMjIiIHdpZHRoPSI2NS42NTYyNSIgeT0iMTM0IiB4PSI1OC42Njg3NTA3NjI5Mzk0NSIgY2xhc3M9ImVyIGF0dHJpYnV0ZUJveEV2ZW4iPjwvcmVjdD48dGV4dCBzdHlsZT0iZG9taW5hbnQtYmFzZWxpbmU6IG1pZGRsZTsgZm9udC1zaXplOiAxMC4ycHg7IiB0cmFuc2Zvcm09InRyYW5zbGF0ZSg2My42Njg3NTA3NjI5Mzk0NSwxNDUpIiB5PSIwIiB4PSIwIiBpZD0idGV4dC1lbnRpdHktUkVWSUVXUy04NmI5MGZiZi1mN2I2LTU5ZGYtOTM2NC1iZjliZmUwNWNhNTctYXR0ci02LW5hbWUiIGNsYXNzPSJlciBlbnRpdHlMYWJlbCI+Y29tbWVudDwvdGV4dD48cmVjdCBoZWlnaHQ9IjIyIiB3aWR0aD0iMjIuMDg3Njk1MTIxNzY1MTM3IiB5PSIxMzQiIHg9IjEyNC4zMjUwMDA3NjI5Mzk0NSIgY2xhc3M9ImVyIGF0dHJpYnV0ZUJveEV2ZW4iPjwvcmVjdD48dGV4dCBzdHlsZT0iZG9taW5hbnQtYmFzZWxpbmU6IG1pZGRsZTsgZm9udC1zaXplOiAxMC4ycHg7IiB0cmFuc2Zvcm09InRyYW5zbGF0ZSgxMjkuMzI1MDAwNzYyOTM5NDUsMTQ1KSIgeT0iMCIgeD0iMCIgaWQ9InRleHQtZW50aXR5LVJFVklFV1MtODZiOTBmYmYtZjdiNi01OWRmLTkzNjQtYmY5YmZlMDVjYTU3LWF0dHItNi1rZXkiIGNsYXNzPSJlciBlbnRpdHlMYWJlbCI+PC90ZXh0PjxyZWN0IGhlaWdodD0iMjIiIHdpZHRoPSI1OC42Njg3NTA3NjI5Mzk0NSIgeT0iMTU2IiB4PSIwIiBjbGFzcz0iZXIgYXR0cmlidXRlQm94T2RkIj48L3JlY3Q+PHRleHQgc3R5bGU9ImRvbWluYW50LWJhc2VsaW5lOiBtaWRkbGU7IGZvbnQtc2l6ZTogMTAuMnB4OyIgdHJhbnNmb3JtPSJ0cmFuc2xhdGUoNSwxNjcpIiB5PSIwIiB4PSIwIiBpZD0idGV4dC1lbnRpdHktUkVWSUVXUy04NmI5MGZiZi1mN2I2LTU5ZGYtOTM2NC1iZjliZmUwNWNhNTctYXR0ci03LXR5cGUiIGNsYXNzPSJlciBlbnRpdHlMYWJlbCI+dGltZXN0YW1wPC90ZXh0PjxyZWN0IGhlaWdodD0iMjIiIHdpZHRoPSI2NS42NTYyNSIgeT0iMTU2IiB4PSI1OC42Njg3NTA3NjI5Mzk0NSIgY2xhc3M9ImVyIGF0dHJpYnV0ZUJveE9kZCI+PC9yZWN0Pjx0ZXh0IHN0eWxlPSJkb21pbmFudC1iYXNlbGluZTogbWlkZGxlOyBmb250LXNpemU6IDEwLjJweDsiIHRyYW5zZm9ybT0idHJhbnNsYXRlKDYzLjY2ODc1MDc2MjkzOTQ1LDE2NykiIHk9IjAiIHg9IjAiIGlkPSJ0ZXh0LWVudGl0eS1SRVZJRVdTLTg2YjkwZmJmLWY3YjYtNTlkZi05MzY0LWJmOWJmZTA1Y2E1Ny1hdHRyLTctbmFtZSIgY2xhc3M9ImVyIGVudGl0eUxhYmVsIj5jcmVhdGVkX2F0PC90ZXh0PjxyZWN0IGhlaWdodD0iMjIiIHdpZHRoPSIyMi4wODc2OTUxMjE3NjUxMzciIHk9IjE1NiIgeD0iMTI0LjMyNTAwMDc2MjkzOTQ1IiBjbGFzcz0iZXIgYXR0cmlidXRlQm94T2RkIj48L3JlY3Q+PHRleHQgc3R5bGU9ImRvbWluYW50LWJhc2VsaW5lOiBtaWRkbGU7IGZvbnQtc2l6ZTogMTAuMnB4OyIgdHJhbnNmb3JtPSJ0cmFuc2xhdGUoMTI5LjMyNTAwMDc2MjkzOTQ1LDE2NykiIHk9IjAiIHg9IjAiIGlkPSJ0ZXh0LWVudGl0eS1SRVZJRVdTLTg2YjkwZmJmLWY3YjYtNTlkZi05MzY0LWJmOWJmZTA1Y2E1Ny1hdHRyLTcta2V5IiBjbGFzcz0iZXIgZW50aXR5TGFiZWwiPjwvdGV4dD48L2c+PGcgdHJhbnNmb3JtPSJ0cmFuc2xhdGUoNTQ5Ljg2NDQ1OTk5MTQ1NTEsNzMwICkiIGlkPSJlbnRpdHktTUVTU0FHRVMtZmZjOTQ3ZjktNDgzMi01YTIyLTljMTctNWY0ZGViNmUzYWRhIj48cmVjdCBoZWlnaHQ9IjE3OCIgd2lkdGg9IjE0Mi4yNzUxOTUxMjE3NjUxNCIgeT0iMCIgeD0iMCIgY2xhc3M9ImVyIGVudGl0eUJveCI+PC9yZWN0Pjx0ZXh0IHN0eWxlPSJkb21pbmFudC1iYXNlbGluZTogbWlkZGxlOyB0ZXh0LWFuY2hvcjogbWlkZGxlOyBmb250LXNpemU6IDEycHg7IiB0cmFuc2Zvcm09InRyYW5zbGF0ZSg3MS4xMzc1OTc1NjA4ODI1NywxMikiIHk9IjAiIHg9IjAiIGlkPSJ0ZXh0LWVudGl0eS1NRVNTQUdFUy1mZmM5NDdmOS00ODMyLTVhMjItOWMxNy01ZjRkZWI2ZTNhZGEiIGNsYXNzPSJlciBlbnRpdHlMYWJlbCI+TUVTU0FHRVM8L3RleHQ+PHJlY3QgaGVpZ2h0PSIyMiIgd2lkdGg9IjU4LjY2ODc1MDc2MjkzOTQ1IiB5PSIyNCIgeD0iMCIgY2xhc3M9ImVyIGF0dHJpYnV0ZUJveE9kZCI+PC9yZWN0Pjx0ZXh0IHN0eWxlPSJkb21pbmFudC1iYXNlbGluZTogbWlkZGxlOyBmb250LXNpemU6IDEwLjJweDsiIHRyYW5zZm9ybT0idHJhbnNsYXRlKDUsMzUpIiB5PSIwIiB4PSIwIiBpZD0idGV4dC1lbnRpdHktTUVTU0FHRVMtZmZjOTQ3ZjktNDgzMi01YTIyLTljMTctNWY0ZGViNmUzYWRhLWF0dHItMS10eXBlIiBjbGFzcz0iZXIgZW50aXR5TGFiZWwiPmludDwvdGV4dD48cmVjdCBoZWlnaHQ9IjIyIiB3aWR0aD0iNjEuNTE4NzQ5MjM3MDYwNTUiIHk9IjI0IiB4PSI1OC42Njg3NTA3NjI5Mzk0NSIgY2xhc3M9ImVyIGF0dHJpYnV0ZUJveE9kZCI+PC9yZWN0Pjx0ZXh0IHN0eWxlPSJkb21pbmFudC1iYXNlbGluZTogbWlkZGxlOyBmb250LXNpemU6IDEwLjJweDsiIHRyYW5zZm9ybT0idHJhbnNsYXRlKDYzLjY2ODc1MDc2MjkzOTQ1LDM1KSIgeT0iMCIgeD0iMCIgaWQ9InRleHQtZW50aXR5LU1FU1NBR0VTLWZmYzk0N2Y5LTQ4MzItNWEyMi05YzE3LTVmNGRlYjZlM2FkYS1hdHRyLTEtbmFtZSIgY2xhc3M9ImVyIGVudGl0eUxhYmVsIj5pZDwvdGV4dD48cmVjdCBoZWlnaHQ9IjIyIiB3aWR0aD0iMjIuMDg3Njk1MTIxNzY1MTM3IiB5PSIyNCIgeD0iMTIwLjE4NzUiIGNsYXNzPSJlciBhdHRyaWJ1dGVCb3hPZGQiPjwvcmVjdD48dGV4dCBzdHlsZT0iZG9taW5hbnQtYmFzZWxpbmU6IG1pZGRsZTsgZm9udC1zaXplOiAxMC4ycHg7IiB0cmFuc2Zvcm09InRyYW5zbGF0ZSgxMjUuMTg3NSwzNSkiIHk9IjAiIHg9IjAiIGlkPSJ0ZXh0LWVudGl0eS1NRVNTQUdFUy1mZmM5NDdmOS00ODMyLTVhMjItOWMxNy01ZjRkZWI2ZTNhZGEtYXR0ci0xLWtleSIgY2xhc3M9ImVyIGVudGl0eUxhYmVsIj5QSzwvdGV4dD48cmVjdCBoZWlnaHQ9IjIyIiB3aWR0aD0iNTguNjY4NzUwNzYyOTM5NDUiIHk9IjQ2IiB4PSIwIiBjbGFzcz0iZXIgYXR0cmlidXRlQm94RXZlbiI+PC9yZWN0Pjx0ZXh0IHN0eWxlPSJkb21pbmFudC1iYXNlbGluZTogbWlkZGxlOyBmb250LXNpemU6IDEwLjJweDsiIHRyYW5zZm9ybT0idHJhbnNsYXRlKDUsNTcpIiB5PSIwIiB4PSIwIiBpZD0idGV4dC1lbnRpdHktTUVTU0FHRVMtZmZjOTQ3ZjktNDgzMi01YTIyLTljMTctNWY0ZGViNmUzYWRhLWF0dHItMi10eXBlIiBjbGFzcz0iZXIgZW50aXR5TGFiZWwiPmludDwvdGV4dD48cmVjdCBoZWlnaHQ9IjIyIiB3aWR0aD0iNjEuNTE4NzQ5MjM3MDYwNTUiIHk9IjQ2IiB4PSI1OC42Njg3NTA3NjI5Mzk0NSIgY2xhc3M9ImVyIGF0dHJpYnV0ZUJveEV2ZW4iPjwvcmVjdD48dGV4dCBzdHlsZT0iZG9taW5hbnQtYmFzZWxpbmU6IG1pZGRsZTsgZm9udC1zaXplOiAxMC4ycHg7IiB0cmFuc2Zvcm09InRyYW5zbGF0ZSg2My42Njg3NTA3NjI5Mzk0NSw1NykiIHk9IjAiIHg9IjAiIGlkPSJ0ZXh0LWVudGl0eS1NRVNTQUdFUy1mZmM5NDdmOS00ODMyLTVhMjItOWMxNy01ZjRkZWI2ZTNhZGEtYXR0ci0yLW5hbWUiIGNsYXNzPSJlciBlbnRpdHlMYWJlbCI+c2VuZGVyX2lkPC90ZXh0PjxyZWN0IGhlaWdodD0iMjIiIHdpZHRoPSIyMi4wODc2OTUxMjE3NjUxMzciIHk9IjQ2IiB4PSIxMjAuMTg3NSIgY2xhc3M9ImVyIGF0dHJpYnV0ZUJveEV2ZW4iPjwvcmVjdD48dGV4dCBzdHlsZT0iZG9taW5hbnQtYmFzZWxpbmU6IG1pZGRsZTsgZm9udC1zaXplOiAxMC4ycHg7IiB0cmFuc2Zvcm09InRyYW5zbGF0ZSgxMjUuMTg3NSw1NykiIHk9IjAiIHg9IjAiIGlkPSJ0ZXh0LWVudGl0eS1NRVNTQUdFUy1mZmM5NDdmOS00ODMyLTVhMjItOWMxNy01ZjRkZWI2ZTNhZGEtYXR0ci0yLWtleSIgY2xhc3M9ImVyIGVudGl0eUxhYmVsIj5GSzwvdGV4dD48cmVjdCBoZWlnaHQ9IjIyIiB3aWR0aD0iNTguNjY4NzUwNzYyOTM5NDUiIHk9IjY4IiB4PSIwIiBjbGFzcz0iZXIgYXR0cmlidXRlQm94T2RkIj48L3JlY3Q+PHRleHQgc3R5bGU9ImRvbWluYW50LWJhc2VsaW5lOiBtaWRkbGU7IGZvbnQtc2l6ZTogMTAuMnB4OyIgdHJhbnNmb3JtPSJ0cmFuc2xhdGUoNSw3OSkiIHk9IjAiIHg9IjAiIGlkPSJ0ZXh0LWVudGl0eS1NRVNTQUdFUy1mZmM5NDdmOS00ODMyLTVhMjItOWMxNy01ZjRkZWI2ZTNhZGEtYXR0ci0zLXR5cGUiIGNsYXNzPSJlciBlbnRpdHlMYWJlbCI+aW50PC90ZXh0PjxyZWN0IGhlaWdodD0iMjIiIHdpZHRoPSI2MS41MTg3NDkyMzcwNjA1NSIgeT0iNjgiIHg9IjU4LjY2ODc1MDc2MjkzOTQ1IiBjbGFzcz0iZXIgYXR0cmlidXRlQm94T2RkIj48L3JlY3Q+PHRleHQgc3R5bGU9ImRvbWluYW50LWJhc2VsaW5lOiBtaWRkbGU7IGZvbnQtc2l6ZTogMTAuMnB4OyIgdHJhbnNmb3JtPSJ0cmFuc2xhdGUoNjMuNjY4NzUwNzYyOTM5NDUsNzkpIiB5PSIwIiB4PSIwIiBpZD0idGV4dC1lbnRpdHktTUVTU0FHRVMtZmZjOTQ3ZjktNDgzMi01YTIyLTljMTctNWY0ZGViNmUzYWRhLWF0dHItMy1uYW1lIiBjbGFzcz0iZXIgZW50aXR5TGFiZWwiPnJlY2VpdmVyX2lkPC90ZXh0PjxyZWN0IGhlaWdodD0iMjIiIHdpZHRoPSIyMi4wODc2OTUxMjE3NjUxMzciIHk9IjY4IiB4PSIxMjAuMTg3NSIgY2xhc3M9ImVyIGF0dHJpYnV0ZUJveE9kZCI+PC9yZWN0Pjx0ZXh0IHN0eWxlPSJkb21pbmFudC1iYXNlbGluZTogbWlkZGxlOyBmb250LXNpemU6IDEwLjJweDsiIHRyYW5zZm9ybT0idHJhbnNsYXRlKDEyNS4xODc1LDc5KSIgeT0iMCIgeD0iMCIgaWQ9InRleHQtZW50aXR5LU1FU1NBR0VTLWZmYzk0N2Y5LTQ4MzItNWEyMi05YzE3LTVmNGRlYjZlM2FkYS1hdHRyLTMta2V5IiBjbGFzcz0iZXIgZW50aXR5TGFiZWwiPkZLPC90ZXh0PjxyZWN0IGhlaWdodD0iMjIiIHdpZHRoPSI1OC42Njg3NTA3NjI5Mzk0NSIgeT0iOTAiIHg9IjAiIGNsYXNzPSJlciBhdHRyaWJ1dGVCb3hFdmVuIj48L3JlY3Q+PHRleHQgc3R5bGU9ImRvbWluYW50LWJhc2VsaW5lOiBtaWRkbGU7IGZvbnQtc2l6ZTogMTAuMnB4OyIgdHJhbnNmb3JtPSJ0cmFuc2xhdGUoNSwxMDEpIiB5PSIwIiB4PSIwIiBpZD0idGV4dC1lbnRpdHktTUVTU0FHRVMtZmZjOTQ3ZjktNDgzMi01YTIyLTljMTctNWY0ZGViNmUzYWRhLWF0dHItNC10eXBlIiBjbGFzcz0iZXIgZW50aXR5TGFiZWwiPmludDwvdGV4dD48cmVjdCBoZWlnaHQ9IjIyIiB3aWR0aD0iNjEuNTE4NzQ5MjM3MDYwNTUiIHk9IjkwIiB4PSI1OC42Njg3NTA3NjI5Mzk0NSIgY2xhc3M9ImVyIGF0dHJpYnV0ZUJveEV2ZW4iPjwvcmVjdD48dGV4dCBzdHlsZT0iZG9taW5hbnQtYmFzZWxpbmU6IG1pZGRsZTsgZm9udC1zaXplOiAxMC4ycHg7IiB0cmFuc2Zvcm09InRyYW5zbGF0ZSg2My42Njg3NTA3NjI5Mzk0NSwxMDEpIiB5PSIwIiB4PSIwIiBpZD0idGV4dC1lbnRpdHktTUVTU0FHRVMtZmZjOTQ3ZjktNDgzMi01YTIyLTljMTctNWY0ZGViNmUzYWRhLWF0dHItNC1uYW1lIiBjbGFzcz0iZXIgZW50aXR5TGFiZWwiPnByb2plY3RfaWQ8L3RleHQ+PHJlY3QgaGVpZ2h0PSIyMiIgd2lkdGg9IjIyLjA4NzY5NTEyMTc2NTEzNyIgeT0iOTAiIHg9IjEyMC4xODc1IiBjbGFzcz0iZXIgYXR0cmlidXRlQm94RXZlbiI+PC9yZWN0Pjx0ZXh0IHN0eWxlPSJkb21pbmFudC1iYXNlbGluZTogbWlkZGxlOyBmb250LXNpemU6IDEwLjJweDsiIHRyYW5zZm9ybT0idHJhbnNsYXRlKDEyNS4xODc1LDEwMSkiIHk9IjAiIHg9IjAiIGlkPSJ0ZXh0LWVudGl0eS1NRVNTQUdFUy1mZmM5NDdmOS00ODMyLTVhMjItOWMxNy01ZjRkZWI2ZTNhZGEtYXR0ci00LWtleSIgY2xhc3M9ImVyIGVudGl0eUxhYmVsIj5GSzwvdGV4dD48cmVjdCBoZWlnaHQ9IjIyIiB3aWR0aD0iNTguNjY4NzUwNzYyOTM5NDUiIHk9IjExMiIgeD0iMCIgY2xhc3M9ImVyIGF0dHJpYnV0ZUJveE9kZCI+PC9yZWN0Pjx0ZXh0IHN0eWxlPSJkb21pbmFudC1iYXNlbGluZTogbWlkZGxlOyBmb250LXNpemU6IDEwLjJweDsiIHRyYW5zZm9ybT0idHJhbnNsYXRlKDUsMTIzKSIgeT0iMCIgeD0iMCIgaWQ9InRleHQtZW50aXR5LU1FU1NBR0VTLWZmYzk0N2Y5LTQ4MzItNWEyMi05YzE3LTVmNGRlYjZlM2FkYS1hdHRyLTUtdHlwZSIgY2xhc3M9ImVyIGVudGl0eUxhYmVsIj50ZXh0PC90ZXh0PjxyZWN0IGhlaWdodD0iMjIiIHdpZHRoPSI2MS41MTg3NDkyMzcwNjA1NSIgeT0iMTEyIiB4PSI1OC42Njg3NTA3NjI5Mzk0NSIgY2xhc3M9ImVyIGF0dHJpYnV0ZUJveE9kZCI+PC9yZWN0Pjx0ZXh0IHN0eWxlPSJkb21pbmFudC1iYXNlbGluZTogbWlkZGxlOyBmb250LXNpemU6IDEwLjJweDsiIHRyYW5zZm9ybT0idHJhbnNsYXRlKDYzLjY2ODc1MDc2MjkzOTQ1LDEyMykiIHk9IjAiIHg9IjAiIGlkPSJ0ZXh0LWVudGl0eS1NRVNTQUdFUy1mZmM5NDdmOS00ODMyLTVhMjItOWMxNy01ZjRkZWI2ZTNhZGEtYXR0ci01LW5hbWUiIGNsYXNzPSJlciBlbnRpdHlMYWJlbCI+bWVzc2FnZTwvdGV4dD48cmVjdCBoZWlnaHQ9IjIyIiB3aWR0aD0iMjIuMDg3Njk1MTIxNzY1MTM3IiB5PSIxMTIiIHg9IjEyMC4xODc1IiBjbGFzcz0iZXIgYXR0cmlidXRlQm94T2RkIj48L3JlY3Q+PHRleHQgc3R5bGU9ImRvbWluYW50LWJhc2VsaW5lOiBtaWRkbGU7IGZvbnQtc2l6ZTogMTAuMnB4OyIgdHJhbnNmb3JtPSJ0cmFuc2xhdGUoMTI1LjE4NzUsMTIzKSIgeT0iMCIgeD0iMCIgaWQ9InRleHQtZW50aXR5LU1FU1NBR0VTLWZmYzk0N2Y5LTQ4MzItNWEyMi05YzE3LTVmNGRlYjZlM2FkYS1hdHRyLTUta2V5IiBjbGFzcz0iZXIgZW50aXR5TGFiZWwiPjwvdGV4dD48cmVjdCBoZWlnaHQ9IjIyIiB3aWR0aD0iNTguNjY4NzUwNzYyOTM5NDUiIHk9IjEzNCIgeD0iMCIgY2xhc3M9ImVyIGF0dHJpYnV0ZUJveEV2ZW4iPjwvcmVjdD48dGV4dCBzdHlsZT0iZG9taW5hbnQtYmFzZWxpbmU6IG1pZGRsZTsgZm9udC1zaXplOiAxMC4ycHg7IiB0cmFuc2Zvcm09InRyYW5zbGF0ZSg1LDE0NSkiIHk9IjAiIHg9IjAiIGlkPSJ0ZXh0LWVudGl0eS1NRVNTQUdFUy1mZmM5NDdmOS00ODMyLTVhMjItOWMxNy01ZjRkZWI2ZTNhZGEtYXR0ci02LXR5cGUiIGNsYXNzPSJlciBlbnRpdHlMYWJlbCI+Ym9vbGVhbjwvdGV4dD48cmVjdCBoZWlnaHQ9IjIyIiB3aWR0aD0iNjEuNTE4NzQ5MjM3MDYwNTUiIHk9IjEzNCIgeD0iNTguNjY4NzUwNzYyOTM5NDUiIGNsYXNzPSJlciBhdHRyaWJ1dGVCb3hFdmVuIj48L3JlY3Q+PHRleHQgc3R5bGU9ImRvbWluYW50LWJhc2VsaW5lOiBtaWRkbGU7IGZvbnQtc2l6ZTogMTAuMnB4OyIgdHJhbnNmb3JtPSJ0cmFuc2xhdGUoNjMuNjY4NzUwNzYyOTM5NDUsMTQ1KSIgeT0iMCIgeD0iMCIgaWQ9InRleHQtZW50aXR5LU1FU1NBR0VTLWZmYzk0N2Y5LTQ4MzItNWEyMi05YzE3LTVmNGRlYjZlM2FkYS1hdHRyLTYtbmFtZSIgY2xhc3M9ImVyIGVudGl0eUxhYmVsIj5pc19yZWFkPC90ZXh0PjxyZWN0IGhlaWdodD0iMjIiIHdpZHRoPSIyMi4wODc2OTUxMjE3NjUxMzciIHk9IjEzNCIgeD0iMTIwLjE4NzUiIGNsYXNzPSJlciBhdHRyaWJ1dGVCb3hFdmVuIj48L3JlY3Q+PHRleHQgc3R5bGU9ImRvbWluYW50LWJhc2VsaW5lOiBtaWRkbGU7IGZvbnQtc2l6ZTogMTAuMnB4OyIgdHJhbnNmb3JtPSJ0cmFuc2xhdGUoMTI1LjE4NzUsMTQ1KSIgeT0iMCIgeD0iMCIgaWQ9InRleHQtZW50aXR5LU1FU1NBR0VTLWZmYzk0N2Y5LTQ4MzItNWEyMi05YzE3LTVmNGRlYjZlM2FkYS1hdHRyLTYta2V5IiBjbGFzcz0iZXIgZW50aXR5TGFiZWwiPjwvdGV4dD48cmVjdCBoZWlnaHQ9IjIyIiB3aWR0aD0iNTguNjY4NzUwNzYyOTM5NDUiIHk9IjE1NiIgeD0iMCIgY2xhc3M9ImVyIGF0dHJpYnV0ZUJveE9kZCI+PC9yZWN0Pjx0ZXh0IHN0eWxlPSJkb21pbmFudC1iYXNlbGluZTogbWlkZGxlOyBmb250LXNpemU6IDEwLjJweDsiIHRyYW5zZm9ybT0idHJhbnNsYXRlKDUsMTY3KSIgeT0iMCIgeD0iMCIgaWQ9InRleHQtZW50aXR5LU1FU1NBR0VTLWZmYzk0N2Y5LTQ4MzItNWEyMi05YzE3LTVmNGRlYjZlM2FkYS1hdHRyLTctdHlwZSIgY2xhc3M9ImVyIGVudGl0eUxhYmVsIj50aW1lc3RhbXA8L3RleHQ+PHJlY3QgaGVpZ2h0PSIyMiIgd2lkdGg9IjYxLjUxODc0OTIzNzA2MDU1IiB5PSIxNTYiIHg9IjU4LjY2ODc1MDc2MjkzOTQ1IiBjbGFzcz0iZXIgYXR0cmlidXRlQm94T2RkIj48L3JlY3Q+PHRleHQgc3R5bGU9ImRvbWluYW50LWJhc2VsaW5lOiBtaWRkbGU7IGZvbnQtc2l6ZTogMTAuMnB4OyIgdHJhbnNmb3JtPSJ0cmFuc2xhdGUoNjMuNjY4NzUwNzYyOTM5NDUsMTY3KSIgeT0iMCIgeD0iMCIgaWQ9InRleHQtZW50aXR5LU1FU1NBR0VTLWZmYzk0N2Y5LTQ4MzItNWEyMi05YzE3LTVmNGRlYjZlM2FkYS1hdHRyLTctbmFtZSIgY2xhc3M9ImVyIGVudGl0eUxhYmVsIj5jcmVhdGVkX2F0PC90ZXh0PjxyZWN0IGhlaWdodD0iMjIiIHdpZHRoPSIyMi4wODc2OTUxMjE3NjUxMzciIHk9IjE1NiIgeD0iMTIwLjE4NzUiIGNsYXNzPSJlciBhdHRyaWJ1dGVCb3hPZGQiPjwvcmVjdD48dGV4dCBzdHlsZT0iZG9taW5hbnQtYmFzZWxpbmU6IG1pZGRsZTsgZm9udC1zaXplOiAxMC4ycHg7IiB0cmFuc2Zvcm09InRyYW5zbGF0ZSgxMjUuMTg3NSwxNjcpIiB5PSIwIiB4PSIwIiBpZD0idGV4dC1lbnRpdHktTUVTU0FHRVMtZmZjOTQ3ZjktNDgzMi01YTIyLTljMTctNWY0ZGViNmUzYWRhLWF0dHItNy1rZXkiIGNsYXNzPSJlciBlbnRpdHlMYWJlbCI+PC90ZXh0PjwvZz48cmVjdCBoZWlnaHQ9IjE0IiB3aWR0aD0iNzYuNzk0MTQzNjc2NzU3ODEiIHk9IjMwNi4wMTIwNTQ0NDMzNTk0IiB4PSI3NjguODMyNTQyNDE5NDMzNiIgY2xhc3M9ImVyIHJlbGF0aW9uc2hpcExhYmVsQm94Ij48L3JlY3Q+PHRleHQgc3R5bGU9InRleHQtYW5jaG9yOiBtaWRkbGU7IGRvbWluYW50LWJhc2VsaW5lOiBtaWRkbGU7IGZvbnQtc2l6ZTogMTJweDsiIHk9IjMxMy4wMTIwNTQ0NDMzNTk0IiB4PSI4MDcuMjI5NjE0MjU3ODEyNSIgaWQ9InJlbDEiIGNsYXNzPSJlciByZWxhdGlvbnNoaXBMYWJlbCI+cG9zdHMgYXMgY2xpZW50PC90ZXh0PjxyZWN0IGhlaWdodD0iMTQiIHdpZHRoPSIxNy43MTg3NSIgeT0iMjQwLjAwOTk0ODczMDQ2ODc1IiB4PSIzNTYuNzc3NjQ4OTI1NzgxMjUiIGNsYXNzPSJlciByZWxhdGlvbnNoaXBMYWJlbEJveCI+PC9yZWN0Pjx0ZXh0IHN0eWxlPSJ0ZXh0LWFuY2hvcjogbWlkZGxlOyBkb21pbmFudC1iYXNlbGluZTogbWlkZGxlOyBmb250LXNpemU6IDEycHg7IiB5PSIyNDcuMDA5OTQ4NzMwNDY4NzUiIHg9IjM2NS42MzcwMjM5MjU3ODEyNSIgaWQ9InJlbDIiIGNsYXNzPSJlciByZWxhdGlvbnNoaXBMYWJlbCI+aGFzPC90ZXh0PjxyZWN0IGhlaWdodD0iMTQiIHdpZHRoPSIxMTUuMzY2NDA5MzAxNzU3ODEiIHk9IjMzNi4yMTAzODgxODM1OTM3NSIgeD0iMjc2LjU2MDE3MzAzNDY2Nzk3IiBjbGFzcz0iZXIgcmVsYXRpb25zaGlwTGFiZWxCb3giPjwvcmVjdD48dGV4dCBzdHlsZT0idGV4dC1hbmNob3I6IG1pZGRsZTsgZG9taW5hbnQtYmFzZWxpbmU6IG1pZGRsZTsgZm9udC1zaXplOiAxMnB4OyIgeT0iMzQzLjIxMDM4ODE4MzU5Mzc1IiB4PSIzMzQuMjQzMzc3Njg1NTQ2OSIgaWQ9InJlbDMiIGNsYXNzPSJlciByZWxhdGlvbnNoaXBMYWJlbCI+c3VibWl0cyBhcyBmcmVlbGFuY2VyPC90ZXh0PjxyZWN0IGhlaWdodD0iMTQiIHdpZHRoPSI0NC40MDAwMDE1MjU4Nzg5MDYiIHk9IjU5MS43NjIyMDcwMzEyNSIgeD0iNTIwLjE3ODIzNDEwMDM0MTgiIGNsYXNzPSJlciByZWxhdGlvbnNoaXBMYWJlbEJveCI+PC9yZWN0Pjx0ZXh0IHN0eWxlPSJ0ZXh0LWFuY2hvcjogbWlkZGxlOyBkb21pbmFudC1iYXNlbGluZTogbWlkZGxlOyBmb250LXNpemU6IDEycHg7IiB5PSI1OTguNzYyMjA3MDMxMjUiIHg9IjU0Mi4zNzgyMzQ4NjMyODEyIiBpZD0icmVsNCIgY2xhc3M9ImVyIHJlbGF0aW9uc2hpcExhYmVsIj5yZWNlaXZlczwvdGV4dD48cmVjdCBoZWlnaHQ9IjE0IiB3aWR0aD0iNjQuMTg3NSIgeT0iMTA2MS42NjUxNjExMzI4MTI1IiB4PSI1NTAuNjY1MTYxMTMyODEyNSIgY2xhc3M9ImVyIHJlbGF0aW9uc2hpcExhYmVsQm94Ij48L3JlY3Q+PHRleHQgc3R5bGU9InRleHQtYW5jaG9yOiBtaWRkbGU7IGRvbWluYW50LWJhc2VsaW5lOiBtaWRkbGU7IGZvbnQtc2l6ZTogMTJweDsiIHk9IjEwNjguNjY1MTYxMTMyODEyNSIgeD0iNTgyLjc1ODkxMTEzMjgxMjUiIGlkPSJyZWw1IiBjbGFzcz0iZXIgcmVsYXRpb25zaGlwTGFiZWwiPmFjY2VwdGVkIGFzPC90ZXh0PjxyZWN0IGhlaWdodD0iMTQiIHdpZHRoPSI0OS4zNzUiIHk9IjgxMi41OTkzMDQxOTkyMTg4IiB4PSI4MzYuNDcyNjU2MjUiIGNsYXNzPSJlciByZWxhdGlvbnNoaXBMYWJlbEJveCI+PC9yZWN0Pjx0ZXh0IHN0eWxlPSJ0ZXh0LWFuY2hvcjogbWlkZGxlOyBkb21pbmFudC1iYXNlbGluZTogbWlkZGxlOyBmb250LXNpemU6IDEycHg7IiB5PSI4MTkuNTk5MzA0MTk5MjE4OCIgeD0iODYxLjE2MDE1NjI1IiBpZD0icmVsNiIgY2xhc3M9ImVyIHJlbGF0aW9uc2hpcExhYmVsIj5yZXN1bHRzIGluPC90ZXh0PjxyZWN0IGhlaWdodD0iMTQiIHdpZHRoPSIxMTMuNTQ0MTQzNjc2NzU3ODEiIHk9IjU3NS42MTIwNjA1NDY4NzUiIHg9Ijk0Mi44OTg5NDg2Njk0MzM2IiBjbGFzcz0iZXIgcmVsYXRpb25zaGlwTGFiZWxCb3giPjwvcmVjdD48dGV4dCBzdHlsZT0idGV4dC1hbmNob3I6IG1pZGRsZTsgZG9taW5hbnQtYmFzZWxpbmU6IG1pZGRsZTsgZm9udC1zaXplOiAxMnB4OyIgeT0iNTgyLjYxMjA2MDU0Njg3NSIgeD0iOTk5LjY3MTAyMDUwNzgxMjUiIGlkPSJyZWw3IiBjbGFzcz0iZXIgcmVsYXRpb25zaGlwTGFiZWwiPnBhcnRpY2lwYXRlcyBhcyBjbGllbnQ8L3RleHQ+PHJlY3QgaGVpZ2h0PSIxNCIgd2lkdGg9IjEzOC42MTY0MDkzMDE3NTc4IiB5PSI1NjkuMTMxMTY0NTUwNzgxMiIgeD0iMTAzMC4zNjI4MTU4NTY5MzM2IiBjbGFzcz0iZXIgcmVsYXRpb25zaGlwTGFiZWxCb3giPjwvcmVjdD48dGV4dCBzdHlsZT0idGV4dC1hbmNob3I6IG1pZGRsZTsgZG9taW5hbnQtYmFzZWxpbmU6IG1pZGRsZTsgZm9udC1zaXplOiAxMnB4OyIgeT0iNTc2LjEzMTE2NDU1MDc4MTIiIHg9IjEwOTkuNjcxMDIwNTA3ODEyNSIgaWQ9InJlbDgiIGNsYXNzPSJlciByZWxhdGlvbnNoaXBMYWJlbCI+cGFydGljaXBhdGVzIGFzIGZyZWVsYW5jZXI8L3RleHQ+PHJlY3QgaGVpZ2h0PSIxNCIgd2lkdGg9IjUyLjc5OTk5OTIzNzA2MDU1IiB5PSIxNDQzLjE3MDY1NDI5Njg3NSIgeD0iOTk1LjUzODM1NDg3MzY1NzIiIGNsYXNzPSJlciByZWxhdGlvbnNoaXBMYWJlbEJveCI+PC9yZWN0Pjx0ZXh0IHN0eWxlPSJ0ZXh0LWFuY2hvcjogbWlkZGxlOyBkb21pbmFudC1iYXNlbGluZTogbWlkZGxlOyBmb250LXNpemU6IDEycHg7IiB5PSIxNDUwLjE3MDY1NDI5Njg3NSIgeD0iMTAyMS45MzgzNTQ0OTIxODc1IiBpZD0icmVsOSIgY2xhc3M9ImVyIHJlbGF0aW9uc2hpcExhYmVsIj5nZW5lcmF0ZXM8L3RleHQ+PHJlY3QgaGVpZ2h0PSIxNCIgd2lkdGg9IjI2LjcyNTAwMDM4MTQ2OTcyNyIgeT0iNzA2LjA5MDgyMDMxMjUiIHg9IjExODYuMzA4NTIwMzE3MDc3NiIgY2xhc3M9ImVyIHJlbGF0aW9uc2hpcExhYmVsQm94Ij48L3JlY3Q+PHRleHQgc3R5bGU9InRleHQtYW5jaG9yOiBtaWRkbGU7IGRvbWluYW50LWJhc2VsaW5lOiBtaWRkbGU7IGZvbnQtc2l6ZTogMTJweDsiIHk9IjcxMy4wOTA4MjAzMTI1IiB4PSIxMTk5LjY3MTAyMDUwNzgxMjUiIGlkPSJyZWwxMCIgY2xhc3M9ImVyIHJlbGF0aW9uc2hpcExhYmVsIj5naXZlczwvdGV4dD48cmVjdCBoZWlnaHQ9IjE0IiB3aWR0aD0iNDQuNDAwMDAxNTI1ODc4OTA2IiB5PSI2NjUuMjcwOTk2MDkzNzUiIHg9IjEyNzcuNDcxMDE5NzQ0ODczIiBjbGFzcz0iZXIgcmVsYXRpb25zaGlwTGFiZWxCb3giPjwvcmVjdD48dGV4dCBzdHlsZT0idGV4dC1hbmNob3I6IG1pZGRsZTsgZG9taW5hbnQtYmFzZWxpbmU6IG1pZGRsZTsgZm9udC1zaXplOiAxMnB4OyIgeT0iNjcyLjI3MDk5NjA5Mzc1IiB4PSIxMjk5LjY3MTAyMDUwNzgxMjUiIGlkPSJyZWwxMSIgY2xhc3M9ImVyIHJlbGF0aW9uc2hpcExhYmVsIj5yZWNlaXZlczwvdGV4dD48cmVjdCBoZWlnaHQ9IjE0IiB3aWR0aD0iMjkuNTA2MjUwMzgxNDY5NzI3IiB5PSI0MzAuMjY5Nzc1MzkwNjI1IiB4PSI0ODIuNjAxMDAwNzg1ODI3NjQiIGNsYXNzPSJlciByZWxhdGlvbnNoaXBMYWJlbEJveCI+PC9yZWN0Pjx0ZXh0IHN0eWxlPSJ0ZXh0LWFuY2hvcjogbWlkZGxlOyBkb21pbmFudC1iYXNlbGluZTogbWlkZGxlOyBmb250LXNpemU6IDEycHg7IiB5PSI0MzcuMjY5Nzc1MzkwNjI1IiB4PSI0OTcuMzU0MTI1OTc2NTYyNSIgaWQ9InJlbDEyIiBjbGFzcz0iZXIgcmVsYXRpb25zaGlwTGFiZWwiPnNlbmRzPC90ZXh0PjxyZWN0IGhlaWdodD0iMTQiIHdpZHRoPSI0NC40MDAwMDE1MjU4Nzg5MDYiIHk9IjQ4MS42NDg4NjQ3NDYwOTM3NSIgeD0iNTk4LjgwMjAxMzM5NzIxNjgiIGNsYXNzPSJlciByZWxhdGlvbnNoaXBMYWJlbEJveCI+PC9yZWN0Pjx0ZXh0IHN0eWxlPSJ0ZXh0LWFuY2hvcjogbWlkZGxlOyBkb21pbmFudC1iYXNlbGluZTogbWlkZGxlOyBmb250LXNpemU6IDEycHg7IiB5PSI0ODguNjQ4ODY0NzQ2MDkzNzUiIHg9IjYyMS4wMDIwMTQxNjAxNTYyIiBpZD0icmVsMTMiIGNsYXNzPSJlciByZWxhdGlvbnNoaXBMYWJlbCI+cmVjZWl2ZXM8L3RleHQ+PHJlY3QgaGVpZ2h0PSIxNCIgd2lkdGg9IjUyLjAzMTI1IiB5PSI2NzAuMTc1MDQ4ODI4MTI1IiB4PSI3MTUuNDE0MTg0NTcwMzEyNSIgY2xhc3M9ImVyIHJlbGF0aW9uc2hpcExhYmVsQm94Ij48L3JlY3Q+PHRleHQgc3R5bGU9InRleHQtYW5jaG9yOiBtaWRkbGU7IGRvbWluYW50LWJhc2VsaW5lOiBtaWRkbGU7IGZvbnQtc2l6ZTogMTJweDsiIHk9IjY3Ny4xNzUwNDg4MjgxMjUiIHg9Ijc0MS40Mjk4MDk1NzAzMTI1IiBpZD0icmVsMTQiIGNsYXNzPSJlciByZWxhdGlvbnNoaXBMYWJlbCI+cmVsYXRlcyB0bzwvdGV4dD48L3N2Zz4=;" vertex="1" parent="1">
                        <mxGeometry x="-470" y="-600" width="1341.87109375" height="1660" as="geometry"/>
                    </mxCell>
                </UserObject>
            </root>
        </mxGraphModel>
    </diagram>
</mxfile>